<?xml version="1.0" encoding="utf-8"?>
<!-- Generator: Adobe Illustrator 21.1.0, SVG Export Plug-In . SVG Version: 6.00 Build 0)  -->
<svg version="1.1" id="Layer_1" xmlns="http://www.w3.org/2000/svg" xmlns:xlink="http://www.w3.org/1999/xlink" x="0px" y="0px"
	 viewBox="0 0 186.442 79.289" enable-background="new 0 0 186.442 79.289" xml:space="preserve">
<g>
	<g>
		<linearGradient id="SVGID_1_" gradientUnits="userSpaceOnUse" x1="149.112" y1="-54.9109" x2="25.0946" y2="51.6616">
			<stop  offset="0" style="stop-color:#EE1B25;stop-opacity:0.4"/>
			<stop  offset="0.2576" style="stop-color:#F42425;stop-opacity:0.6724"/>
			<stop  offset="0.5674" style="stop-color:#FF3624"/>
			<stop  offset="0.8652" style="stop-color:#EE2E25"/>
			<stop  offset="0.9962" style="stop-color:#EE1B25"/>
		</linearGradient>
		<path fill="url(#SVGID_1_)" d="M50.791,6v67.289c0,3.321-1.179,4.393-4.393,4.393h-8.679c-3.214,0-4.393-1.071-4.393-4.393V23.037
			L22.933,28.93c-3.321,1.929-5.143,1.179-6.643-1.714l-3.75-6.75c-1.5-2.786-0.75-4.179,2.143-5.893l19.394-11.25
			c2.357-1.393,3.536-1.714,6.214-1.714h6.107C49.612,1.607,50.791,2.679,50.791,6z"/>
		<linearGradient id="SVGID_2_" gradientUnits="userSpaceOnUse" x1="169.2783" y1="-30.1678" x2="45.9762" y2="75.79">
			<stop  offset="0" style="stop-color:#EE1B25;stop-opacity:0.1"/>
			<stop  offset="0.2576" style="stop-color:#F42425;stop-opacity:0.5087"/>
			<stop  offset="0.5674" style="stop-color:#FF3624"/>
			<stop  offset="0.8652" style="stop-color:#EE2E25"/>
			<stop  offset="0.9962" style="stop-color:#EE1B25"/>
		</linearGradient>
		<path fill="url(#SVGID_2_)" d="M116.259,6v7.071c0,2.426-1.967,4.393-4.393,4.393h-28.18l-1.071,11.25h9.857
			c18.536,0,26.894,11.144,26.894,24.858c0,14.036-9.964,25.716-27.751,25.716c-16.607,0-25.715-6.107-30.001-17.68
			c-1.071-3.107-0.321-4.5,2.679-5.571l8.25-3c3-1.071,4.286-0.536,5.572,2.679c1.929,4.929,5.464,7.607,13.071,7.607
			c5.692,0,9.828-3.215,9.962-9.745c0.107-5.225-4.306-9.434-9.532-9.434l-22.93,0c-3.75,0-4.821-1.607-4.5-5.036L67.4,7.822
			c0.429-4.714,2.143-6.215,6.965-6.215h37.501C114.292,1.607,116.259,3.574,116.259,6z"/>
		<linearGradient id="SVGID_3_" gradientUnits="userSpaceOnUse" x1="199.2928" y1="3.4841" x2="75.2754" y2="110.0565">
			<stop  offset="0" style="stop-color:#EE1B25;stop-opacity:0.4"/>
			<stop  offset="0.2576" style="stop-color:#F42425;stop-opacity:0.6724"/>
			<stop  offset="0.5674" style="stop-color:#FF3624"/>
			<stop  offset="0.8652" style="stop-color:#EE2E25"/>
			<stop  offset="0.9962" style="stop-color:#EE1B25"/>
		</linearGradient>
		<path fill="url(#SVGID_3_)" d="M157.298,0c18.536,0,29.144,10.393,29.144,26.68v25.715c0,16.501-10.607,26.895-29.144,26.895
			c-18.644,0-29.358-10.394-29.358-26.895V26.68C127.94,10.393,138.654,0,157.298,0z M157.298,15.965
			c-7.607,0-12.001,3.643-12.001,10.5v26.251c0,6.857,4.394,10.607,12.001,10.607c7.393,0,11.786-3.75,11.786-10.607V26.465
			C169.084,19.608,164.691,15.965,157.298,15.965z"/>
	</g>
	<g>
		<path fill="#FFFFFF" d="M115.259,7.298c-0.086-1.475-0.656-2.999-1.894-3.713c-0.579-0.388-1.272-0.602-1.983-0.68
			c-0.703-0.074-1.465-0.038-2.208-0.047h-8.955h-8.955h-4.477l-4.477-0.25l4.477-0.25h4.477h8.955h8.955
			c0.747,0.01,1.484-0.03,2.265,0.05c0.765,0.092,1.548,0.308,2.208,0.762C114.97,4.149,115.376,5.837,115.259,7.298z"/>
	</g>
	<g opacity="0.41">
		<path fill="#FFFFFF" d="M115.259,7.298c-0.086-1.475-0.656-2.999-1.894-3.713c-0.579-0.388-1.272-0.602-1.983-0.68
			c-0.703-0.074-1.465-0.038-2.208-0.047h-8.955h-8.955h-4.477l-4.477-0.25l4.477-0.25h4.477h8.955h8.955
			c0.747,0.01,1.484-0.03,2.265,0.05c0.765,0.092,1.548,0.308,2.208,0.762C114.97,4.149,115.376,5.837,115.259,7.298z"/>
	</g>
	<g>
		<path fill="#FFFFFF" d="M49.766,7.496c-0.055-1.142-0.106-2.353-0.668-3.332c-0.554-1.009-1.753-1.328-2.864-1.336
			c-1.14,0.001-2.312,0.076-3.467,0.037c-1.159-0.046-2.318-0.082-3.477-0.225c-0.014-0.002-0.024-0.014-0.022-0.028
			C39.27,2.6,39.28,2.591,39.291,2.59c1.159-0.143,2.318-0.179,3.477-0.225c1.163-0.027,2.309,0.01,3.486,0.063
			c0.59,0.044,1.192,0.137,1.749,0.389c0.558,0.245,1.037,0.688,1.314,1.225c0.541,1.096,0.506,2.304,0.499,3.453
			c0,0.014-0.011,0.025-0.025,0.025C49.778,7.521,49.767,7.509,49.766,7.496z"/>
	</g>
	<g>
		<path fill="#FFFFFF" d="M49.766,7.496c-0.055-1.142-0.106-2.353-0.668-3.332c-0.554-1.009-1.753-1.328-2.864-1.336
			c-1.14,0.001-2.312,0.076-3.467,0.037c-1.159-0.046-2.318-0.082-3.477-0.225c-0.014-0.002-0.024-0.014-0.022-0.028
			C39.27,2.6,39.28,2.591,39.291,2.59c1.159-0.143,2.318-0.179,3.477-0.225c1.163-0.027,2.309,0.01,3.486,0.063
			c0.59,0.044,1.192,0.137,1.749,0.389c0.558,0.245,1.037,0.688,1.314,1.225c0.541,1.096,0.506,2.304,0.499,3.453
			c0,0.014-0.011,0.025-0.025,0.025C49.778,7.521,49.767,7.509,49.766,7.496z"/>
	</g>
	<g>
		<path fill="#FFFFFF" d="M156.298,0.975c4.173,0.005,8.4,0.37,12.408,1.648c4.008,1.223,7.765,3.47,10.534,6.672
			c2.818,3.174,4.503,7.201,5.396,11.3c0.842,4.13,0.99,8.351,0.831,12.526c0,0.014-0.012,0.025-0.026,0.024
			c-0.013,0-0.024-0.011-0.024-0.024c-0.135-4.174-0.285-8.372-1.269-12.419c-0.898-4.037-2.514-7.983-5.211-11.147
			c-2.678-3.172-6.347-5.435-10.308-6.695c-3.954-1.332-8.163-1.765-12.331-1.836c-0.014,0-0.025-0.011-0.025-0.025
			C156.273,0.986,156.284,0.975,156.298,0.975z"/>
	</g>
	<g opacity="0.59">
		<path fill="#FFFFFF" d="M156.298,0.975c4.173,0.005,8.4,0.37,12.408,1.648c4.008,1.223,7.765,3.47,10.534,6.672
			c2.818,3.174,4.503,7.201,5.396,11.3c0.842,4.13,0.99,8.351,0.831,12.526c0,0.014-0.012,0.025-0.026,0.024
			c-0.013,0-0.024-0.011-0.024-0.024c-0.135-4.174-0.285-8.372-1.269-12.419c-0.898-4.037-2.514-7.983-5.211-11.147
			c-2.678-3.172-6.347-5.435-10.308-6.695c-3.954-1.332-8.163-1.765-12.331-1.836c-0.014,0-0.025-0.011-0.025-0.025
			C156.273,0.986,156.284,0.975,156.298,0.975z"/>
	</g>
	<g>
		<path fill="#EE1B25" d="M22.511,75.886L22.511,75.886c-0.454,0.454-1.191,0.454-1.645,0l-5.532-5.532
			c-0.454-0.454-0.454-1.191,0-1.645h0c0.454-0.454,1.191-0.454,1.645,0l5.532,5.532C22.965,74.695,22.965,75.432,22.511,75.886z"/>
		<path fill="#EE1B25" d="M15.334,75.886L15.334,75.886c-0.454-0.454-0.454-1.191,0-1.645l5.532-5.532
			c0.454-0.454,1.191-0.454,1.645,0h0c0.454,0.454,0.454,1.191,0,1.645l-5.532,5.532C16.525,76.34,15.788,76.34,15.334,75.886z"/>
	</g>
	<g>
		<path fill="#EE1B25" d="M25.534,45.82L25.534,45.82c-0.225,0.225-0.59,0.225-0.815,0l-2.743-2.743
			c-0.225-0.225-0.225-0.59,0-0.815h0c0.225-0.225,0.59-0.225,0.815,0l2.743,2.743C25.759,45.23,25.759,45.595,25.534,45.82z"/>
		<path fill="#EE1B25" d="M21.976,45.82L21.976,45.82c-0.225-0.225-0.225-0.59,0-0.815l2.743-2.743c0.225-0.225,0.59-0.225,0.815,0
			h0c0.225,0.225,0.225,0.59,0,0.815l-2.743,2.743C22.566,46.045,22.201,46.045,21.976,45.82z"/>
	</g>
	<g>
		<path fill="#EE1B25" d="M10.973,62.868L10.973,62.868c-0.608,0.608-1.595,0.608-2.203,0l-7.41-7.41
			c-0.608-0.608-0.608-1.595,0-2.203l0,0c0.608-0.608,1.595-0.608,2.203,0l7.41,7.41C11.581,61.273,11.581,62.26,10.973,62.868z"/>
		<path fill="#EE1B25" d="M1.36,62.868L1.36,62.868c-0.608-0.608-0.608-1.595,0-2.203l7.41-7.41c0.608-0.608,1.595-0.608,2.203,0
			l0,0c0.608,0.608,0.608,1.595,0,2.203l-7.41,7.41C2.955,63.476,1.969,63.476,1.36,62.868z"/>
	</g>
	<g>
		<path fill="#EE1B25" d="M23.669,59.96L23.669,59.96c-0.115,0.115-0.301,0.115-0.415,0l-1.397-1.397
			c-0.115-0.115-0.115-0.301,0-0.415l0,0c0.115-0.115,0.301-0.115,0.415,0l1.397,1.397C23.783,59.659,23.783,59.845,23.669,59.96z"
			/>
		<path fill="#EE1B25" d="M21.857,59.96L21.857,59.96c-0.115-0.115-0.115-0.301,0-0.415l1.397-1.397
			c0.115-0.115,0.301-0.115,0.415,0l0,0c0.115,0.115,0.115,0.301,0,0.415l-1.397,1.397C22.157,60.074,21.971,60.074,21.857,59.96z"
			/>
	</g>
</g>
<g display="none">
	<g display="inline">
		<g>
			<g>
				<linearGradient id="SVGID_4_" gradientUnits="userSpaceOnUse" x1="95.4267" y1="-59.7138" x2="4.0789" y2="91.2639">
					<stop  offset="0" style="stop-color:#EE1B25;stop-opacity:0.4"/>
					<stop  offset="0.2576" style="stop-color:#F42425;stop-opacity:0.6724"/>
					<stop  offset="0.5674" style="stop-color:#FF3624"/>
					<stop  offset="0.8652" style="stop-color:#EE2E25"/>
					<stop  offset="0.9962" style="stop-color:#EE1B25"/>
				</linearGradient>
				<path fill="url(#SVGID_4_)" d="M50.791,6v67.289c0,3.321-1.179,4.393-4.393,4.393h-8.679c-3.214,0-4.393-1.071-4.393-4.393
					V23.037L22.933,28.93c-3.321,1.929-5.143,1.179-6.643-1.714l-3.75-6.75c-1.5-2.786-0.75-4.179,2.143-5.893l19.394-11.25
					c2.357-1.393,3.536-1.714,6.214-1.714h6.107C49.612,1.607,50.791,2.679,50.791,6z"/>
				<linearGradient id="SVGID_5_" gradientUnits="userSpaceOnUse" x1="137.2693" y1="-34.3972" x2="45.9215" y2="116.5804">
					<stop  offset="0" style="stop-color:#EE1B25;stop-opacity:0.4"/>
					<stop  offset="0.2576" style="stop-color:#F42425;stop-opacity:0.6724"/>
					<stop  offset="0.5674" style="stop-color:#FF3624"/>
					<stop  offset="0.8652" style="stop-color:#EE2E25"/>
					<stop  offset="0.9962" style="stop-color:#EE1B25"/>
				</linearGradient>
				<path fill="url(#SVGID_5_)" d="M92.579,0c18.536,0,29.144,10.393,29.144,26.68v25.715c0,16.501-10.607,26.895-29.144,26.895
					c-18.644,0-29.358-10.394-29.358-26.895V26.68C63.221,10.393,73.936,0,92.579,0z M92.579,15.965
					c-7.607,0-12.001,3.643-12.001,10.5v26.251c0,6.857,4.394,10.607,12.001,10.607c7.393,0,11.786-3.75,11.786-10.607V26.465
					C104.365,19.608,99.972,15.965,92.579,15.965z"/>
				<linearGradient id="SVGID_6_" gradientUnits="userSpaceOnUse" x1="180.2956" y1="-8.3646" x2="88.9477" y2="142.6131">
					<stop  offset="0" style="stop-color:#EE1B25;stop-opacity:0.4"/>
					<stop  offset="0.2576" style="stop-color:#F42425;stop-opacity:0.6724"/>
					<stop  offset="0.5674" style="stop-color:#FF3624"/>
					<stop  offset="0.8652" style="stop-color:#EE2E25"/>
					<stop  offset="0.9962" style="stop-color:#EE1B25"/>
				</linearGradient>
				<path fill="url(#SVGID_6_)" d="M166.729,6v67.289c0,3.321-1.179,4.393-4.393,4.393h-8.68c-3.214,0-4.393-1.071-4.393-4.393
					V23.037L138.87,28.93c-3.321,1.929-5.143,1.179-6.643-1.714l-3.751-6.75c-1.5-2.786-0.75-4.179,2.144-5.893l19.394-11.25
					c2.357-1.393,3.536-1.714,6.215-1.714h6.107C165.55,1.607,166.729,2.679,166.729,6z"/>
			</g>
			<g>
				<path fill="#FFFFFF" d="M49.766,7.496c-0.055-1.142-0.106-2.353-0.668-3.332c-0.554-1.009-1.753-1.328-2.864-1.336
					c-1.14,0.001-2.312,0.076-3.467,0.037c-1.159-0.046-2.318-0.082-3.477-0.225c-0.014-0.002-0.024-0.014-0.022-0.028
					C39.27,2.6,39.28,2.591,39.291,2.59c1.159-0.143,2.318-0.179,3.477-0.225c1.163-0.027,2.309,0.01,3.486,0.063
					c0.59,0.044,1.192,0.137,1.749,0.389c0.558,0.245,1.037,0.688,1.314,1.225c0.541,1.096,0.506,2.304,0.499,3.453
					c0,0.014-0.011,0.025-0.025,0.025C49.778,7.521,49.767,7.509,49.766,7.496z"/>
			</g>
			<g opacity="0.5">
				<path fill="#FFFFFF" d="M49.766,7.496c-0.055-1.142-0.106-2.353-0.668-3.332c-0.554-1.009-1.753-1.328-2.864-1.336
					c-1.14,0.001-2.312,0.076-3.467,0.037c-1.159-0.046-2.318-0.082-3.477-0.225c-0.014-0.002-0.024-0.014-0.022-0.028
					C39.27,2.6,39.28,2.591,39.291,2.59c1.159-0.143,2.318-0.179,3.477-0.225c1.163-0.027,2.309,0.01,3.486,0.063
					c0.59,0.044,1.192,0.137,1.749,0.389c0.558,0.245,1.037,0.688,1.314,1.225c0.541,1.096,0.506,2.304,0.499,3.453
					c0,0.014-0.011,0.025-0.025,0.025C49.778,7.521,49.767,7.509,49.766,7.496z"/>
			</g>
			<g opacity="0.5">
				<path fill="#FFFFFF" d="M165.643,7.496c-0.055-1.142-0.106-2.353-0.668-3.332c-0.554-1.009-1.753-1.328-2.864-1.336
					c-1.14,0.001-2.312,0.076-3.467,0.037c-1.159-0.046-2.318-0.082-3.477-0.225c-0.014-0.002-0.024-0.014-0.022-0.028
					c0.001-0.012,0.011-0.021,0.022-0.022c1.159-0.143,2.318-0.179,3.477-0.225c1.163-0.027,2.309,0.01,3.486,0.063
					c0.59,0.044,1.192,0.137,1.749,0.389c0.558,0.245,1.037,0.688,1.314,1.225c0.541,1.096,0.506,2.304,0.499,3.453
					c0,0.014-0.011,0.025-0.025,0.025C165.654,7.521,165.643,7.509,165.643,7.496z"/>
			</g>
			<g>
				<path fill="#FFFFFF" d="M165.643,7.496c-0.055-1.142-0.106-2.353-0.668-3.332c-0.554-1.009-1.753-1.328-2.864-1.336
					c-1.14,0.001-2.312,0.076-3.467,0.037c-1.159-0.046-2.318-0.082-3.477-0.225c-0.014-0.002-0.024-0.014-0.022-0.028
					c0.001-0.012,0.011-0.021,0.022-0.022c1.159-0.143,2.318-0.179,3.477-0.225c1.163-0.027,2.309,0.01,3.486,0.063
					c0.59,0.044,1.192,0.137,1.749,0.389c0.558,0.245,1.037,0.688,1.314,1.225c0.541,1.096,0.506,2.304,0.499,3.453
					c0,0.014-0.011,0.025-0.025,0.025C165.654,7.521,165.643,7.509,165.643,7.496z"/>
			</g>
			<g opacity="0.59">
				<path fill="#FFFFFF" d="M91.114,0.975c4.173,0.005,8.4,0.37,12.408,1.648c4.008,1.223,7.765,3.47,10.534,6.672
					c2.818,3.174,4.503,7.201,5.396,11.3c0.842,4.13,0.99,8.351,0.831,12.526c0,0.014-0.012,0.025-0.026,0.024
					c-0.013,0-0.024-0.011-0.024-0.024c-0.135-4.174-0.285-8.372-1.269-12.419c-0.898-4.037-2.513-7.983-5.211-11.147
					c-2.678-3.172-6.347-5.435-10.308-6.695c-3.954-1.332-8.163-1.765-12.331-1.836c-0.014,0-0.025-0.011-0.025-0.025
					C91.089,0.986,91.1,0.975,91.114,0.975z"/>
			</g>
			<g opacity="0.59">
				<path fill="#FFFFFF" d="M91.114,0.975c4.173,0.005,8.4,0.37,12.408,1.648c4.008,1.223,7.765,3.47,10.534,6.672
					c2.818,3.174,4.503,7.201,5.396,11.3c0.842,4.13,0.99,8.351,0.831,12.526c0,0.014-0.012,0.025-0.026,0.024
					c-0.013,0-0.024-0.011-0.024-0.024c-0.135-4.174-0.285-8.372-1.269-12.419c-0.898-4.037-2.513-7.983-5.211-11.147
					c-2.678-3.172-6.347-5.435-10.308-6.695c-3.954-1.332-8.163-1.765-12.331-1.836c-0.014,0-0.025-0.011-0.025-0.025
					C91.089,0.986,91.1,0.975,91.114,0.975z"/>
			</g>
		</g>
	</g>
	<g display="inline">
		<path fill="#EE1B25" d="M157.05-10.77L157.05-10.77c0.282-0.449,0.874-0.585,1.323-0.303l5.469,3.431
			c0.449,0.282,0.585,0.874,0.303,1.323v0c-0.282,0.449-0.874,0.585-1.323,0.303l-5.469-3.431
			C156.904-9.729,156.768-10.321,157.05-10.77z"/>
		<path fill="#EE1B25" d="M162.823-12.092L162.823-12.092c0.449,0.282,0.585,0.874,0.303,1.323L159.695-5.3
			c-0.282,0.449-0.874,0.585-1.323,0.303v0c-0.449-0.282-0.585-0.874-0.303-1.323l3.431-5.469
			C161.782-12.238,162.374-12.374,162.823-12.092z"/>
	</g>
	<g display="inline">
		<path fill="#EE1B25" d="M169.645,10.857L169.645,10.857c0.169-0.27,0.525-0.351,0.795-0.182l3.286,2.061
			c0.27,0.169,0.351,0.525,0.182,0.795v0c-0.169,0.27-0.525,0.351-0.795,0.182l-3.286-2.061
			C169.557,11.483,169.475,11.127,169.645,10.857z"/>
		<path fill="#EE1B25" d="M173.113,10.063L173.113,10.063c0.27,0.169,0.351,0.525,0.182,0.795l-2.061,3.286
			c-0.169,0.27-0.525,0.351-0.795,0.182v0c-0.27-0.169-0.351-0.525-0.182-0.795l2.061-3.286
			C172.488,9.975,172.843,9.894,173.113,10.063z"/>
	</g>
	<g display="inline">
		<path fill="#EE1B25" d="M171.117-11.383L171.117-11.383c0.457-0.729,1.419-0.949,2.147-0.492l8.877,5.569
			c0.729,0.457,0.949,1.419,0.492,2.147v0c-0.457,0.729-1.419,0.949-2.147,0.492l-8.877-5.569
			C170.88-9.692,170.66-10.654,171.117-11.383z"/>
		<path fill="#EE1B25" d="M180.488-13.528L180.488-13.528c0.729,0.457,0.949,1.419,0.492,2.147l-5.569,8.877
			c-0.457,0.729-1.419,0.949-2.147,0.492v0c-0.729-0.457-0.949-1.419-0.492-2.147l5.569-8.877
			C178.798-13.765,179.759-13.985,180.488-13.528z"/>
	</g>
	<g display="inline">
		<path fill="#EE1B25" d="M170.537,1.576L170.537,1.576c0.062-0.098,0.192-0.128,0.29-0.066l1.199,0.752
			c0.098,0.062,0.128,0.192,0.066,0.29v0c-0.062,0.098-0.192,0.128-0.29,0.066l-1.199-0.752
			C170.505,1.804,170.476,1.674,170.537,1.576z"/>
		<path fill="#EE1B25" d="M171.803,1.286L171.803,1.286c0.098,0.062,0.128,0.192,0.066,0.29l-0.752,1.199
			c-0.062,0.098-0.192,0.128-0.29,0.066v0c-0.098-0.062-0.128-0.192-0.066-0.29l0.752-1.199
			C171.575,1.254,171.704,1.224,171.803,1.286z"/>
	</g>
</g>
<g display="none">
	<g display="inline">
		<g>
			<linearGradient id="SVGID_7_" gradientUnits="userSpaceOnUse" x1="3.8263" y1="-43.6945" x2="-24.7199" y2="94.2788">
				<stop  offset="0" style="stop-color:#EE1B25;stop-opacity:0.4"/>
				<stop  offset="0.2576" style="stop-color:#F42425;stop-opacity:0.6724"/>
				<stop  offset="0.5674" style="stop-color:#FF3624"/>
				<stop  offset="0.8652" style="stop-color:#EE2E25"/>
				<stop  offset="0.9962" style="stop-color:#EE1B25"/>
			</linearGradient>
			<path fill="url(#SVGID_7_)" d="M-14.242,49.931c-19.715,0-28.823-8.357-28.823-24.858C-43.065,9.429-31.814,0-13.171,0
				c19.5,0,29.894,10.715,29.894,28.501v22.287c0,17.786-10.5,28.501-29.894,28.501c-15.322,0-24.43-6-28.715-17.144
				c-1.179-3-0.321-4.394,2.679-5.572l7.822-2.893c3-1.179,4.179-0.321,5.572,2.786c1.801,4.303,5.378,6.55,11.255,6.828
				c7.604,0.36,13.925-5.832,13.925-13.445v0c0-0.618-0.556-1.081-1.162-0.964C-4.642,49.44-8.623,49.931-14.242,49.931z
				 M-13.171,15.75c-8.464,0-12.536,3.214-12.536,9.215c0,6.107,3.322,9.214,12.536,9.214c6.154,0,9.966-0.836,11.879-1.475
				c0.397-0.133,0.658-0.509,0.658-0.928l0-4.133C-0.634,19.822-4.813,15.75-13.171,15.75z"/>
			<linearGradient id="SVGID_8_" gradientUnits="userSpaceOnUse" x1="73.1973" y1="-28.6828" x2="44.9212" y2="107.9853">
				<stop  offset="0" style="stop-color:#EE1B25;stop-opacity:0.4"/>
				<stop  offset="0.2576" style="stop-color:#F42425;stop-opacity:0.6724"/>
				<stop  offset="0.5674" style="stop-color:#FF3624"/>
				<stop  offset="0.8652" style="stop-color:#EE2E25"/>
				<stop  offset="0.9962" style="stop-color:#EE1B25"/>
			</linearGradient>
			<path fill="url(#SVGID_8_)" d="M88.407,51.323v6c0,3.215-1.071,4.394-4.394,4.394h-4.694c-0.721,0-1.306,0.585-1.306,1.306v8.96
				c0,3.147-2.551,5.699-5.699,5.699h-4.889c-3.147,0-5.699-2.551-5.699-5.699v-8.96c0-0.721-0.585-1.306-1.306-1.306H28.083
				c-3.321,0-4.393-1.179-4.393-4.394v-5.356c0-3.001,0.214-3.857,1.821-5.68L59.37,4.714c2.036-2.464,3.215-3.107,6.321-3.107
				h6.624c3.147,0,5.699,2.551,5.699,5.699v38.319c0,0.721,0.585,1.306,1.306,1.306h4.694
				C87.336,46.931,88.407,48.109,88.407,51.323z M45.95,46.931h14.471c0.721,0,1.306-0.585,1.306-1.306v-17.65
				c0-1.227-1.538-1.777-2.316-0.828L44.94,44.797C44.241,45.649,44.847,46.931,45.95,46.931z"/>
			<linearGradient id="SVGID_9_" gradientUnits="userSpaceOnUse" x1="136.1709" y1="-16.3129" x2="107.6247" y2="121.6604">
				<stop  offset="0" style="stop-color:#EE1B25;stop-opacity:0.4"/>
				<stop  offset="0.2576" style="stop-color:#F42425;stop-opacity:0.6724"/>
				<stop  offset="0.5674" style="stop-color:#FF3624"/>
				<stop  offset="0.8652" style="stop-color:#EE2E25"/>
				<stop  offset="0.9962" style="stop-color:#EE1B25"/>
			</linearGradient>
			<path fill="url(#SVGID_9_)" d="M123.768,49.931c-19.715,0-28.822-8.357-28.822-24.858C94.946,9.429,106.196,0,124.84,0
				c19.5,0,29.893,10.715,29.893,28.501v22.287c0,17.786-10.5,28.501-29.893,28.501c-15.322,0-24.43-6-28.717-17.144
				c-1.178-3-0.32-4.394,2.68-5.572l7.82-2.893c3.002-1.179,4.18-0.321,5.572,2.786c1.802,4.303,5.377,6.549,11.253,6.828
				c7.605,0.36,13.927-5.831,13.927-13.445v0c0-0.617-0.555-1.081-1.161-0.963C133.369,49.44,129.387,49.931,123.768,49.931z
				 M124.84,15.75c-8.465,0-12.537,3.214-12.537,9.215c0,6.107,3.322,9.214,12.537,9.214c6.153,0,9.965-0.837,11.877-1.475
				c0.397-0.133,0.658-0.509,0.658-0.927l0-4.133C137.375,19.822,133.197,15.75,124.84,15.75z"/>
			<linearGradient id="SVGID_10_" gradientUnits="userSpaceOnUse" x1="201.6109" y1="-2.7736" x2="173.0647" y2="135.1997">
				<stop  offset="0" style="stop-color:#EE1B25;stop-opacity:0.4"/>
				<stop  offset="0.2576" style="stop-color:#F42425;stop-opacity:0.6724"/>
				<stop  offset="0.5674" style="stop-color:#FF3624"/>
				<stop  offset="0.8652" style="stop-color:#EE2E25"/>
				<stop  offset="0.9962" style="stop-color:#EE1B25"/>
			</linearGradient>
			<path fill="url(#SVGID_10_)" d="M212.477,37.326c-0.332,0.235-0.308,0.72,0.046,0.921c6.725,3.815,9.609,10.244,9.609,17.47
				c0,14.144-9.215,23.572-28.393,23.572c-16.502,0-25.824-6.429-30.109-18.001c-1.072-3-0.322-4.5,2.68-5.571l8.035-2.894
				c3-1.071,4.285-0.429,5.572,2.786c2.035,5.25,5.035,7.929,13.285,7.929c7.395,0,10.715-3.107,10.715-8.357
				c0-5.786-3-8.357-9-8.357h-8.465c-3.322,0-4.393-1.071-4.393-4.286v-6.099c0-2.727,2.211-4.937,4.937-4.937l6.521,0
				c5.32,0,9.565-4.824,8.471-10.03c-0.81-3.858-3.925-5.721-9.215-5.721c-7.822,0-10.287,2.679-12.322,7.929
				c-1.285,3.214-2.465,3.643-5.572,2.786l-8.035-2.893c-3-1.071-3.75-2.571-2.68-5.572c4.287-11.572,13.072-18,29.574-18
				c16.607,0,26.035,8.464,26.035,21.965C219.774,28.602,217.342,33.877,212.477,37.326z"/>
		</g>
		<g opacity="0.5">
			<path fill="#FFFFFF" d="M-14.171,0.975l2.936,0.103l1.469,0.052c0.487,0.049,0.972,0.124,1.458,0.185
				c0.969,0.14,1.95,0.228,2.912,0.412l2.863,0.691c3.762,1.106,7.36,2.933,10.265,5.619c2.927,2.655,5.087,6.113,6.381,9.84
				c1.208,3.758,1.751,7.708,1.636,11.625c0,0.014-0.012,0.025-0.026,0.024c-0.013,0-0.024-0.011-0.024-0.024
				c-0.179-3.903-0.72-7.805-2.057-11.459c-1.288-3.655-3.366-7.045-6.182-9.713C4.64,5.655,1.114,3.803-2.604,2.658l-2.832-0.735
				C-6.39,1.723-7.363,1.62-8.327,1.463c-0.483-0.069-0.966-0.151-1.45-0.209l-1.464-0.076l-2.93-0.153
				c-0.014,0-0.025-0.01-0.026-0.024C-14.197,0.987-14.184,0.976-14.171,0.975z"/>
		</g>
		<g opacity="0.5">
			<path fill="#FFFFFF" d="M-14.171,0.975l2.936,0.103l1.469,0.052c0.487,0.049,0.972,0.124,1.458,0.185
				c0.969,0.14,1.95,0.228,2.912,0.412l2.863,0.691c3.762,1.106,7.36,2.933,10.265,5.619c2.927,2.655,5.087,6.113,6.381,9.84
				c1.208,3.758,1.751,7.708,1.636,11.625c0,0.014-0.012,0.025-0.026,0.024c-0.013,0-0.024-0.011-0.024-0.024
				c-0.179-3.903-0.72-7.805-2.057-11.459c-1.288-3.655-3.366-7.045-6.182-9.713C4.64,5.655,1.114,3.803-2.604,2.658l-2.832-0.735
				C-6.39,1.723-7.363,1.62-8.327,1.463c-0.483-0.069-0.966-0.151-1.45-0.209l-1.464-0.076l-2.93-0.153
				c-0.014,0-0.025-0.01-0.026-0.024C-14.197,0.987-14.184,0.976-14.171,0.975z"/>
		</g>
		<g opacity="0.5">
			<path fill="#FFFFFF" d="M123.829,0.975l2.936,0.103l1.469,0.052c0.487,0.049,0.972,0.124,1.458,0.185
				c0.969,0.14,1.95,0.228,2.912,0.412l2.863,0.691c3.762,1.106,7.36,2.933,10.265,5.619c2.927,2.655,5.087,6.113,6.381,9.84
				c1.208,3.758,1.751,7.708,1.636,11.625c0,0.014-0.012,0.025-0.026,0.024c-0.013,0-0.024-0.011-0.024-0.024
				c-0.179-3.903-0.72-7.805-2.057-11.459c-1.288-3.655-3.366-7.045-6.182-9.713c-2.819-2.674-6.345-4.526-10.063-5.671
				l-2.832-0.735c-0.954-0.199-1.927-0.303-2.891-0.459c-0.483-0.069-0.966-0.151-1.45-0.209l-1.464-0.076l-2.93-0.153
				c-0.014,0-0.025-0.01-0.026-0.024C123.803,0.987,123.816,0.976,123.829,0.975z"/>
		</g>
		<g opacity="0.5">
			<path fill="#FFFFFF" d="M123.829,0.975l2.936,0.103l1.469,0.052c0.487,0.049,0.972,0.124,1.458,0.185
				c0.969,0.14,1.95,0.228,2.912,0.412l2.863,0.691c3.762,1.106,7.36,2.933,10.265,5.619c2.927,2.655,5.087,6.113,6.381,9.84
				c1.208,3.758,1.751,7.708,1.636,11.625c0,0.014-0.012,0.025-0.026,0.024c-0.013,0-0.024-0.011-0.024-0.024
				c-0.179-3.903-0.72-7.805-2.057-11.459c-1.288-3.655-3.366-7.045-6.182-9.713c-2.819-2.674-6.345-4.526-10.063-5.671
				l-2.832-0.735c-0.954-0.199-1.927-0.303-2.891-0.459c-0.483-0.069-0.966-0.151-1.45-0.209l-1.464-0.076l-2.93-0.153
				c-0.014,0-0.025-0.01-0.026-0.024C123.803,0.987,123.816,0.976,123.829,0.975z"/>
		</g>
		<g opacity="0.5">
			<path fill="#FFFFFF" d="M72.621,2.582c0.606-0.013,1.223-0.028,1.833,0.1c0.604,0.123,1.217,0.354,1.709,0.788
				c0.493,0.422,0.858,1.033,0.951,1.668C77.204,5.773,77.18,6.395,77.038,7c-0.003,0.014-0.017,0.022-0.031,0.019
				c-0.01-0.002-0.017-0.01-0.019-0.019c-0.144-0.605-0.197-1.203-0.363-1.755c-0.144-0.551-0.347-1.076-0.738-1.486
				c-0.805-0.814-2.081-1.042-3.267-1.127c-0.014,0-0.025-0.012-0.024-0.026C72.597,2.593,72.608,2.583,72.621,2.582z"/>
		</g>
		<g opacity="0.5">
			<path fill="#FFFFFF" d="M72.621,2.582c0.606-0.013,1.223-0.028,1.833,0.1c0.604,0.123,1.217,0.354,1.709,0.788
				c0.493,0.422,0.858,1.033,0.951,1.668C77.204,5.773,77.18,6.395,77.038,7c-0.003,0.014-0.017,0.022-0.031,0.019
				c-0.01-0.002-0.017-0.01-0.019-0.019c-0.144-0.605-0.197-1.203-0.363-1.755c-0.144-0.551-0.347-1.076-0.738-1.486
				c-0.805-0.814-2.081-1.042-3.267-1.127c-0.014,0-0.025-0.012-0.024-0.026C72.597,2.593,72.608,2.583,72.621,2.582z"/>
		</g>
		<g>
			<path fill="#FFFFFF" d="M192.738,0.975c1.603,0.075,3.216,0.071,4.816,0.211l2.392,0.327c0.398,0.06,0.801,0.096,1.195,0.177
				l1.172,0.297c3.154,0.667,6.17,2.039,8.769,3.964l0.978,0.725l0.875,0.848l0.875,0.85l0.764,0.95l0.746,0.965l0.632,1.044
				c0.452,0.68,0.78,1.424,1.12,2.163c1.291,2.984,1.839,6.257,1.727,9.469c0,0.014-0.012,0.025-0.026,0.024
				c-0.013,0-0.023-0.011-0.024-0.024c-0.174-3.197-0.791-6.386-2.135-9.268c-1.286-2.897-3.266-5.481-5.775-7.429
				c-2.516-1.926-5.468-3.33-8.587-4.039l-1.157-0.319c-0.39-0.089-0.789-0.132-1.183-0.2l-2.374-0.374
				c-1.591-0.173-3.199-0.202-4.801-0.311c-0.014,0.001-0.026-0.01-0.026-0.024C192.712,0.987,192.725,0.976,192.738,0.975z"/>
		</g>
		<g>
			<path fill="#FFFFFF" d="M192.738,0.975c1.603,0.075,3.216,0.071,4.816,0.211l2.392,0.327c0.398,0.06,0.801,0.096,1.195,0.177
				l1.172,0.297c3.154,0.667,6.17,2.039,8.769,3.964l0.978,0.725l0.875,0.848l0.875,0.85l0.764,0.95l0.746,0.965l0.632,1.044
				c0.452,0.68,0.78,1.424,1.12,2.163c1.291,2.984,1.839,6.257,1.727,9.469c0,0.014-0.012,0.025-0.026,0.024
				c-0.013,0-0.023-0.011-0.024-0.024c-0.174-3.197-0.791-6.386-2.135-9.268c-1.286-2.897-3.266-5.481-5.775-7.429
				c-2.516-1.926-5.468-3.33-8.587-4.039l-1.157-0.319c-0.39-0.089-0.789-0.132-1.183-0.2l-2.374-0.374
				c-1.591-0.173-3.199-0.202-4.801-0.311c-0.014,0.001-0.026-0.01-0.026-0.024C192.712,0.987,192.725,0.976,192.738,0.975z"/>
		</g>
	</g>
	<g display="inline">
		<g>
			<path fill="#EE1B25" d="M15.925-6.524L15.925-6.524c0.387-0.617,1.2-0.803,1.817-0.416l7.512,4.713
				c0.617,0.387,0.803,1.2,0.416,1.817l0,0c-0.387,0.617-1.2,0.803-1.817,0.416l-7.512-4.713
				C15.724-5.094,15.538-5.908,15.925-6.524z"/>
			<path fill="#EE1B25" d="M23.855-8.34L23.855-8.34c0.617,0.387,0.803,1.2,0.416,1.817l-4.713,7.512
				c-0.387,0.617-1.2,0.803-1.817,0.416l0,0c-0.617-0.387-0.803-1.2-0.416-1.817l4.713-7.512C22.424-8.541,23.238-8.727,23.855-8.34
				z"/>
		</g>
		<g>
			<path fill="#EE1B25" d="M41.5,4.235l0.229-0.365c0.169-0.27,0.525-0.351,0.795-0.182l4.878,3.06
				c0.27,0.169,0.351,0.525,0.182,0.795l-0.229,0.365c-0.169,0.27-0.525,0.351-0.795,0.182l-4.878-3.06
				C41.412,4.86,41.33,4.504,41.5,4.235z"/>
			<path fill="#EE1B25" d="M46.196,2.847l0.365,0.229c0.27,0.169,0.351,0.525,0.182,0.795l-3.06,4.878
				c-0.169,0.27-0.525,0.351-0.795,0.182l-0.365-0.229c-0.27-0.169-0.351-0.525-0.182-0.795l3.06-4.878
				C45.57,2.759,45.926,2.677,46.196,2.847z"/>
		</g>
		<g>
			<path fill="#EE1B25" d="M34.938-18.243l0.618-0.986c0.457-0.729,1.419-0.949,2.147-0.492l13.179,8.268
				c0.729,0.457,0.949,1.419,0.492,2.147L50.757-8.32c-0.457,0.729-1.419,0.949-2.147,0.492L35.43-16.096
				C34.701-16.553,34.481-17.514,34.938-18.243z"/>
			<path fill="#EE1B25" d="M47.626-21.992l0.986,0.618c0.729,0.457,0.949,1.419,0.492,2.147L40.835-6.048
				c-0.457,0.729-1.419,0.949-2.147,0.492l-0.986-0.618c-0.729-0.457-0.949-1.419-0.492-2.147l8.268-13.179
				C45.935-22.23,46.897-22.45,47.626-21.992z"/>
		</g>
		<g>
			<path fill="#EE1B25" d="M21.528,11.459L21.528,11.459c0.33-0.527,1.025-0.686,1.552-0.355l6.415,4.024
				c0.527,0.33,0.686,1.025,0.355,1.552v0c-0.33,0.527-1.025,0.686-1.552,0.355l-6.415-4.024
				C21.357,12.68,21.198,11.985,21.528,11.459z"/>
			<path fill="#EE1B25" d="M28.299,9.908L28.299,9.908c0.527,0.33,0.686,1.025,0.355,1.552l-4.024,6.415
				c-0.33,0.527-1.025,0.686-1.552,0.355l0,0c-0.527-0.33-0.686-1.025-0.355-1.552l4.024-6.415
				C27.078,9.737,27.773,9.578,28.299,9.908z"/>
		</g>
	</g>
</g>
</svg>
