<svg aria-hidden="true" style="position: absolute; width: 0; height: 0; overflow: hidden;" version="1.1" xmlns="http://www.w3.org/2000/svg" xmlns:xlink="http://www.w3.org/1999/xlink">
<defs>
<symbol id="icon-ambulance-static" viewBox="0 0 32 32">
<title>ambulance-static</title>
<path d="M27.889 25.875h-0.017c-0.345 0-0.625 0.28-0.625 0.625s0.28 0.625 0.625 0.625h0.017c0.345 0 0.625-0.28 0.625-0.625s-0.279-0.625-0.625-0.625z"></path>
<path d="M30.375 25.875h-0.065v-12.708c0-0.345-0.28-0.625-0.625-0.625h-1.875v-1.597c0-0.345-0.28-0.625-0.625-0.625h-8.889c-0.345 0-0.625 0.28-0.625 0.625v1.597h-7.921v-6.042c0-0.345-0.28-0.625-0.625-0.625h-2.22c-0.345 0-0.625 0.28-0.625 0.625s0.28 0.625 0.625 0.625h1.595v18.75h-6.25v-18.75h0.345c0.345 0 0.625-0.28 0.625-0.625s-0.28-0.625-0.625-0.625h-0.97c-0.345 0-0.625 0.28-0.625 0.625v19.375c0 0.041 0.004 0.081 0.012 0.121-0.593 0.242-1.012 0.825-1.012 1.504v1c0 0.345 0.28 0.625 0.625 0.625h30.75c0.345 0 0.625-0.28 0.625-0.625v-1c0-0.896-0.729-1.625-1.625-1.625zM18.921 11.569h7.639v7.639h-7.639v-7.639zM30.75 27.875h-29.5v-0.375c0-0.203 0.172-0.375 0.375-0.375h23.75c0.345 0 0.625-0.28 0.625-0.625s-0.28-0.625-0.625-0.625h-15.625v-12.083h7.921v6.041c0 0.345 0.28 0.625 0.625 0.625h8.889c0.345 0 0.625-0.28 0.625-0.625v-6.041h1.25v12.708c0 0.345 0.28 0.625 0.625 0.625h0.69c0.203 0 0.375 0.172 0.375 0.375v0.375z"></path>
<path d="M7.125 23.653h-3.5c-0.345 0-0.625 0.28-0.625 0.625s0.28 0.625 0.625 0.625h3.5c0.345 0 0.625-0.28 0.625-0.625s-0.28-0.625-0.625-0.625z"></path>
<path d="M7.125 21.431h-3.5c-0.345 0-0.625 0.28-0.625 0.625s0.28 0.625 0.625 0.625h3.5c0.345 0 0.625-0.28 0.625-0.625s-0.28-0.625-0.625-0.625z"></path>
<path d="M7.125 19.208h-3.5c-0.345 0-0.625 0.28-0.625 0.625s0.28 0.625 0.625 0.625h3.5c0.345 0 0.625-0.28 0.625-0.625s-0.28-0.625-0.625-0.625z"></path>
<path d="M7.125 16.986h-3.5c-0.345 0-0.625 0.28-0.625 0.625s0.28 0.625 0.625 0.625h3.5c0.345 0 0.625-0.28 0.625-0.625s-0.28-0.625-0.625-0.625z"></path>
<path d="M7.125 14.764h-3.5c-0.345 0-0.625 0.28-0.625 0.625s0.28 0.625 0.625 0.625h3.5c0.345 0 0.625-0.28 0.625-0.625s-0.28-0.625-0.625-0.625z"></path>
<path d="M7.125 12.542h-3.5c-0.345 0-0.625 0.28-0.625 0.625s0.28 0.625 0.625 0.625h3.5c0.345 0 0.625-0.28 0.625-0.625s-0.28-0.625-0.625-0.625z"></path>
<path d="M7.125 10.319h-3.5c-0.345 0-0.625 0.28-0.625 0.625s0.28 0.625 0.625 0.625h3.5c0.345 0 0.625-0.28 0.625-0.625s-0.28-0.625-0.625-0.625z"></path>
<path d="M3 8.723c0 0.345 0.28 0.625 0.625 0.625h3.5c0.345 0 0.625-0.28 0.625-0.625s-0.28-0.625-0.625-0.625h-3.5c-0.345 0-0.625 0.28-0.625 0.625z"></path>
<path d="M4.391 7.125h0.017c0.345 0 0.625-0.28 0.625-0.625s-0.28-0.625-0.625-0.625h-0.017c-0.345 0-0.625 0.28-0.625 0.625s0.28 0.625 0.625 0.625z"></path>
<path d="M20.843 17.014h0.273v0.274c0 0.896 0.729 1.625 1.625 1.625s1.625-0.729 1.625-1.625v-0.274h0.274c0.896 0 1.625-0.729 1.625-1.625s-0.729-1.625-1.625-1.625h-0.274v-0.274c0-0.896-0.729-1.625-1.625-1.625s-1.625 0.729-1.625 1.625v0.274h-0.273c-0.896 0-1.625 0.729-1.625 1.625s0.729 1.625 1.625 1.625zM20.843 15.014h0.898c0.345 0 0.625-0.28 0.625-0.625v-0.899c0-0.207 0.168-0.375 0.375-0.375s0.375 0.168 0.375 0.375v0.899c0 0.345 0.28 0.625 0.625 0.625h0.899c0.207 0 0.375 0.168 0.375 0.375s-0.168 0.375-0.375 0.375h-0.899c-0.345 0-0.625 0.28-0.625 0.625v0.899c0 0.207-0.168 0.375-0.375 0.375s-0.375-0.168-0.375-0.375v-0.899c0-0.345-0.28-0.625-0.625-0.625h-0.898c-0.207 0-0.375-0.168-0.375-0.375s0.168-0.375 0.375-0.375z"></path>
<path d="M11.125 16.014h5.171c0.345 0 0.625-0.28 0.625-0.625s-0.28-0.625-0.625-0.625h-5.171c-0.345 0-0.625 0.28-0.625 0.625s0.28 0.625 0.625 0.625z"></path>
<path d="M11.125 18.236h5.171c0.345 0 0.625-0.28 0.625-0.625s-0.28-0.625-0.625-0.625h-5.171c-0.345 0-0.625 0.28-0.625 0.625s0.28 0.625 0.625 0.625z"></path>
<path d="M11.125 20.458h5.171c0.345 0 0.625-0.28 0.625-0.625s-0.28-0.625-0.625-0.625h-5.171c-0.345 0-0.625 0.28-0.625 0.625s0.28 0.625 0.625 0.625z"></path>
<path d="M11.125 22.681h16.060c0.345 0 0.625-0.28 0.625-0.625s-0.28-0.625-0.625-0.625h-16.060c-0.345 0-0.625 0.28-0.625 0.625s0.28 0.625 0.625 0.625z"></path>
<path d="M27.81 24.278c0-0.345-0.28-0.625-0.625-0.625h-16.060c-0.345 0-0.625 0.28-0.625 0.625s0.28 0.625 0.625 0.625h16.060c0.346 0 0.625-0.28 0.625-0.625z"></path>
<path d="M23.183 8.058c-0.244-0.244-0.64-0.244-0.884 0s-0.244 0.64 0 0.884c0.244 0.244 0.64 0.244 0.884 0s0.244-0.64 0-0.884z"></path>
<path d="M19.206 5.589c0.16 0 0.32-0.061 0.442-0.183 0.826-0.826 1.925-1.281 3.094-1.281s2.267 0.455 3.094 1.281c0.244 0.244 0.639 0.244 0.884 0s0.244-0.64 0-0.884c-1.063-1.063-2.475-1.647-3.977-1.647s-2.915 0.585-3.977 1.647c-0.244 0.244-0.244 0.64 0 0.884 0.122 0.122 0.282 0.183 0.442 0.183z"></path>
<path d="M24.509 7.357c0.16 0 0.32-0.061 0.442-0.183 0.244-0.244 0.244-0.639 0-0.884-1.219-1.219-3.201-1.219-4.419 0-0.244 0.244-0.244 0.64 0 0.884s0.639 0.244 0.884 0c0.731-0.731 1.921-0.731 2.652 0 0.122 0.122 0.282 0.183 0.442 0.183z"></path>
</symbol>
<symbol id="icon-city-static" viewBox="0 0 32 32">
<title>city-static</title>
<path d="M31 27.25v-11.583c0-0.815-0.523-1.509-1.25-1.768v-3.927c0-0.345-0.28-0.625-0.625-0.625h-0.625v-2.569c0-0.818-0.527-1.516-1.259-1.771 0.006-0.034 0.009-0.069 0.009-0.104v-1.643c0-0.345-0.28-0.625-0.625-0.625s-0.625 0.28-0.625 0.625v1.642c0 0.036 0.004 0.070 0.009 0.104-0.733 0.256-1.259 0.952-1.259 1.771v2.569h-0.625c-0.345 0-0.625 0.28-0.625 0.625v3.927c-0.727 0.258-1.25 0.953-1.25 1.768v0.347h-3.472c-0.286-1.27-1.423-2.222-2.778-2.222s-2.492 0.952-2.778 2.222h-3.472v-8.264c0-0.345-0.28-0.625-0.625-0.625h-2.22c-0.345 0-0.625 0.28-0.625 0.625s0.28 0.625 0.625 0.625h1.595v18.75h-6.25v-18.75h0.345c0.345 0 0.625-0.28 0.625-0.625s-0.28-0.625-0.625-0.625h-0.97c-0.345 0-0.625 0.28-0.625 0.625v19.375c0 0.041 0.004 0.081 0.012 0.121-0.593 0.242-1.012 0.825-1.012 1.504v1c0 0.345 0.28 0.625 0.625 0.625h30.75c0.345 0 0.625-0.28 0.625-0.625v-1c0-0.674-0.413-1.254-1-1.5zM26 6.778c0-0.345 0.28-0.625 0.625-0.625s0.625 0.28 0.625 0.625v2.569h-1.25v-2.569zM28.5 10.597v3.194h-3.75v-3.194h3.75zM9.75 19.486h1.042v1.875c0 0.288-0.234 0.521-0.521 0.521s-0.521-0.234-0.521-0.521v-1.875zM12.042 19.486h1.041v1.875c0 0.288-0.234 0.521-0.521 0.521s-0.521-0.234-0.521-0.521v-1.875zM14.333 19.486h1.042v1.875c0 0.288-0.234 0.521-0.521 0.521s-0.521-0.234-0.521-0.521v-1.875zM22.25 21.361c0 0.288-0.234 0.521-0.521 0.521s-0.521-0.234-0.521-0.521v-1.875h1.042v1.875zM19.958 21.361c0 0.288-0.234 0.521-0.521 0.521s-0.521-0.234-0.521-0.521v-1.875h1.041v1.875zM17.667 21.361c0 0.288-0.234 0.521-0.521 0.521s-0.521-0.234-0.521-0.521v-1.875h1.042v1.875zM16.625 23.054c0.165 0.051 0.339 0.079 0.521 0.079 0.437 0 0.837-0.159 1.146-0.422 0.309 0.263 0.709 0.422 1.146 0.422s0.837-0.159 1.146-0.422c0.309 0.262 0.709 0.422 1.146 0.422 0.181 0 0.356-0.027 0.521-0.078v4.071h-5.625v-4.071zM13.778 17.264c0.345 0 0.625-0.28 0.625-0.625 0-0.881 0.716-1.597 1.597-1.597s1.597 0.716 1.597 1.597c0 0.345 0.28 0.625 0.625 0.625h4.028v0.972h-12.5v-0.972h4.028zM9.75 23.054c0.165 0.051 0.339 0.078 0.521 0.078 0.436 0 0.837-0.159 1.146-0.422 0.309 0.263 0.709 0.422 1.146 0.422s0.837-0.159 1.146-0.422c0.309 0.263 0.709 0.422 1.146 0.422 0.181 0 0.356-0.028 0.521-0.079v4.072h-5.625v-4.071zM30.75 29.125h-29.5v-0.375c0-0.203 0.172-0.375 0.375-0.375h23.75c0.345 0 0.625-0.28 0.625-0.625s-0.28-0.625-0.625-0.625h-1.875v-11.458c0-0.345 0.28-0.625 0.625-0.625h5c0.345 0 0.625 0.28 0.625 0.625v11.458h-0.065c-0.345 0-0.625 0.28-0.625 0.625s0.28 0.625 0.625 0.625h0.69c0.203 0 0.375 0.172 0.375 0.375v0.375z"></path>
<path d="M27.889 27.125h-0.017c-0.345 0-0.625 0.28-0.625 0.625s0.28 0.625 0.625 0.625h0.017c0.345 0 0.625-0.28 0.625-0.625s-0.279-0.625-0.625-0.625z"></path>
<path d="M7.125 24.902h-3.5c-0.345 0-0.625 0.28-0.625 0.625s0.28 0.625 0.625 0.625h3.5c0.345 0 0.625-0.28 0.625-0.625s-0.28-0.625-0.625-0.625z"></path>
<path d="M7.125 22.681h-3.5c-0.345 0-0.625 0.28-0.625 0.625s0.28 0.625 0.625 0.625h3.5c0.345 0 0.625-0.28 0.625-0.625s-0.28-0.625-0.625-0.625z"></path>
<path d="M7.125 20.458h-3.5c-0.345 0-0.625 0.28-0.625 0.625s0.28 0.625 0.625 0.625h3.5c0.345 0 0.625-0.28 0.625-0.625s-0.28-0.625-0.625-0.625z"></path>
<path d="M7.125 18.236h-3.5c-0.345 0-0.625 0.28-0.625 0.625s0.28 0.625 0.625 0.625h3.5c0.345 0 0.625-0.28 0.625-0.625s-0.28-0.625-0.625-0.625z"></path>
<path d="M7.125 16.014h-3.5c-0.345 0-0.625 0.28-0.625 0.625s0.28 0.625 0.625 0.625h3.5c0.345 0 0.625-0.28 0.625-0.625s-0.28-0.625-0.625-0.625z"></path>
<path d="M7.125 13.792h-3.5c-0.345 0-0.625 0.28-0.625 0.625s0.28 0.625 0.625 0.625h3.5c0.345 0 0.625-0.28 0.625-0.625s-0.28-0.625-0.625-0.625z"></path>
<path d="M7.125 11.569h-3.5c-0.345 0-0.625 0.28-0.625 0.625s0.28 0.625 0.625 0.625h3.5c0.345 0 0.625-0.28 0.625-0.625s-0.28-0.625-0.625-0.625z"></path>
<path d="M3 9.972c0 0.345 0.28 0.625 0.625 0.625h3.5c0.345 0 0.625-0.28 0.625-0.625s-0.28-0.625-0.625-0.625h-3.5c-0.345 0-0.625 0.28-0.625 0.625z"></path>
<path d="M16.442 16.197c-0.244-0.244-0.639-0.244-0.884 0s-0.244 0.64 0 0.884 0.639 0.244 0.884 0c0.244-0.244 0.244-0.64 0-0.884z"></path>
<path d="M28.375 24.902h-3.5c-0.345 0-0.625 0.28-0.625 0.625s0.28 0.625 0.625 0.625h3.5c0.345 0 0.625-0.28 0.625-0.625s-0.28-0.625-0.625-0.625z"></path>
<path d="M28.375 22.681h-3.5c-0.345 0-0.625 0.28-0.625 0.625s0.28 0.625 0.625 0.625h3.5c0.345 0 0.625-0.28 0.625-0.625s-0.28-0.625-0.625-0.625z"></path>
<path d="M28.375 20.458h-3.5c-0.345 0-0.625 0.28-0.625 0.625s0.28 0.625 0.625 0.625h3.5c0.345 0 0.625-0.28 0.625-0.625s-0.28-0.625-0.625-0.625z"></path>
<path d="M28.375 18.236h-3.5c-0.345 0-0.625 0.28-0.625 0.625s0.28 0.625 0.625 0.625h3.5c0.345 0 0.625-0.28 0.625-0.625s-0.28-0.625-0.625-0.625z"></path>
<path d="M28.375 16.014h-3.5c-0.345 0-0.625 0.28-0.625 0.625s0.28 0.625 0.625 0.625h3.5c0.345 0 0.625-0.28 0.625-0.625s-0.28-0.625-0.625-0.625z"></path>
<path d="M25.972 12.819h1.306c0.345 0 0.625-0.28 0.625-0.625s-0.28-0.625-0.625-0.625h-1.306c-0.345 0-0.625 0.28-0.625 0.625s0.28 0.625 0.625 0.625z"></path>
<path d="M4.391 8.375h0.017c0.345 0 0.625-0.28 0.625-0.625s-0.28-0.625-0.625-0.625h-0.017c-0.345 0-0.625 0.28-0.625 0.625s0.28 0.625 0.625 0.625z"></path>
<path d="M13.752 11.227c1.037 0.961 2.298 1.556 2.873 1.556s1.836-0.595 2.872-1.556c0.996-0.924 2.183-2.536 2.183-4.976v-2.223c0-0.345-0.28-0.625-0.625-0.625-0.709 0-1.687-0.574-1.885-1.315-0.073-0.273-0.321-0.463-0.604-0.463h-3.883c-0.283 0-0.531 0.19-0.604 0.463-0.199 0.741-1.176 1.315-1.886 1.315-0.345 0-0.625 0.28-0.625 0.625v2.223c-0.001 2.439 1.187 4.053 2.183 4.976zM12.819 4.579c0.906-0.206 1.849-0.829 2.291-1.704h3.030c0.441 0.875 1.385 1.499 2.29 1.704v1.672c0 1.948-0.934 3.249-1.718 3.997-0.924 0.882-1.863 1.244-2.088 1.283-0.226-0.038-1.164-0.401-2.088-1.283-0.784-0.748-1.717-2.049-1.717-3.998v-1.672z"></path>
<path d="M16.348 10.631c0.087 0.043 0.182 0.065 0.277 0.065s0.19-0.022 0.277-0.065c0.538-0.266 1.131-0.749 1.454-1.084 0.879-0.914 1.324-2.022 1.324-3.294v-0.703c0-0.239-0.136-0.457-0.351-0.562-0.564-0.274-1.061-0.666-1.439-1.131-0.119-0.146-0.297-0.231-0.485-0.231h-1.561c-0.188 0-0.366 0.085-0.485 0.231-0.378 0.466-0.876 0.856-1.439 1.131-0.215 0.105-0.351 0.322-0.351 0.562v0.703c0 1.272 0.446 2.381 1.324 3.294 0.322 0.336 0.915 0.818 1.454 1.084zM14.819 5.924c0.492-0.284 0.937-0.64 1.311-1.049h0.989c0.374 0.409 0.819 0.764 1.311 1.049v0.328c0 0.951-0.319 1.746-0.975 2.428-0.195 0.203-0.523 0.473-0.831 0.671-0.308-0.198-0.636-0.469-0.83-0.671-0.656-0.683-0.976-1.476-0.976-2.428v-0.328z"></path>
</symbol>
<symbol id="icon-Diplom" viewBox="0 0 32 32">
<title>Diplom</title>
<path d="M29.188 3.75h-0.938v-0.938c0-1.551-1.262-2.813-2.813-2.813h-19.813c-1.551 0-2.813 1.262-2.813 2.813v0.938c-1.551 0-2.813 1.262-2.813 2.813s1.262 2.813 2.813 2.813v3.875c-1.551 0-2.813 1.262-2.813 2.813s1.262 2.813 2.813 2.813v3.75c-1.551 0-2.813 1.262-2.813 2.813s1.262 2.813 2.813 2.813v0.938c0 1.551 1.262 2.813 2.813 2.813h19.813c1.551 0 2.813-1.262 2.813-2.813v-0.938h0.938c1.551 0 2.813-1.262 2.813-2.813v-18.875c0-1.551-1.262-2.813-2.813-2.813zM1.875 6.563c0-0.517 0.421-0.938 0.938-0.938h3.75c0.517 0 0.938 0.421 0.938 0.938s-0.421 0.938-0.938 0.938h-3.75c-0.517 0-0.938-0.421-0.938-0.938zM1.875 16.063c0-0.517 0.421-0.938 0.938-0.938h3.75c0.517 0 0.938 0.421 0.938 0.938s-0.421 0.938-0.938 0.938c-0.301 0-2.769 0-3.75 0-0.517 0-0.938-0.421-0.938-0.938zM2.813 26.375c-0.517 0-0.938-0.421-0.938-0.938s0.421-0.938 0.938-0.938h3.75c0.517 0 0.938 0.421 0.938 0.938s-0.421 0.938-0.938 0.938h-3.75zM26.375 29.188c0 0.517-0.421 0.938-0.938 0.938h-19.813c-0.517 0-0.938-0.421-0.938-0.938v-0.938h1.875c1.551 0 2.813-1.262 2.813-2.813s-1.262-2.813-2.813-2.813h-1.875v-3.75h1.875c1.551 0 2.813-1.262 2.813-2.813s-1.262-2.813-2.813-2.813h-1.875v-3.875h1.875c1.551 0 2.813-1.262 2.813-2.813s-1.262-2.813-2.813-2.813h-1.875v-0.938c0-0.517 0.421-0.938 0.938-0.938h19.813c0.517 0 0.938 0.421 0.938 0.938v26.375zM30.125 25.438c0 0.517-0.421 0.938-0.938 0.938h-0.938v-3.75h1.875v2.813zM30.125 20.75h-1.875v-3.875h1.875v3.875zM30.125 15h-1.875v-3.75h1.875v3.75zM30.125 9.375h-1.875v-3.75h0.938c0.517 0 0.938 0.421 0.938 0.938v2.813z"></path>
</symbol>
<symbol id="icon-energy-static" viewBox="0 0 32 32">
<title>energy-static</title>
<path d="M27.889 27.125h-0.017c-0.345 0-0.625 0.28-0.625 0.625s0.28 0.625 0.625 0.625h0.017c0.345 0 0.625-0.28 0.625-0.625s-0.279-0.625-0.625-0.625z"></path>
<path d="M31 27.25v-11.583c0-0.815-0.523-1.509-1.25-1.768v-3.927c0-0.345-0.28-0.625-0.625-0.625h-0.625v-2.569c0-0.818-0.527-1.516-1.259-1.771 0.006-0.034 0.009-0.069 0.009-0.104v-1.643c0-0.345-0.28-0.625-0.625-0.625s-0.625 0.28-0.625 0.625v1.643c0 0.036 0.004 0.070 0.009 0.104-0.733 0.255-1.259 0.952-1.259 1.771v2.569h-0.625c-0.345 0-0.625 0.28-0.625 0.625v3.927c-0.727 0.258-1.25 0.953-1.25 1.768v0.347h-3.472c-0.286-1.271-1.423-2.223-2.778-2.223s-2.492 0.952-2.778 2.223h-3.472v-8.264c0-0.345-0.28-0.625-0.625-0.625h-2.22c-0.345 0-0.625 0.28-0.625 0.625s0.28 0.625 0.625 0.625h1.595v18.75h-6.25v-18.75h0.345c0.345 0 0.625-0.28 0.625-0.625s-0.28-0.625-0.625-0.625h-0.97c-0.345 0-0.625 0.28-0.625 0.625v19.375c0 0.041 0.004 0.081 0.012 0.121-0.593 0.242-1.012 0.826-1.012 1.504v1c0 0.345 0.28 0.625 0.625 0.625h30.75c0.345 0 0.625-0.28 0.625-0.625v-1c0-0.674-0.413-1.254-1-1.5zM26 6.778c0-0.345 0.28-0.625 0.625-0.625s0.625 0.28 0.625 0.625v2.569h-1.25v-2.569zM28.5 10.598v3.194h-3.75v-3.194h3.75zM9.75 19.486h1.042v1.875c0 0.287-0.234 0.521-0.521 0.521s-0.521-0.234-0.521-0.521v-1.875zM12.042 19.486h1.042v1.875c0 0.287-0.234 0.521-0.521 0.521s-0.521-0.234-0.521-0.521v-1.875zM14.334 19.486h1.041v1.875c0 0.287-0.234 0.521-0.521 0.521s-0.521-0.234-0.521-0.521v-1.875zM22.25 21.361c0 0.287-0.234 0.521-0.521 0.521s-0.521-0.234-0.521-0.521v-1.875h1.042v1.875zM19.958 21.361c0 0.287-0.233 0.521-0.521 0.521s-0.521-0.234-0.521-0.521v-1.875h1.041v1.875zM17.667 21.361c0 0.287-0.234 0.521-0.521 0.521s-0.521-0.234-0.521-0.521v-1.875h1.042v1.875zM16.625 27.125v-4.071c0.165 0.051 0.339 0.079 0.521 0.079 0.436 0 0.837-0.159 1.146-0.422 0.309 0.263 0.709 0.422 1.146 0.422s0.837-0.159 1.146-0.422c0.309 0.263 0.709 0.422 1.146 0.422 0.181 0 0.356-0.027 0.521-0.078v4.071h-5.625zM13.778 17.264c0.345 0 0.625-0.28 0.625-0.625 0-0.881 0.716-1.598 1.597-1.598s1.598 0.716 1.598 1.598c0 0.345 0.28 0.625 0.625 0.625h4.027v0.972h-12.5v-0.972h4.028zM9.75 27.125v-4.071c0.165 0.051 0.339 0.078 0.521 0.078 0.437 0 0.837-0.159 1.146-0.422 0.309 0.263 0.709 0.422 1.146 0.422s0.837-0.159 1.146-0.422c0.309 0.263 0.709 0.422 1.146 0.422 0.181 0 0.356-0.028 0.521-0.079v4.072h-5.625zM30.75 29.125h-29.5v-0.375c0-0.203 0.172-0.375 0.375-0.375h23.75c0.345 0 0.625-0.28 0.625-0.625s-0.28-0.625-0.625-0.625h-1.875v-11.458c0-0.345 0.28-0.625 0.625-0.625h5c0.345 0 0.625 0.28 0.625 0.625v11.458h-0.065c-0.345 0-0.625 0.28-0.625 0.625s0.28 0.625 0.625 0.625h0.69c0.203 0 0.375 0.172 0.375 0.375v0.375z"></path>
<path d="M7.125 24.903h-3.5c-0.345 0-0.625 0.28-0.625 0.625s0.28 0.625 0.625 0.625h3.5c0.345 0 0.625-0.28 0.625-0.625s-0.28-0.625-0.625-0.625z"></path>
<path d="M7.125 22.681h-3.5c-0.345 0-0.625 0.28-0.625 0.625s0.28 0.625 0.625 0.625h3.5c0.345 0 0.625-0.28 0.625-0.625s-0.28-0.625-0.625-0.625z"></path>
<path d="M7.125 20.459h-3.5c-0.345 0-0.625 0.28-0.625 0.625s0.28 0.625 0.625 0.625h3.5c0.345 0 0.625-0.28 0.625-0.625s-0.28-0.625-0.625-0.625z"></path>
<path d="M7.125 18.236h-3.5c-0.345 0-0.625 0.28-0.625 0.625s0.28 0.625 0.625 0.625h3.5c0.345 0 0.625-0.28 0.625-0.625s-0.28-0.625-0.625-0.625z"></path>
<path d="M7.125 16.014h-3.5c-0.345 0-0.625 0.28-0.625 0.625s0.28 0.625 0.625 0.625h3.5c0.345 0 0.625-0.28 0.625-0.625s-0.28-0.625-0.625-0.625z"></path>
<path d="M7.125 13.792h-3.5c-0.345 0-0.625 0.28-0.625 0.625s0.28 0.625 0.625 0.625h3.5c0.345 0 0.625-0.28 0.625-0.625s-0.28-0.625-0.625-0.625z"></path>
<path d="M7.125 11.569h-3.5c-0.345 0-0.625 0.28-0.625 0.625s0.28 0.625 0.625 0.625h3.5c0.345 0 0.625-0.28 0.625-0.625s-0.28-0.625-0.625-0.625z"></path>
<path d="M3 9.973c0 0.345 0.28 0.625 0.625 0.625h3.5c0.345 0 0.625-0.28 0.625-0.625s-0.28-0.625-0.625-0.625h-3.5c-0.345 0-0.625 0.28-0.625 0.625z"></path>
<path d="M16.442 16.197c-0.244-0.244-0.639-0.244-0.884 0s-0.244 0.64 0 0.884 0.639 0.244 0.884 0c0.244-0.244 0.244-0.64 0-0.884z"></path>
<path d="M28.375 24.903h-3.5c-0.345 0-0.625 0.28-0.625 0.625s0.28 0.625 0.625 0.625h3.5c0.345 0 0.625-0.28 0.625-0.625s-0.28-0.625-0.625-0.625z"></path>
<path d="M28.375 22.681h-3.5c-0.345 0-0.625 0.28-0.625 0.625s0.28 0.625 0.625 0.625h3.5c0.345 0 0.625-0.28 0.625-0.625s-0.28-0.625-0.625-0.625z"></path>
<path d="M28.375 20.459h-3.5c-0.345 0-0.625 0.28-0.625 0.625s0.28 0.625 0.625 0.625h3.5c0.345 0 0.625-0.28 0.625-0.625s-0.28-0.625-0.625-0.625z"></path>
<path d="M28.375 18.236h-3.5c-0.345 0-0.625 0.28-0.625 0.625s0.28 0.625 0.625 0.625h3.5c0.345 0 0.625-0.28 0.625-0.625s-0.28-0.625-0.625-0.625z"></path>
<path d="M28.375 16.014h-3.5c-0.345 0-0.625 0.28-0.625 0.625s0.28 0.625 0.625 0.625h3.5c0.345 0 0.625-0.28 0.625-0.625s-0.28-0.625-0.625-0.625z"></path>
<path d="M25.972 12.819h1.306c0.345 0 0.625-0.28 0.625-0.625s-0.28-0.625-0.625-0.625h-1.306c-0.345 0-0.625 0.28-0.625 0.625s0.28 0.625 0.625 0.625z"></path>
<path d="M4.391 8.375h0.017c0.345 0 0.625-0.28 0.625-0.625s-0.28-0.625-0.625-0.625h-0.017c-0.345 0-0.625 0.28-0.625 0.625s0.28 0.625 0.625 0.625z"></path>
<path d="M13.281 8.908h1.401l-0.791 2.846c-0.106 0.336 0.016 0.707 0.304 0.913 0.144 0.103 0.311 0.153 0.476 0.153 0.256 0 0.507-0.119 0.667-0.341l4.040-5.633c0.104-0.141 0.161-0.313 0.161-0.488 0-0.452-0.367-0.819-0.819-0.819h-1.401l0.791-2.846c0.106-0.335-0.016-0.707-0.304-0.914-0.178-0.127-0.395-0.177-0.611-0.143s-0.405 0.153-0.532 0.331l-4.040 5.633c-0.104 0.141-0.161 0.313-0.161 0.488 0.001 0.453 0.368 0.82 0.819 0.82zM16.261 4.671l-0.368 1.324c-0.053 0.188-0.014 0.39 0.104 0.546s0.303 0.247 0.498 0.247h1.384l-2.141 2.986 0.368-1.324c0.052-0.188 0.014-0.39-0.104-0.546s-0.303-0.247-0.498-0.247h-1.384l2.141-2.986z"></path>
</symbol>
<symbol id="icon-energy-system-static" viewBox="0 0 32 32">
<title>energy-system-static</title>
<path d="M16 9.25c-0.622 0-1.241 0.086-1.839 0.256-0.332 0.094-0.525 0.439-0.431 0.771s0.44 0.526 0.772 0.431c0.488-0.138 0.992-0.208 1.499-0.208 0.286 0 0.566 0.022 0.841 0.064-0.067 0.050-0.128 0.111-0.177 0.181l-4.040 5.633c-0.104 0.14-0.161 0.313-0.161 0.488 0 0.452 0.367 0.819 0.819 0.819h1.401l-0.791 2.846c-0.059 0.186-0.047 0.384 0.024 0.559-2.004-0.824-3.417-2.794-3.417-5.089 0-0.964 0.255-1.915 0.737-2.75 0.172-0.299 0.070-0.681-0.229-0.854s-0.681-0.070-0.854 0.229c-0.592 1.024-0.904 2.192-0.904 3.375 0 3.722 3.028 6.75 6.75 6.75s6.75-3.028 6.75-6.75-3.028-6.75-6.75-6.75zM14.12 16.435l2.142-2.986-0.368 1.324c-0.053 0.189-0.014 0.39 0.104 0.546s0.303 0.247 0.498 0.247h1.384l-2.141 2.986 0.368-1.324c0.052-0.189 0.014-0.39-0.104-0.546s-0.303-0.247-0.498-0.247h-1.385zM16 21.5c-0.286 0-0.566-0.022-0.841-0.064 0.068-0.050 0.127-0.111 0.178-0.181l4.040-5.633c0.104-0.141 0.161-0.313 0.161-0.488 0-0.452-0.367-0.819-0.819-0.819h-1.401l0.791-2.846c0.059-0.187 0.047-0.384-0.024-0.559 2.003 0.824 3.416 2.795 3.416 5.090 0 3.032-2.468 5.5-5.5 5.5z"></path>
<path d="M24.75 16.625h5.375c0.345 0 0.625-0.28 0.625-0.625v-3.194c0.727-0.258 1.25-0.953 1.25-1.768 0-1.034-0.841-1.875-1.875-1.875s-1.875 0.841-1.875 1.875c0 0.815 0.523 1.509 1.25 1.768v2.569h-4.75v-5.341h1.625c0.345 0 0.625-0.28 0.625-0.625v-2.853c0.727-0.258 1.25-0.953 1.25-1.768 0-1.034-0.841-1.875-1.875-1.875s-1.875 0.841-1.875 1.875c0 0.815 0.523 1.509 1.25 1.768v2.228h-1.239c-0.415-0.904-1.328-1.534-2.386-1.534h-5.5v-1.279h2.5c0.345 0 0.625-0.28 0.625-0.625v-1.704c0.727-0.258 1.25-0.953 1.25-1.768 0-1.034-0.841-1.875-1.875-1.875s-1.875 0.841-1.875 1.875c0 0.815 0.523 1.509 1.25 1.768v1.078h-2.5c-0.345 0-0.625 0.28-0.625 0.625v1.904h-2.612v-3.982c0-0.345-0.28-0.625-0.625-0.625h-1.416c-0.258-0.728-0.953-1.25-1.768-1.25-1.034 0-1.875 0.841-1.875 1.875s0.841 1.875 1.875 1.875c0.815 0 1.509-0.522 1.768-1.25h0.791v3.357h-1.638c-1.447 0-2.625 1.178-2.625 2.625v5.345h-2.563v-5.185c0.728-0.258 1.25-0.953 1.25-1.768 0-1.034-0.841-1.875-1.875-1.875s-1.875 0.841-1.875 1.875c0 0.815 0.522 1.509 1.25 1.768v5.81c0 0.345 0.28 0.625 0.625 0.625h3.188v1.405h-5.375c-0.345 0-0.625 0.28-0.625 0.625v3.194c-0.728 0.258-1.25 0.953-1.25 1.768 0 1.034 0.841 1.875 1.875 1.875s1.875-0.841 1.875-1.875c0-0.815-0.522-1.509-1.25-1.767v-2.569h4.75v1.857h-1c-0.345 0-0.625 0.28-0.625 0.625v4.462c-0.728 0.258-1.25 0.953-1.25 1.768 0 1.034 0.841 1.875 1.875 1.875s1.875-0.841 1.875-1.875c0-0.815-0.522-1.509-1.25-1.767v-3.837h0.375c0.001 0 0.002 0 0.003 0 0.057 1.398 1.211 2.518 2.622 2.518h5.5v1.279h-2.5c-0.345 0-0.625 0.28-0.625 0.625v1.703c-0.727 0.258-1.25 0.953-1.25 1.767 0 1.034 0.841 1.875 1.875 1.875s1.875-0.841 1.875-1.875c0-0.815-0.523-1.509-1.25-1.767v-1.078h2.5c0.345 0 0.625-0.28 0.625-0.625v-1.904h3.269v1.575c0 0.345 0.28 0.625 0.625 0.625s0.625-0.28 0.625-0.625v-1.575h0.981c1.448 0 2.625-1.177 2.625-2.625v-0.763h2.375c0.258 0.727 0.953 1.25 1.767 1.25 1.034 0 1.875-0.841 1.875-1.875s-0.841-1.875-1.875-1.875c-0.815 0-1.509 0.523-1.767 1.25h-2.375v-3.487zM30.125 10.414c0.345 0 0.625 0.28 0.625 0.625s-0.28 0.624-0.624 0.625c0 0 0 0-0.001 0s-0.001 0-0.001 0c-0.344-0.001-0.624-0.281-0.624-0.625s0.28-0.625 0.625-0.625zM26.375 4.164c0.345 0 0.625 0.28 0.625 0.625s-0.28 0.625-0.625 0.625c-0.344 0-0.625-0.281-0.625-0.625s0.281-0.625 0.625-0.625zM19.125 1.25c0.345 0 0.625 0.28 0.625 0.625s-0.28 0.625-0.625 0.625-0.625-0.28-0.625-0.625 0.28-0.625 0.625-0.625zM8.955 3.893c-0.345 0-0.625-0.28-0.625-0.625s0.28-0.625 0.625-0.625c0.344 0 0.625 0.28 0.625 0.625v0 0.001c0 0.344-0.281 0.624-0.625 0.624zM4.063 7.643c0.345 0 0.625 0.281 0.625 0.625s-0.28 0.625-0.625 0.625-0.625-0.28-0.625-0.625c0-0.345 0.28-0.625 0.625-0.625zM1.875 24.086c-0.345 0-0.625-0.28-0.625-0.625s0.28-0.625 0.625-0.625 0.625 0.281 0.625 0.625c0 0.345-0.28 0.625-0.625 0.625zM6.25 28.461c-0.345 0-0.625-0.28-0.625-0.625s0.28-0.625 0.625-0.625c0.344 0 0.625 0.281 0.625 0.625s-0.28 0.625-0.625 0.625zM12.875 30.75c-0.345 0-0.625-0.28-0.625-0.625s0.28-0.625 0.625-0.625 0.625 0.28 0.625 0.625-0.28 0.625-0.625 0.625zM28.892 20.112c0.344 0 0.625 0.281 0.625 0.625s-0.281 0.625-0.625 0.625c-0.345 0-0.625-0.28-0.625-0.625s0.281-0.625 0.625-0.625zM23.5 22.125c0 0.758-0.617 1.375-1.375 1.375h-12.25c-0.758 0-1.375-0.617-1.375-1.375v-12.25c0-0.758 0.617-1.375 1.375-1.375h12.25c0.758 0 1.375 0.617 1.375 1.375v12.25z"></path>
<path d="M27.394 27.662v-1.337c0-0.345-0.28-0.625-0.625-0.625h-1.939c-0.345 0-0.625 0.28-0.625 0.625s0.28 0.625 0.625 0.625h1.314v0.712c-0.727 0.258-1.25 0.953-1.25 1.768 0 1.034 0.841 1.875 1.875 1.875s1.875-0.841 1.875-1.875c0-0.815-0.523-1.51-1.25-1.767zM26.769 30.054c-0.344 0-0.625-0.281-0.625-0.625s0.281-0.625 0.625-0.625c0.345 0 0.625 0.28 0.625 0.625s-0.281 0.625-0.625 0.625z"></path>
<path d="M23.034 25.7h-0.017c-0.345 0-0.625 0.28-0.625 0.625s0.28 0.625 0.625 0.625h0.017c0.345 0 0.625-0.28 0.625-0.625s-0.281-0.625-0.625-0.625z"></path>
<path d="M11.825 12.143c0.152 0 0.305-0.055 0.425-0.166 0.256-0.232 0.274-0.627 0.042-0.883s-0.627-0.274-0.883-0.042c-0.002 0.001-0.008 0.007-0.009 0.009-0.253 0.234-0.268 0.629-0.034 0.883 0.123 0.133 0.291 0.2 0.459 0.2z"></path>
</symbol>
<symbol id="icon-fire-static" viewBox="0 0 32 32">
<title>fire-static</title>
<path d="M31.375 22.872h-0.313v-10.625c0-1.034-0.841-1.875-1.875-1.875h-20.125c-0.345 0-0.625 0.28-0.625 0.625s0.28 0.625 0.625 0.625h11.688v11.25h-10.457c-0.688-0.767-1.684-1.25-2.793-1.25s-2.105 0.483-2.792 1.25h-2.521v-1.25h0.413c0.345 0 0.625-0.28 0.625-0.625s-0.28-0.625-0.625-0.625h-0.413v-8.125c0-0.344 0.28-0.625 0.625-0.625h1.939c0.345 0 0.625-0.28 0.625-0.625s-0.28-0.625-0.625-0.625h-1.939c-1.034 0-1.875 0.841-1.875 1.875v10.625h-0.313c-0.345 0-0.625 0.28-0.625 0.625v0.938c0 0.862 0.701 1.563 1.563 1.563h2.241c0.299 1.771 1.842 3.125 3.697 3.125s3.399-1.354 3.697-3.125h5.178c0.345 0 0.625-0.28 0.625-0.625s-0.28-0.625-0.625-0.625h-5.178c-0.036-0.215-0.091-0.424-0.162-0.625h10.555c-0.071 0.201-0.126 0.41-0.162 0.625h-0.742c-0.345 0-0.625 0.28-0.625 0.625s0.28 0.625 0.625 0.625h0.742c0.298 1.771 1.842 3.125 3.697 3.125s3.399-1.354 3.697-3.125h1.616c0.862 0 1.563-0.701 1.563-1.563v-0.938c0-0.345-0.28-0.625-0.625-0.625zM1.25 24.435v-0.313h2.715c-0.071 0.201-0.126 0.41-0.162 0.625h-2.241c-0.169 0-0.313-0.143-0.313-0.313zM7.5 27.872c-1.378 0-2.5-1.122-2.5-2.5s1.122-2.5 2.5-2.5 2.499 1.121 2.5 2.498v0.003c-0.001 1.378-1.122 2.499-2.5 2.499zM22 11.623h7.188c0.345 0 0.625 0.281 0.625 0.625v10.625h-1.896c-0.687-0.767-1.684-1.25-2.792-1.25s-2.105 0.483-2.793 1.25h-0.332v-11.25zM25.125 27.872c-1.378 0-2.5-1.121-2.5-2.499 0 0 0-0.001 0-0.001s0-0.001 0-0.001c0.001-1.378 1.122-2.499 2.5-2.499s2.499 1.121 2.5 2.499v0.002c-0.001 1.378-1.122 2.499-2.5 2.499zM30.75 24.435c0 0.169-0.143 0.313-0.313 0.313h-1.616c-0.036-0.215-0.091-0.424-0.162-0.625h2.090v0.313z"></path>
<path d="M25.125 23.497c-1.034 0-1.875 0.841-1.875 1.875s0.841 1.874 1.875 1.874 1.874-0.841 1.874-1.874-0.841-1.875-1.874-1.875zM25.125 25.997c-0.344 0-0.625-0.28-0.625-0.624s0.28-0.625 0.625-0.625 0.624 0.28 0.624 0.625c0 0.344-0.28 0.624-0.624 0.624z"></path>
<path d="M7.5 23.497c-1.034 0-1.875 0.841-1.875 1.875s0.841 1.874 1.875 1.874 1.875-0.841 1.875-1.874-0.841-1.875-1.875-1.875zM7.5 25.997c-0.344 0-0.625-0.28-0.625-0.624s0.28-0.625 0.625-0.625 0.625 0.28 0.625 0.625c0 0.344-0.281 0.624-0.625 0.624z"></path>
<path d="M24.188 17.872h3.75c0.345 0 0.625-0.28 0.625-0.625v-3.75c0-0.345-0.28-0.625-0.625-0.625h-3.75c-0.345 0-0.625 0.28-0.625 0.625v3.75c0 0.345 0.28 0.625 0.625 0.625zM24.813 14.123h2.5v2.5h-2.5v-2.5z"></path>
<path d="M19.188 13.498c0-0.345-0.28-0.625-0.625-0.625h-14.188c-0.345 0-0.625 0.28-0.625 0.625v3.75c0 0.345 0.28 0.625 0.625 0.625h14.188c0.345 0 0.625-0.28 0.625-0.625v-3.75zM17.938 16.622h-12.938v-2.5h12.938v2.5z"></path>
<path d="M18.563 20.372h-1.875c-0.345 0-0.625 0.28-0.625 0.625s0.28 0.625 0.625 0.625h1.875c0.345 0 0.625-0.28 0.625-0.625s-0.28-0.625-0.625-0.625z"></path>
<path d="M6.548 11.623h0.017c0.345 0 0.625-0.28 0.625-0.625s-0.28-0.625-0.625-0.625h-0.017c-0.345 0-0.625 0.28-0.625 0.625s0.279 0.625 0.625 0.625z"></path>
<path d="M18.889 24.747h-0.017c-0.345 0-0.625 0.28-0.625 0.625s0.28 0.625 0.625 0.625h0.017c0.345 0 0.625-0.28 0.625-0.625s-0.279-0.625-0.625-0.625z"></path>
</symbol>
<symbol id="icon-green-city-static" viewBox="0 0 32 32">
<title>green-city-static</title>
<path d="M27.889 27.125h-0.017c-0.345 0-0.625 0.28-0.625 0.625s0.28 0.625 0.625 0.625h0.017c0.345 0 0.625-0.28 0.625-0.625s-0.279-0.625-0.625-0.625z"></path>
<path d="M31 27.25v-11.584c0-0.815-0.523-1.509-1.25-1.768v-3.927c0-0.345-0.28-0.625-0.625-0.625h-0.625v-2.569c0-0.818-0.527-1.516-1.259-1.771 0.006-0.034 0.009-0.069 0.009-0.104v-1.643c0-0.345-0.28-0.625-0.625-0.625s-0.625 0.28-0.625 0.625v1.643c0 0.036 0.004 0.070 0.009 0.104-0.733 0.255-1.259 0.952-1.259 1.77v2.569h-0.625c-0.345 0-0.625 0.28-0.625 0.625v3.927c-0.727 0.258-1.25 0.953-1.25 1.768v0.347h-3.472c-0.286-1.27-1.423-2.222-2.778-2.222s-2.492 0.952-2.778 2.222h-3.472v-8.263c0-0.345-0.28-0.625-0.625-0.625h-2.22c-0.345 0-0.625 0.28-0.625 0.625s0.28 0.625 0.625 0.625h1.595v18.75h-6.25v-18.75h0.345c0.345 0 0.625-0.28 0.625-0.625s-0.28-0.625-0.625-0.625h-0.97c-0.345 0-0.625 0.28-0.625 0.625v19.375c0 0.041 0.004 0.081 0.012 0.121-0.593 0.242-1.012 0.825-1.012 1.504v1c0 0.345 0.28 0.625 0.625 0.625h30.75c0.345 0 0.625-0.28 0.625-0.625v-1c0-0.675-0.413-1.254-1-1.5zM26 6.777c0-0.344 0.28-0.625 0.625-0.625s0.625 0.281 0.625 0.625v2.569h-1.25v-2.569zM28.5 10.597v3.194h-3.75v-3.194h3.75zM9.75 19.486h1.042v1.875c0 0.287-0.234 0.521-0.521 0.521s-0.521-0.234-0.521-0.521v-1.875zM12.042 19.486h1.042v1.875c0 0.287-0.234 0.521-0.521 0.521s-0.521-0.234-0.521-0.521v-1.875zM14.334 19.486h1.041v1.875c0 0.287-0.234 0.521-0.521 0.521s-0.521-0.234-0.521-0.521v-1.875zM22.25 21.361c0 0.287-0.234 0.521-0.521 0.521s-0.521-0.234-0.521-0.521v-1.875h1.042v1.875zM19.958 21.361c0 0.287-0.233 0.521-0.521 0.521s-0.521-0.234-0.521-0.521v-1.875h1.041v1.875zM17.667 21.361c0 0.287-0.234 0.521-0.521 0.521s-0.521-0.234-0.521-0.521v-1.875h1.042v1.875zM16.625 23.053c0.165 0.051 0.339 0.079 0.521 0.079 0.436 0 0.837-0.159 1.146-0.422 0.309 0.263 0.709 0.422 1.146 0.422s0.837-0.159 1.146-0.422c0.309 0.263 0.709 0.422 1.146 0.422 0.181 0 0.356-0.027 0.521-0.078v4.071h-5.625v-4.072zM13.778 17.264c0.345 0 0.625-0.28 0.625-0.625 0-0.881 0.716-1.597 1.597-1.597s1.598 0.716 1.598 1.597c0 0.345 0.28 0.625 0.625 0.625h4.027v0.972h-12.5v-0.972h4.028zM9.75 23.054c0.165 0.051 0.339 0.078 0.521 0.078 0.437 0 0.837-0.159 1.146-0.422 0.309 0.263 0.709 0.422 1.146 0.422s0.837-0.159 1.146-0.422c0.309 0.263 0.709 0.422 1.146 0.422 0.181 0 0.356-0.028 0.521-0.079v4.072h-5.625v-4.071zM30.75 29.125h-29.5v-0.375c0-0.203 0.172-0.375 0.375-0.375h23.75c0.345 0 0.625-0.28 0.625-0.625s-0.28-0.625-0.625-0.625h-1.875v-11.459c0-0.344 0.28-0.625 0.625-0.625h5c0.345 0 0.625 0.281 0.625 0.625v11.459h-0.065c-0.345 0-0.625 0.28-0.625 0.625s0.28 0.625 0.625 0.625h0.69c0.203 0 0.375 0.172 0.375 0.375v0.375z"></path>
<path d="M7.125 24.902h-3.5c-0.345 0-0.625 0.28-0.625 0.625s0.28 0.625 0.625 0.625h3.5c0.345 0 0.625-0.28 0.625-0.625s-0.28-0.625-0.625-0.625z"></path>
<path d="M7.125 22.681h-3.5c-0.345 0-0.625 0.28-0.625 0.625s0.28 0.625 0.625 0.625h3.5c0.345 0 0.625-0.28 0.625-0.625s-0.28-0.625-0.625-0.625z"></path>
<path d="M7.125 20.458h-3.5c-0.345 0-0.625 0.28-0.625 0.625s0.28 0.625 0.625 0.625h3.5c0.345 0 0.625-0.28 0.625-0.625s-0.28-0.625-0.625-0.625z"></path>
<path d="M7.125 18.236h-3.5c-0.345 0-0.625 0.28-0.625 0.625s0.28 0.625 0.625 0.625h3.5c0.345 0 0.625-0.28 0.625-0.625s-0.28-0.625-0.625-0.625z"></path>
<path d="M7.125 16.014h-3.5c-0.345 0-0.625 0.28-0.625 0.625s0.28 0.625 0.625 0.625h3.5c0.345 0 0.625-0.28 0.625-0.625s-0.28-0.625-0.625-0.625z"></path>
<path d="M7.125 13.791h-3.5c-0.345 0-0.625 0.28-0.625 0.625s0.28 0.625 0.625 0.625h3.5c0.345 0 0.625-0.28 0.625-0.625s-0.28-0.625-0.625-0.625z"></path>
<path d="M7.125 11.569h-3.5c-0.345 0-0.625 0.28-0.625 0.625s0.28 0.625 0.625 0.625h3.5c0.345 0 0.625-0.28 0.625-0.625s-0.28-0.625-0.625-0.625z"></path>
<path d="M3 9.972c0 0.345 0.28 0.625 0.625 0.625h3.5c0.345 0 0.625-0.28 0.625-0.625s-0.28-0.625-0.625-0.625h-3.5c-0.345 0-0.625 0.28-0.625 0.625z"></path>
<path d="M16.442 16.196c-0.244-0.244-0.639-0.244-0.884 0s-0.244 0.64 0 0.884 0.639 0.244 0.884 0c0.244-0.244 0.244-0.639 0-0.884z"></path>
<path d="M28.375 24.902h-3.5c-0.345 0-0.625 0.28-0.625 0.625s0.28 0.625 0.625 0.625h3.5c0.345 0 0.625-0.28 0.625-0.625s-0.28-0.625-0.625-0.625z"></path>
<path d="M28.375 22.681h-3.5c-0.345 0-0.625 0.28-0.625 0.625s0.28 0.625 0.625 0.625h3.5c0.345 0 0.625-0.28 0.625-0.625s-0.28-0.625-0.625-0.625z"></path>
<path d="M28.375 20.458h-3.5c-0.345 0-0.625 0.28-0.625 0.625s0.28 0.625 0.625 0.625h3.5c0.345 0 0.625-0.28 0.625-0.625s-0.28-0.625-0.625-0.625z"></path>
<path d="M28.375 18.236h-3.5c-0.345 0-0.625 0.28-0.625 0.625s0.28 0.625 0.625 0.625h3.5c0.345 0 0.625-0.28 0.625-0.625s-0.28-0.625-0.625-0.625z"></path>
<path d="M28.375 16.014h-3.5c-0.345 0-0.625 0.28-0.625 0.625s0.28 0.625 0.625 0.625h3.5c0.345 0 0.625-0.28 0.625-0.625s-0.28-0.625-0.625-0.625z"></path>
<path d="M25.972 12.819h1.306c0.345 0 0.625-0.28 0.625-0.625s-0.28-0.625-0.625-0.625h-1.306c-0.345 0-0.625 0.28-0.625 0.625s0.28 0.625 0.625 0.625z"></path>
<path d="M4.391 8.375h0.017c0.345 0 0.625-0.28 0.625-0.625s-0.28-0.625-0.625-0.625h-0.017c-0.345 0-0.625 0.28-0.625 0.625s0.28 0.625 0.625 0.625z"></path>
<path d="M16.759 8.811c0.097 0.056 0.205 0.084 0.313 0.084s0.216-0.028 0.313-0.084c1.264-0.731 2.049-2.092 2.049-3.551s-0.785-2.819-2.049-3.551c-0.194-0.112-0.433-0.112-0.626 0-1.264 0.731-2.049 2.092-2.049 3.551s0.785 2.82 2.049 3.551zM17.071 3.001c0.694 0.536 1.113 1.371 1.113 2.259s-0.419 1.723-1.113 2.259c-0.694-0.536-1.113-1.371-1.113-2.259s0.419-1.723 1.113-2.259z"></path>
<path d="M12.363 10.164c0.475 0.274 1.008 0.411 1.541 0.411 0.441 0 0.881-0.096 1.29-0.283 0.541 0.16 1.037 0.453 1.436 0.852 0.122 0.122 0.282 0.183 0.442 0.183s0.32-0.061 0.442-0.183c0.399-0.399 0.895-0.692 1.436-0.852 0.409 0.188 0.849 0.283 1.29 0.283 0.533 0 1.066-0.137 1.541-0.411 0.949-0.548 1.54-1.571 1.541-2.668 0-0.224-0.119-0.431-0.313-0.543-0.951-0.548-2.132-0.548-3.081 0.001-0.811 0.468-1.358 1.282-1.502 2.193-0.488 0.165-0.946 0.409-1.354 0.724-0.407-0.315-0.865-0.559-1.354-0.724-0.144-0.911-0.691-1.725-1.502-2.193-0.95-0.548-2.131-0.548-3.081 0-0.194 0.112-0.313 0.318-0.313 0.542 0.001 1.097 0.592 2.12 1.541 2.668zM20.552 8.037c0.451-0.261 0.991-0.313 1.477-0.157-0.108 0.5-0.423 0.941-0.874 1.202s-0.991 0.313-1.478 0.157c0.109-0.5 0.424-0.941 0.875-1.202zM13.591 8.037c0.451 0.261 0.766 0.702 0.875 1.202-0.488 0.156-1.027 0.104-1.478-0.157s-0.766-0.702-0.874-1.202c0.487-0.156 1.026-0.103 1.478 0.157z"></path>
</symbol>
<symbol id="icon-instagram" viewBox="0 0 32 32">
<title>instagram</title>
<path d="M22 0h-12c-5.522 0-10 4.478-10 10v12c0 5.522 4.478 10 10 10h12c5.522 0 10-4.478 10-10v-12c0-5.522-4.478-10-10-10zM29 22c0 3.86-3.14 7-7 7h-12c-3.86 0-7-3.14-7-7v-12c0-3.86 3.14-7 7-7h12c3.86 0 7 3.14 7 7v12z"></path>
<path d="M16 8c-4.418 0-8 3.582-8 8s3.582 8 8 8 8-3.582 8-8-3.582-8-8-8zM16 21c-2.756 0-5-2.244-5-5 0-2.758 2.244-5 5-5s5 2.242 5 5c0 2.756-2.244 5-5 5z"></path>
<path d="M25.666 7.4c0 0.589-0.477 1.066-1.066 1.066s-1.066-0.477-1.066-1.066c0-0.589 0.477-1.066 1.066-1.066s1.066 0.477 1.066 1.066z"></path>
</symbol>
<symbol id="icon-license" viewBox="0 0 32 32">
<title>license</title>
<path d="M29.188 3.813h-26.375c-1.551 0-2.813 1.262-2.813 2.813v18.75c0 1.551 1.262 2.813 2.813 2.813h26.375c1.551 0 2.813-1.262 2.813-2.813v-18.75c0-1.551-1.262-2.813-2.813-2.813zM30.125 25.375c0 0.517-0.421 0.938-0.938 0.938h-26.375c-0.517 0-0.938-0.421-0.938-0.938v-18.75c0-0.517 0.421-0.938 0.938-0.938h26.375c0.517 0 0.938 0.421 0.938 0.938v18.75z"></path>
<path d="M9.375 15.063c-3.102 0-5.625 2.523-5.625 5.625v0.938c0 1.551 1.262 2.813 2.813 2.813h5.625c1.551 0 2.813-1.262 2.813-2.813v-0.938c0-3.102-2.523-5.625-5.625-5.625zM13.125 21.625c0 0.517-0.421 0.938-0.938 0.938h-5.625c-0.517 0-0.938-0.421-0.938-0.938v-0.938c0-2.067 1.683-3.75 3.75-3.75s3.75 1.683 3.75 3.75v0.938z"></path>
<path d="M9.375 7.563c-2.067 0-3.75 1.683-3.75 3.75s1.683 3.75 3.75 3.75 3.75-1.683 3.75-3.75-1.683-3.75-3.75-3.75zM9.375 13.188c-1.034 0-1.875-0.841-1.875-1.875s0.841-1.875 1.875-1.875 1.875 0.841 1.875 1.875-0.841 1.875-1.875 1.875z"></path>
<path d="M27.313 20.688h-9.375c-0.517 0-0.938 0.42-0.938 0.938s0.42 0.938 0.938 0.938h9.375c0.517 0 0.938-0.42 0.938-0.938s-0.42-0.938-0.938-0.938z"></path>
<path d="M27.313 16.938h-9.375c-0.517 0-0.938 0.42-0.938 0.938s0.42 0.938 0.938 0.938h9.375c0.517 0 0.938-0.42 0.938-0.938s-0.42-0.938-0.938-0.938z"></path>
<path d="M27.313 13.188h-9.375c-0.517 0-0.938 0.42-0.938 0.938s0.42 0.938 0.938 0.938h9.375c0.517 0 0.938-0.42 0.938-0.938s-0.42-0.938-0.938-0.938z"></path>
<path d="M25.438 9.438h-5.625c-0.517 0-0.938 0.42-0.938 0.938s0.42 0.938 0.938 0.938h5.625c0.517 0 0.938-0.42 0.938-0.938s-0.42-0.938-0.938-0.938z"></path>
</symbol>
<symbol id="icon-logo" viewBox="0 0 32 32">
<title>logo</title>
<path fill="#af4f46" style="fill: var(--color1, #af4f46)" d="M23.884 21.040c2.623-0.206 4.871 2.136 6.067 0.309 0.258-0.394 0.305-0.705 0.304-1.181-0.003-1.136 0.040-0.542 0.329-1.207 0.431-0.992-2.069-2.76-2.799-3.301-1.112-0.824-1.173 0.185-2.404-0.477-0.868-0.467-1.667-0.684-1.664-1.414 0.788-0.488 1.766-0.106 2.544 0.169 0.171-0.929-2.515-2.545-3.283-2.949-0.73-0.384-1.796-0.631-2.338-0.931-0.86-0.476-0.599-1.722-0.714-2.534-1.283-0.079-3.163 0.582-4.382 1.026-3.955 1.439-5.656 1.274-9.625 1.341-2.494 0.042-4.151 0.914-4.859 0.666-0.095-0.896 1.030-0.944 1.795-1.204 0.724-0.245 1.66-0.454 2.452-0.529 5.359-0.506 5.734 0.516 10.592-1.258 1.164-0.425 3.523-1.117 4.912-0.789 0.314 0.786-0.44 1.458 0.238 2.403 0.515 0.42 5.093 0.76 6.15 4.718 0.139 0.522 0.649 0.656 1.116 0.985 2.011 1.419 4.689 2.887 3.247 4.451-0.851 0.923-0.088 1.993-1.364 2.875-0.956 0.661-2.361 0.671-3.505 0.383-1.097-0.276-2.354-0.484-3.44-0.775-0.079-0.64-0.046-0.726 0.634-0.779z"></path>
<path fill="#52ac62" style="fill: var(--color2, #52ac62)" d="M24.925 16.030c-0.982-0.528-2.174-0.909-2.17-2.263l0.002-0.533 0.453-0.281c0.218-0.135 0.438-0.228 0.659-0.289-0.543-0.368-1.087-0.691-1.34-0.825-0.738-0.389-1.625-0.536-2.356-0.94-0.889-0.492-1.121-1.381-1.161-2.326l-0.002-0.037c-1.052 0.16-2.319 0.618-3.141 0.917-1.701 0.619-3.346 1.073-5.151 1.249-1.577 0.154-3.201 0.123-4.786 0.149-1.002 0.017-1.924 0.187-2.895 0.416-0.691 0.163-1.607 0.438-2.298 0.196l-0.574-0.201-0.005-0.046 0.89-0.778c-0.001 0.038 0.001 0.077 0.006 0.118 0.708 0.248 2.365-0.624 4.859-0.666 3.969-0.067 5.669 0.098 9.625-1.341 1.218-0.444 3.098-1.105 4.382-1.026 0.115 0.812-0.146 2.059 0.714 2.534 0.542 0.3 1.609 0.547 2.338 0.931 0.768 0.404 3.454 2.020 3.283 2.949-0.778-0.275-1.755-0.657-2.544-0.169-0.003 0.73 0.796 0.946 1.664 1.414 1.231 0.662 1.292-0.347 2.404 0.477 0.73 0.54 3.231 2.309 2.799 3.301-0.289 0.665-0.333 0.071-0.329 1.207 0.002 0.475-0.046 0.787-0.304 1.181-1.196 1.827-3.444-0.515-6.067-0.309-0.68 0.053-0.712 0.139-0.634 0.779h-0.966c-0.107-1.133 0.337-1.644 1.525-1.737 1.187-0.093 2.246 0.231 3.351 0.609 0.363 0.124 1.344 0.495 1.719 0.375 0.118-0.038 0.203-0.144 0.268-0.243 0.148-0.226 0.148-0.382 0.147-0.652-0.002-0.581-0.050-1.035 0.361-1.496-0.235-0.616-1.968-1.892-2.442-2.243-0.051-0.038-0.197-0.142-0.263-0.155-0.017 0-0.039 0.006-0.056 0.009-0.796 0.151-1.22 0.145-1.969-0.258z"></path>
<path fill="#fff" style="fill: var(--color3, #fff)" d="M28.692 22.15c-0.178 0-0.371-0.022-0.592-0.068l0.041-0.195c0.207 0.043 0.387 0.064 0.551 0.064 0.143 0 0.271-0.016 0.392-0.048l0.051 0.193c-0.138 0.037-0.283 0.055-0.443 0.055zM27.512 21.925c-0.211-0.065-0.425-0.139-0.652-0.217-0.097-0.033-0.197-0.067-0.297-0.101l0.064-0.189c0.101 0.034 0.201 0.068 0.298 0.101 0.226 0.077 0.439 0.15 0.647 0.215l-0.059 0.191zM23.151 21.831c-0.013-0.109-0.021-0.183-0.026-0.246l0.199-0.015c0.004 0.060 0.012 0.131 0.025 0.236l-0.198 0.024zM29.699 21.795l-0.131-0.151c0.107-0.093 0.208-0.211 0.299-0.35 0.098-0.15 0.165-0.287 0.209-0.43l0.191 0.059c-0.050 0.162-0.124 0.315-0.233 0.481-0.101 0.155-0.214 0.287-0.336 0.392zM25.996 21.426c-0.353-0.105-0.666-0.18-0.958-0.228l0.033-0.197c0.3 0.050 0.622 0.126 0.983 0.234l-0.057 0.191zM23.494 21.195l-0.056-0.192c0.098-0.029 0.225-0.047 0.438-0.064 0.112-0.009 0.227-0.013 0.342-0.013 0.081 0 0.163 0.002 0.246 0.007l-0.010 0.199c-0.079-0.004-0.158-0.006-0.235-0.006-0.11 0-0.22 0.004-0.327 0.013-0.196 0.015-0.315 0.032-0.398 0.056zM30.353 20.304l-0.2-0.004c0.001-0.035 0.001-0.071 0.001-0.11 0-0.007 0-0.014-0-0.021-0-0.039-0-0.077-0-0.112 0-0.613 0.018-0.677 0.129-0.794l0.145 0.137c-0.059 0.062-0.074 0.078-0.074 0.657 0 0.035 0 0.072 0 0.111 0 0.007 0 0.015 0 0.022 0 0.041-0 0.078-0.001 0.114zM30.726 18.821l-0.198-0.028c0.004-0.025 0.005-0.052 0.005-0.079-0-0.21-0.109-0.467-0.323-0.764l0.162-0.117c0.239 0.332 0.36 0.628 0.36 0.881 0 0.036-0.002 0.072-0.007 0.107zM29.835 17.5c-0.198-0.211-0.439-0.439-0.719-0.678l0.13-0.152c0.285 0.244 0.532 0.477 0.734 0.693l-0.146 0.137zM28.655 16.443c-0.311-0.247-0.602-0.46-0.794-0.602l0.118-0.161c0.194 0.142 0.486 0.357 0.8 0.606l-0.124 0.157zM27.376 15.524c-0.151-0.073-0.285-0.106-0.423-0.106-0.115 0-0.223 0.023-0.337 0.048-0.049 0.011-0.099 0.022-0.152 0.031l-0.035-0.196c0.049-0.009 0.097-0.019 0.145-0.030 0.119-0.026 0.242-0.053 0.379-0.053 0.169 0 0.331 0.040 0.51 0.126l-0.087 0.18zM25.828 15.475c-0.155-0.041-0.317-0.108-0.495-0.203-0.149-0.080-0.3-0.155-0.429-0.218l0.088-0.179c0.131 0.064 0.284 0.14 0.436 0.222 0.164 0.088 0.312 0.149 0.452 0.186l-0.051 0.193zM24.365 14.779c-0.301-0.169-0.622-0.391-0.719-0.761l0.193-0.051c0.033 0.127 0.102 0.24 0.212 0.347 0.098 0.096 0.228 0.188 0.412 0.291l-0.098 0.174zM26.337 14.072l-0.11-0.039c-0.033-0.012-0.066-0.023-0.099-0.035-0.172-0.061-0.35-0.125-0.533-0.181l0.059-0.191c0.176 0.055 0.346 0.115 0.511 0.173-0.005-0.046-0.017-0.094-0.036-0.146l0.187-0.069c0.034 0.093 0.051 0.183 0.051 0.266 0 0.036-0.003 0.072-0.009 0.106l-0.021 0.115zM24.085 13.709l-0.061-0.19c0.174-0.055 0.366-0.084 0.569-0.084 0.147 0 0.3 0.014 0.466 0.043l-0.034 0.197c-0.155-0.027-0.297-0.040-0.432-0.040-0.183 0-0.354 0.025-0.509 0.074zM25.828 13.18c-0.174-0.204-0.414-0.43-0.713-0.672l0.126-0.155c0.309 0.249 0.557 0.484 0.739 0.698l-0.152 0.129zM24.642 12.148c-0.253-0.183-0.531-0.369-0.825-0.553l0.106-0.169c0.298 0.187 0.579 0.375 0.836 0.56l-0.117 0.162zM23.306 11.287c-0.176-0.102-0.301-0.17-0.376-0.209-0.143-0.075-0.308-0.15-0.506-0.229l0.074-0.185c0.204 0.082 0.376 0.159 0.525 0.238 0.109 0.057 0.241 0.131 0.382 0.213l-0.1 0.173zM1.366 10.701c-0.133 0-0.244-0.016-0.34-0.050l0.066-0.188c0.074 0.026 0.164 0.039 0.274 0.039 0.163 0 0.366-0.027 0.659-0.088l0.041 0.195c-0.306 0.064-0.522 0.092-0.7 0.092zM21.866 10.643c-0.071-0.025-0.142-0.049-0.213-0.074-0.264-0.091-0.514-0.178-0.732-0.267l0.076-0.185c0.212 0.087 0.459 0.173 0.721 0.263 0.070 0.024 0.142 0.049 0.213 0.074l-0.066 0.188zM2.652 10.475l-0.046-0.194 0.022-0.005c0.284-0.068 0.607-0.144 0.955-0.215l0.040 0.196c-0.345 0.070-0.666 0.146-0.949 0.214l-0.022 0.005zM4.208 10.149l-0.032-0.197c0.344-0.056 0.67-0.096 0.998-0.123l0.016 0.199c-0.323 0.026-0.644 0.066-0.983 0.121zM5.784 9.994l-0.006-0.2c0.046-0.001 0.092-0.002 0.138-0.003 0.257-0.004 0.531-0.008 0.861-0.012l0.002 0.2c-0.33 0.004-0.603 0.008-0.86 0.012-0.045 0.001-0.090 0.002-0.136 0.003zM20.373 9.994c-0.241-0.214-0.386-0.512-0.454-0.941l0.197-0.031c0.060 0.38 0.184 0.641 0.389 0.822l-0.132 0.15zM7.378 9.973l-0.002-0.2c0.324-0.004 0.668-0.007 0.997-0.014l0.004 0.2c-0.33 0.006-0.674 0.010-0.998 0.014zM8.975 9.945l-0.006-0.2c0.365-0.011 0.69-0.026 0.993-0.045l0.013 0.199c-0.305 0.020-0.632 0.035-1 0.046zM10.574 9.852l-0.019-0.199c0.34-0.032 0.662-0.072 0.984-0.121l0.030 0.197c-0.326 0.050-0.651 0.090-0.995 0.123zM12.163 9.626l-0.038-0.196c0.32-0.062 0.636-0.132 0.968-0.216l0.049 0.194c-0.335 0.085-0.655 0.156-0.979 0.218zM13.722 9.251l-0.055-0.192c0.303-0.086 0.623-0.185 0.949-0.293l0.063 0.19c-0.329 0.109-0.651 0.208-0.957 0.295zM15.247 8.762l-0.066-0.188c0.107-0.038 0.217-0.077 0.327-0.117 0.176-0.064 0.387-0.14 0.613-0.22l0.066 0.188c-0.226 0.079-0.435 0.155-0.611 0.219-0.111 0.040-0.222 0.080-0.329 0.118zM19.869 8.444c-0.003-0.079-0.004-0.159-0.006-0.236-0.005-0.241-0.010-0.469-0.038-0.669l0.017-0.002 0.004-0.115c0.028 0.001 0.056 0.002 0.084 0.004l0.081 0.005 0.011 0.081c0.030 0.211 0.035 0.445 0.040 0.692 0.002 0.077 0.003 0.156 0.006 0.234l-0.199 0.006zM16.753 8.233l-0.062-0.19c0.347-0.114 0.661-0.209 0.961-0.29l0.052 0.193c-0.296 0.081-0.608 0.174-0.951 0.287zM18.281 7.803l-0.043-0.195c0.363-0.081 0.698-0.137 0.997-0.165l0.019 0.199c-0.29 0.028-0.618 0.082-0.973 0.162z"></path>
<path fill="#fff" style="fill: var(--color3, #fff)" d="M4.582 19.96c0 0.542-0.071 0.932-0.212 1.169-0.14 0.238-0.355 0.385-0.64 0.445-0.287 0.060-0.743 0.091-1.37 0.091h-2.191v-7.288h3.712v1.264h-1.814v1.233h0.293c0.585 0 1.027 0.034 1.327 0.103s0.524 0.221 0.673 0.458c0.149 0.235 0.223 0.605 0.223 1.109v1.417zM2.684 19.739v-1.052c0-0.307-0.031-0.493-0.092-0.559s-0.237-0.103-0.525-0.112v2.394c0.241 0 0.404-0.031 0.488-0.092 0.086-0.061 0.129-0.255 0.129-0.579zM8.524 14.382l1.084 7.283h-1.939l-0.094-1.31h-0.68l-0.112 1.31h-1.961l0.963-7.283h2.739zM7.521 19.065c-0.097-0.825-0.192-1.844-0.289-3.056-0.192 1.393-0.312 2.411-0.359 3.056h0.648zM9.932 14.382h1.907c0.516 0 0.914 0.040 1.19 0.121 0.278 0.081 0.487 0.198 0.625 0.35 0.14 0.154 0.235 0.339 0.284 0.556 0.049 0.218 0.074 0.554 0.074 1.010v0.634c0 0.465-0.048 0.805-0.143 1.017-0.097 0.213-0.273 0.376-0.53 0.491-0.256 0.114-0.591 0.17-1.004 0.17h-0.508v2.933h-1.895v-7.283zM11.827 15.627v1.853c0.054 0.003 0.1 0.005 0.138 0.005 0.175 0 0.295-0.043 0.362-0.127 0.068-0.086 0.101-0.264 0.101-0.533v-0.599c0-0.249-0.038-0.411-0.117-0.485-0.078-0.075-0.24-0.114-0.485-0.114zM18.98 17.557h-1.893v-1.268c0-0.368-0.022-0.599-0.061-0.691-0.040-0.091-0.129-0.137-0.267-0.137-0.157 0-0.255 0.055-0.298 0.166-0.042 0.112-0.063 0.352-0.063 0.72v3.383c0 0.355 0.021 0.585 0.063 0.692 0.043 0.109 0.137 0.163 0.284 0.163 0.141 0 0.233-0.054 0.276-0.163 0.043-0.108 0.066-0.361 0.066-0.76v-0.912h1.893v0.283c0 0.752-0.054 1.287-0.16 1.602s-0.342 0.591-0.706 0.828c-0.364 0.236-0.814 0.356-1.347 0.356-0.556 0-1.013-0.101-1.373-0.303s-0.599-0.479-0.716-0.834c-0.117-0.356-0.175-0.891-0.175-1.605v-2.127c0-0.525 0.018-0.918 0.054-1.181 0.037-0.263 0.143-0.516 0.323-0.759 0.178-0.243 0.425-0.435 0.742-0.574 0.316-0.138 0.68-0.209 1.090-0.209 0.559 0 1.020 0.109 1.382 0.324 0.362 0.217 0.6 0.485 0.716 0.808 0.114 0.322 0.17 0.825 0.17 1.505v0.692z"></path>
</symbol>
<symbol id="icon-park-static" viewBox="0 0 32 32">
<title>park-static</title>
<path d="M9.739 10.246c-0.244-0.244-0.64-0.244-0.884 0s-0.244 0.639 0 0.884c0.244 0.244 0.639 0.244 0.884 0s0.244-0.64 0-0.884z"></path>
<path d="M6.204 7.594c1.706-1.706 4.481-1.706 6.187 0 0.122 0.122 0.283 0.183 0.442 0.183s0.32-0.061 0.442-0.183c0.244-0.244 0.244-0.64 0-0.884-2.193-2.193-5.762-2.193-7.955 0-0.244 0.244-0.244 0.64 0 0.884s0.641 0.244 0.884 0z"></path>
<path d="M11.065 9.544c0.16 0 0.32-0.061 0.442-0.183 0.244-0.244 0.244-0.64 0-0.884-1.219-1.219-3.201-1.219-4.419 0-0.244 0.244-0.244 0.64 0 0.884s0.64 0.244 0.884 0c0.731-0.731 1.921-0.731 2.652 0 0.122 0.123 0.282 0.183 0.442 0.183z"></path>
<path d="M5.016 17.375h0.017c0.345 0 0.625-0.28 0.625-0.625s-0.28-0.625-0.625-0.625h-0.017c-0.345 0-0.625 0.28-0.625 0.625s0.28 0.625 0.625 0.625z"></path>
<path d="M27.872 27.125c-0.345 0-0.625 0.28-0.625 0.625s0.28 0.625 0.625 0.625h0.017c0.345 0 0.625-0.28 0.625-0.625s-0.28-0.625-0.625-0.625h-0.017z"></path>
<path d="M30.375 27.125h-0.69c-0.345 0-0.625 0.28-0.625 0.625s0.28 0.625 0.625 0.625h0.69c0.203 0 0.375 0.172 0.375 0.375v0.375h-29.5v-0.375c0-0.203 0.172-0.375 0.375-0.375h23.75c0.345 0 0.625-0.28 0.625-0.625s-0.28-0.625-0.625-0.625h-0.53v-3.813c0.202 0.041 0.411 0.063 0.625 0.063 1.723 0 3.125-1.402 3.125-3.125s-1.402-3.125-3.125-3.125c-0.214 0-0.423 0.022-0.625 0.063v-1.841c3.499-0.317 6.25-3.266 6.25-6.846 0-3.791-3.084-6.875-6.875-6.875s-6.875 3.084-6.875 6.875c0 3.58 2.751 6.529 6.25 6.846v2.406c-0.758 0.571-1.25 1.478-1.25 2.498s0.491 1.927 1.25 2.498v4.377h-5.814v-3.063h1.25c0.345 0 0.625-0.28 0.625-0.625v-1c0-0.896-0.729-1.625-1.625-1.625h-0.25v-1.438h0.25c0.896 0 1.625-0.729 1.625-1.625s-0.729-1.625-1.625-1.625h-10.5c-0.345 0-0.625 0.28-0.625 0.625s0.28 0.625 0.625 0.625h10.5c0.203 0 0.375 0.172 0.375 0.375s-0.172 0.375-0.375 0.375h-15.5c-0.203 0-0.375-0.172-0.375-0.375s0.172-0.375 0.375-0.375h0.69c0.345 0 0.625-0.28 0.625-0.625s-0.28-0.625-0.625-0.625h-0.691c-0.896 0-1.625 0.729-1.625 1.625s0.729 1.625 1.625 1.625h0.25v1.438h-0.25c-0.896 0-1.625 0.729-1.625 1.625v1c0 0.345 0.28 0.625 0.625 0.625h1.25v3.063h-1.155c-0.896 0-1.625 0.729-1.625 1.625v1c0 0.345 0.28 0.625 0.625 0.625h30.75c0.345 0 0.625-0.28 0.625-0.625v-1c0-0.896-0.729-1.625-1.625-1.625zM18.595 8.5c0-3.101 2.524-5.625 5.625-5.625s5.625 2.523 5.625 5.625c0 2.891-2.191 5.278-5 5.591v-1.369l1.633-1.633c0.244-0.244 0.244-0.639 0-0.884s-0.639-0.244-0.884 0l-0.749 0.749v-2.454c0-0.345-0.28-0.625-0.625-0.625s-0.625 0.28-0.625 0.625v5.59c-2.809-0.312-5-2.699-5-5.59zM27.345 20.25c0 1.034-0.841 1.875-1.875 1.875s-1.875-0.841-1.875-1.875 0.841-1.875 1.875-1.875c1.034 0 1.875 0.841 1.875 1.875zM4.030 19.375h12.5v1.438h-12.5v-1.438zM2.155 22.438c0-0.203 0.172-0.375 0.375-0.375h15.5c0.203 0 0.375 0.172 0.375 0.375v0.375h-16.25v-0.375zM4.030 24.063h12.5v3.063h-12.5v-3.063z"></path>
</symbol>
<symbol id="icon-phone" viewBox="0 0 32 32">
<title>phone</title>
<path d="M31.282 25.289l-4.942-4.942c-0.985-0.98-2.615-0.951-3.633 0.068l-2.49 2.49c-0.157-0.086-0.32-0.177-0.491-0.273-1.572-0.872-3.724-2.065-5.989-4.331-2.271-2.271-3.466-4.426-4.34-6-0.092-0.166-0.18-0.327-0.268-0.48l2.493-2.491c1.020-1.020 1.048-2.65 0.066-3.633l-4.942-4.943c-0.982-0.982-2.613-0.952-3.633 0.069l-1.393 1.4 0.038 0.038c-0.467 0.596-0.857 1.283-1.147 2.024-0.268 0.705-0.435 1.379-0.51 2.054-0.653 5.409 1.819 10.353 8.529 17.063 9.274 9.273 16.747 8.573 17.069 8.539 0.702-0.084 1.375-0.252 2.059-0.518 0.735-0.287 1.421-0.677 2.017-1.143l0.030 0.027 1.411-1.382c1.018-1.020 1.047-2.649 0.065-3.635z"></path>
</symbol>
<symbol id="icon-population-system-static" viewBox="0 0 32 32">
<title>population-system-static</title>
<path d="M30.598 12.482c-0.839-0.174-1.867 0.249-2.119 1.378l-0.873 3.909c-0.208-0.066-0.429-0.094-0.654-0.078-0.461 0.033-0.88 0.243-1.181 0.591l-1.14 1.316c-0.826 0.954-0.826 0.954-1.688 1.184-0.201 0.053-0.451 0.12-0.756 0.209-3.518 1.031-4.898 4.264-5.047 6.919-0.475 0.229-0.804 0.715-0.804 1.276v1.085c0 0.78 0.635 1.415 1.415 1.415h5.731c0.78 0 1.415-0.634 1.415-1.415v-1.085c0-0.267-0.075-0.517-0.204-0.731l2.569-1.38c0.003-0.001 0.006-0.003 0.008-0.004 2.243-1.247 2.628-1.807 3.167-4.615 0.065-0.339-0.157-0.666-0.496-0.731s-0.666 0.157-0.731 0.496c-0.488 2.536-0.706 2.735-2.544 3.756l-3.342 1.795h-4.922c0.182-2.19 1.335-4.76 4.136-5.58 0.289-0.085 0.521-0.147 0.726-0.201 1.095-0.291 1.294-0.398 2.312-1.574l1.14-1.316c0.172-0.198 0.473-0.22 0.671-0.048 0.245 0.212 0.116 0.562 0.001 0.734-0.594 0.891-1.178 1.741-1.743 2.563-0.289 0.42-0.577 0.839-0.869 1.266-0.195 0.285-0.121 0.674 0.164 0.869s0.674 0.121 0.869-0.164c0.291-0.426 0.578-0.844 0.866-1.262 0.568-0.826 1.155-1.679 1.754-2.578 0.363-0.545 0.435-1.181 0.236-1.713l1.034-4.634c0.114-0.51 0.557-0.445 0.645-0.426 0.147 0.031 0.479 0.151 0.391 0.606l-0.708 3.675c-0.065 0.339 0.157 0.666 0.495 0.731s0.667-0.157 0.732-0.495l0.708-3.675c0.216-1.124-0.523-1.89-1.365-2.065zM23.647 30.271c0 0.090-0.076 0.165-0.165 0.165h-5.731c-0.090 0-0.165-0.076-0.165-0.165v-1.085c0-0.090 0.075-0.165 0.165-0.165h5.732c0.089 0.001 0.164 0.076 0.164 0.165v1.085z"></path>
<path d="M30.418 19.255c-0.339-0.065-0.666 0.157-0.731 0.496l-0.003 0.017c-0.065 0.339 0.157 0.666 0.496 0.731 0.040 0.008 0.080 0.011 0.118 0.011 0.294 0 0.555-0.208 0.613-0.507l0.003-0.016c0.065-0.339-0.157-0.667-0.496-0.732z"></path>
<path d="M14.86 27.91c-0.149-2.655-1.529-5.888-5.047-6.919-0.304-0.089-0.555-0.156-0.756-0.209-0.862-0.229-0.862-0.229-1.688-1.184l-1.139-1.316c-0.301-0.348-0.72-0.557-1.181-0.591-0.225-0.016-0.446 0.011-0.654 0.078l-0.873-3.909c-0.252-1.128-1.28-1.552-2.119-1.378-0.842 0.175-1.581 0.941-1.364 2.067 0.065 0.339 0.393 0.561 0.732 0.495s0.56-0.393 0.495-0.732c-0.088-0.456 0.244-0.576 0.391-0.606 0.088-0.018 0.532-0.083 0.645 0.426l1.035 4.634c-0.2 0.532-0.128 1.168 0.235 1.713 0.599 0.9 1.187 1.754 1.755 2.58 0.287 0.418 0.575 0.835 0.865 1.26 0.195 0.285 0.583 0.358 0.869 0.164s0.358-0.584 0.164-0.869c-0.291-0.426-0.579-0.845-0.867-1.264-0.566-0.822-1.151-1.673-1.745-2.565-0.115-0.173-0.245-0.522 0.001-0.734 0.095-0.083 0.218-0.123 0.346-0.114s0.244 0.067 0.326 0.162l1.139 1.316c1.018 1.176 1.217 1.282 2.312 1.574 0.205 0.054 0.436 0.116 0.726 0.201 2.801 0.82 3.954 3.39 4.136 5.58h-4.923l-3.342-1.795c-1.837-1.021-2.056-1.221-2.544-3.757l-0.708-3.675c-0.065-0.339-0.393-0.561-0.732-0.495s-0.561 0.393-0.495 0.732l0.708 3.675c0.54 2.808 0.924 3.368 3.167 4.615 0.003 0.001 0.005 0.003 0.008 0.004l2.569 1.38c-0.13 0.214-0.204 0.463-0.204 0.731v1.085c0 0.78 0.635 1.415 1.415 1.415h5.731c0.78 0 1.415-0.634 1.415-1.415v-1.085c0.002-0.563-0.326-1.049-0.802-1.277zM14.414 30.271c0 0.090-0.076 0.165-0.165 0.165h-5.731c-0.090 0-0.165-0.076-0.165-0.165v-1.085c0-0.089 0.075-0.164 0.164-0.165v0h5.732c0.090 0 0.165 0.075 0.165 0.165v1.085z"></path>
<path d="M1.246 17.514c0.339-0.065 0.561-0.393 0.496-0.731l-0.003-0.017c-0.065-0.339-0.393-0.561-0.731-0.496s-0.561 0.393-0.496 0.731l0.003 0.016c0.058 0.299 0.319 0.508 0.613 0.508 0.039 0 0.079-0.004 0.118-0.011z"></path>
<path d="M17.875 21.671c0-0.815-0.523-1.509-1.25-1.767v-0.756c1.877-0.144 3.579-0.93 4.883-2.137 0.034-0.026 0.066-0.056 0.095-0.088 1.547-1.477 2.512-3.558 2.514-5.86h1.115c0.258 0.727 0.953 1.25 1.767 1.25 1.034 0 1.875-0.841 1.875-1.875s-0.841-1.875-1.875-1.875c-0.815 0-1.51 0.522-1.767 1.25h-1.21c-0.125-0.81-0.37-1.581-0.717-2.294h1.613c0.166 0 0.325-0.066 0.442-0.183l0.648-0.648h2.348c0.258 0.727 0.953 1.25 1.767 1.25 1.034 0 1.875-0.841 1.875-1.875s-0.841-1.875-1.875-1.875c-0.815 0-1.509 0.523-1.767 1.25h-2.608c-0.166 0-0.325 0.066-0.442 0.183l-0.648 0.648h-2.108c-0.674-0.92-1.537-1.693-2.531-2.263l1.068-1.068h1.886c0.258 0.727 0.953 1.25 1.767 1.25 1.034 0 1.875-0.841 1.875-1.875s-0.841-1.875-1.875-1.875c-0.815 0-1.509 0.522-1.767 1.25h-2.145c-0.166 0-0.325 0.066-0.442 0.183l-1.571 1.571c-0.878-0.326-1.827-0.504-2.817-0.504s-1.939 0.178-2.817 0.504l-1.571-1.571c-0.117-0.117-0.276-0.183-0.442-0.183h-2.145c-0.258-0.728-0.953-1.25-1.767-1.25-1.034 0-1.875 0.841-1.875 1.875s0.841 1.875 1.875 1.875c0.815 0 1.51-0.522 1.767-1.25h1.886l1.068 1.068c-0.994 0.569-1.857 1.343-2.531 2.263h-2.108l-0.648-0.648c-0.117-0.117-0.276-0.183-0.442-0.183h-2.605c-0.258-0.728-0.953-1.25-1.767-1.25-1.034 0-1.875 0.841-1.875 1.875s0.841 1.875 1.875 1.875c0.815 0 1.509-0.522 1.767-1.25h2.348l0.648 0.648c0.117 0.117 0.276 0.183 0.442 0.183h1.613c-0.346 0.713-0.592 1.484-0.717 2.294h-1.21c-0.258-0.728-0.952-1.25-1.768-1.25-1.034 0-1.875 0.841-1.875 1.875s0.841 1.875 1.875 1.875c0.815 0 1.51-0.522 1.768-1.25h1.115c0.003 2.302 0.967 4.382 2.514 5.86 0.029 0.033 0.060 0.063 0.095 0.089 1.305 1.208 3.005 1.993 4.883 2.137v0.756c-0.727 0.258-1.25 0.953-1.25 1.767 0 1.034 0.841 1.875 1.875 1.875s1.874-0.841 1.874-1.875zM30.124 5.438c0.344 0 0.625 0.281 0.625 0.625s-0.281 0.625-0.625 0.625c-0.344 0-0.625-0.281-0.625-0.625s0.281-0.625 0.625-0.625zM24.742 1.688c0.344 0 0.625 0.281 0.625 0.625s-0.281 0.625-0.625 0.625c-0.344 0-0.625-0.281-0.625-0.625s0.28-0.625 0.625-0.625zM7.258 2.938c-0.344 0-0.625-0.281-0.625-0.625s0.281-0.625 0.625-0.625c0.344 0 0.625 0.281 0.625 0.625s-0.281 0.625-0.625 0.625zM1.876 6.687c-0.344 0-0.625-0.281-0.625-0.625s0.281-0.625 0.625-0.625c0.344 0 0.625 0.281 0.625 0.625s-0.281 0.625-0.625 0.625zM11.511 16.247c0.145-1.503 1.045-2.844 2.376-3.553 0.592 0.438 1.323 0.697 2.114 0.697s1.522-0.259 2.114-0.698c1.331 0.708 2.231 2.050 2.376 3.553-1.205 1.043-2.775 1.675-4.489 1.675s-3.285-0.631-4.489-1.674zM13.691 9.249c0.153 0.024 0.309 0.035 0.465 0.035 0.906 0 1.829-0.373 2.496-0.761 0.483 0.378 1.078 0.583 1.658 0.584v0.725c0 0.643-0.264 1.224-0.689 1.644-0.022 0.018-0.042 0.038-0.061 0.058-0.411 0.378-0.959 0.608-1.56 0.608s-1.149-0.231-1.56-0.609c-0.019-0.021-0.039-0.039-0.060-0.057-0.425-0.419-0.689-1.001-0.689-1.644v-0.583zM13.724 7.978c0.184-1.090 1.135-1.923 2.276-1.923 1.097 0 2.017 0.769 2.251 1.796-0.356-0.020-0.765-0.187-1.049-0.524-0.21-0.249-0.577-0.294-0.841-0.104-0.627 0.449-1.81 0.981-2.638 0.755zM26.999 9.812c0.344 0 0.625 0.281 0.625 0.625s-0.281 0.625-0.625 0.625c-0.344 0-0.625-0.281-0.625-0.625s0.281-0.625 0.625-0.625zM5.001 11.062c-0.344 0-0.625-0.281-0.625-0.625s0.281-0.625 0.625-0.625c0.344 0 0.625 0.281 0.625 0.625s-0.281 0.625-0.625 0.625zM16 4.188c3.786 0 6.867 3.080 6.867 6.867 0 1.514-0.493 2.916-1.327 4.052-0.396-1.388-1.306-2.593-2.548-3.35 0.359-0.555 0.567-1.216 0.567-1.925v-1.46c0-0.002 0-0.004 0-0.006v-0.001c0-1.963-1.597-3.559-3.559-3.559s-3.559 1.597-3.559 3.559v1.467c0 0.709 0.209 1.37 0.567 1.925-1.242 0.758-2.152 1.963-2.548 3.35-0.834-1.137-1.327-2.538-1.327-4.052 0-3.787 3.081-6.867 6.867-6.867zM16 22.296c-0.344 0-0.625-0.281-0.625-0.625s0.281-0.625 0.625-0.625c0.344 0 0.625 0.281 0.625 0.625s-0.28 0.625-0.625 0.625z"></path>
</symbol>
<symbol id="icon-power-plant-static" viewBox="0 0 32 32">
<title>power-plant-static</title>
<path d="M8.184 3.5h0.017c0.345 0 0.625-0.28 0.625-0.625s-0.28-0.625-0.625-0.625h-0.017c-0.345 0-0.625 0.28-0.625 0.625s0.28 0.625 0.625 0.625z"></path>
<path d="M30.909 24.419c-0.989-2.954-2.342-6.999-2.342-13.603 0-0.345-0.28-0.625-0.625-0.625h-7.771c-0.345 0-0.625 0.28-0.625 0.625 0 2.256-0.157 4.367-0.474 6.393-0.954-3.629-1.759-8.219-1.759-14.334 0-0.345-0.28-0.625-0.625-0.625h-6.142c-0.345 0-0.625 0.28-0.625 0.625s0.28 0.625 0.625 0.625h5.519c0.004 0.515 0.015 1.019 0.031 1.513h-9.958c0.016-0.494 0.026-0.998 0.031-1.513h0.22c0.345 0 0.625-0.28 0.625-0.625s-0.28-0.625-0.625-0.625h-0.843c-0.345 0-0.625 0.28-0.625 0.625 0 9.512-1.949 15.336-3.372 19.589-0.866 2.587-1.549 4.631-1.549 6.661 0 0.345 0.28 0.625 0.625 0.625h30.75c0.345 0 0.625-0.28 0.625-0.625 0-1.446-0.481-2.885-1.091-4.706zM27.321 11.441c0.003 0.232 0.008 0.461 0.014 0.688h-6.557c0.006-0.228 0.011-0.457 0.014-0.688h6.529zM2.735 22.861c1.274-3.806 2.96-8.847 3.352-16.598h10.060c0.392 7.751 2.079 12.792 3.352 16.598 0.481 1.439 0.992 2.884 1.284 4.376 0.081 0.418 0.144 0.839 0.177 1.264h-19.685c0.126-1.651 0.724-3.44 1.461-5.639zM22.214 28.5c-0.054-0.812-0.207-1.614-0.406-2.402-0.203-0.806-0.452-1.598-0.709-2.387-0.145-0.445-0.294-0.889-0.442-1.332h0.458c0.345 0 0.625-0.28 0.625-0.625s-0.28-0.625-0.625-0.625h-0.873c-0.138-0.421-0.274-0.843-0.406-1.266 0.473-2.075 0.766-4.215 0.891-6.482h6.659c0.292 5.324 1.456 8.803 2.337 11.437 0.479 1.431 0.873 2.61 0.991 3.684l-8.501-0.001z"></path>
<path d="M28.982 26.563h-2.565c-0.345 0-0.625 0.28-0.625 0.625s0.28 0.625 0.625 0.625h2.565c0.345 0 0.625-0.28 0.625-0.625s-0.279-0.625-0.625-0.625z"></path>
<path d="M24.622 26.563h-0.014c-0.345 0-0.625 0.28-0.625 0.625s0.28 0.625 0.625 0.625h0.014c0.345 0 0.625-0.28 0.625-0.625s-0.28-0.625-0.625-0.625z"></path>
<path d="M7.771 8.752h0.937c0.345 0 0.625-0.28 0.625-0.625s-0.28-0.625-0.625-0.625h-0.938c-0.345 0-0.625 0.28-0.625 0.625s0.279 0.625 0.625 0.625z"></path>
<path d="M13.271 10.565h0.938c0.345 0 0.625-0.28 0.625-0.625s-0.28-0.625-0.625-0.625h-0.938c-0.345 0-0.625 0.28-0.625 0.625s0.279 0.625 0.625 0.625z"></path>
<path d="M8.833 12.065c0 0.345 0.28 0.625 0.625 0.625h0.938c0.345 0 0.625-0.28 0.625-0.625s-0.28-0.625-0.625-0.625h-0.938c-0.346 0-0.625 0.279-0.625 0.625z"></path>
<path d="M15.958 15.002c0-0.345-0.28-0.625-0.625-0.625h-0.938c-0.345 0-0.625 0.28-0.625 0.625s0.28 0.625 0.625 0.625h0.938c0.345 0 0.625-0.28 0.625-0.625z"></path>
<path d="M7.583 15.846h-0.938c-0.345 0-0.625 0.28-0.625 0.625s0.28 0.625 0.625 0.625h0.938c0.345 0 0.625-0.28 0.625-0.625s-0.28-0.625-0.625-0.625z"></path>
<path d="M26.864 24.128c0-0.345-0.28-0.625-0.625-0.625h-0.938c-0.345 0-0.625 0.28-0.625 0.625s0.28 0.625 0.625 0.625h0.938c0.345 0 0.625-0.28 0.625-0.625z"></path>
<path d="M25.302 19.409h0.938c0.345 0 0.625-0.28 0.625-0.625s-0.28-0.625-0.625-0.625h-0.938c-0.345 0-0.625 0.28-0.625 0.625s0.279 0.625 0.625 0.625z"></path>
<path d="M23.396 15.44h-0.938c-0.345 0-0.625 0.28-0.625 0.625s0.28 0.625 0.625 0.625h0.938c0.345 0 0.625-0.28 0.625-0.625s-0.28-0.625-0.625-0.625z"></path>
<path d="M11.117 17.479c-0.176 0-0.345 0.075-0.463 0.206-0.428 0.472-2.558 2.928-2.558 4.963 0 0.879 0.307 1.7 0.866 2.309 0.568 0.619 1.333 0.961 2.155 0.961v0c0.819 0 1.585-0.348 2.158-0.98 0.557-0.615 0.864-1.429 0.864-2.291 0-1.984-1.958-4.301-2.558-4.963-0.119-0.131-0.287-0.206-0.463-0.206zM12.349 24.099c-0.332 0.367-0.77 0.569-1.231 0.569-0.467 0-0.905-0.198-1.234-0.556-0.347-0.379-0.538-0.899-0.538-1.465 0-0.985 0.831-2.419 1.772-3.583 0.896 1.106 1.771 2.541 1.771 3.583 0 0.551-0.192 1.067-0.54 1.451z"></path>
<path d="M17.014 24.815h-0.938c-0.345 0-0.625 0.28-0.625 0.625s0.28 0.625 0.625 0.625h0.938c0.345 0 0.625-0.28 0.625-0.625s-0.28-0.625-0.625-0.625z"></path>
<path d="M5.139 24.44h-0.938c-0.345 0-0.625 0.28-0.625 0.625s0.28 0.625 0.625 0.625h0.938c0.345 0 0.625-0.28 0.625-0.625s-0.28-0.625-0.625-0.625z"></path>
</symbol>
<symbol id="icon-power-plant" viewBox="0 0 32 32">
<title>power-plant</title>
<path d="M8.184 3.5h0.017c0.345 0 0.625-0.28 0.625-0.625s-0.28-0.625-0.625-0.625h-0.017c-0.345 0-0.625 0.28-0.625 0.625s0.28 0.625 0.625 0.625z"></path>
<path d="M30.909 24.419c-0.989-2.954-2.342-6.999-2.342-13.603 0-0.345-0.28-0.625-0.625-0.625h-7.771c-0.345 0-0.625 0.28-0.625 0.625 0 2.256-0.157 4.367-0.474 6.393-0.954-3.629-1.759-8.219-1.759-14.334 0-0.345-0.28-0.625-0.625-0.625h-6.142c-0.345 0-0.625 0.28-0.625 0.625s0.28 0.625 0.625 0.625h5.519c0.004 0.515 0.015 1.019 0.031 1.513h-9.958c0.016-0.494 0.026-0.998 0.031-1.513h0.22c0.345 0 0.625-0.28 0.625-0.625s-0.28-0.625-0.625-0.625h-0.843c-0.345 0-0.625 0.28-0.625 0.625 0 9.512-1.949 15.336-3.372 19.589-0.866 2.587-1.549 4.631-1.549 6.661 0 0.345 0.28 0.625 0.625 0.625h30.75c0.345 0 0.625-0.28 0.625-0.625 0-1.446-0.481-2.885-1.091-4.706zM27.321 11.441c0.003 0.232 0.008 0.461 0.014 0.688h-6.557c0.006-0.228 0.011-0.457 0.014-0.688h6.529zM2.735 22.861c1.274-3.806 2.96-8.847 3.352-16.598h10.060c0.392 7.751 2.079 12.792 3.352 16.598 0.481 1.439 0.992 2.884 1.284 4.376 0.081 0.418 0.144 0.839 0.177 1.264h-19.685c0.126-1.651 0.724-3.44 1.461-5.639zM22.214 28.5c-0.054-0.812-0.207-1.614-0.406-2.402-0.203-0.806-0.452-1.598-0.709-2.387-0.145-0.445-0.294-0.889-0.442-1.332h0.458c0.345 0 0.625-0.28 0.625-0.625s-0.28-0.625-0.625-0.625h-0.873c-0.138-0.421-0.274-0.843-0.406-1.266 0.473-2.075 0.766-4.215 0.891-6.482h6.659c0.292 5.324 1.456 8.803 2.337 11.437 0.479 1.431 0.873 2.61 0.991 3.684l-8.501-0.001z"></path>
<path d="M28.982 26.563h-2.565c-0.345 0-0.625 0.28-0.625 0.625s0.28 0.625 0.625 0.625h2.565c0.345 0 0.625-0.28 0.625-0.625s-0.279-0.625-0.625-0.625z"></path>
<path d="M24.622 26.563h-0.014c-0.345 0-0.625 0.28-0.625 0.625s0.28 0.625 0.625 0.625h0.014c0.345 0 0.625-0.28 0.625-0.625s-0.28-0.625-0.625-0.625z"></path>
<path d="M7.771 8.752h0.937c0.345 0 0.625-0.28 0.625-0.625s-0.28-0.625-0.625-0.625h-0.938c-0.345 0-0.625 0.28-0.625 0.625s0.279 0.625 0.625 0.625z"></path>
<path d="M13.271 10.565h0.938c0.345 0 0.625-0.28 0.625-0.625s-0.28-0.625-0.625-0.625h-0.938c-0.345 0-0.625 0.28-0.625 0.625s0.279 0.625 0.625 0.625z"></path>
<path d="M8.833 12.065c0 0.345 0.28 0.625 0.625 0.625h0.938c0.345 0 0.625-0.28 0.625-0.625s-0.28-0.625-0.625-0.625h-0.938c-0.346 0-0.625 0.279-0.625 0.625z"></path>
<path d="M15.958 15.002c0-0.345-0.28-0.625-0.625-0.625h-0.938c-0.345 0-0.625 0.28-0.625 0.625s0.28 0.625 0.625 0.625h0.938c0.345 0 0.625-0.28 0.625-0.625z"></path>
<path d="M7.583 15.846h-0.938c-0.345 0-0.625 0.28-0.625 0.625s0.28 0.625 0.625 0.625h0.938c0.345 0 0.625-0.28 0.625-0.625s-0.28-0.625-0.625-0.625z"></path>
<path d="M26.864 24.128c0-0.345-0.28-0.625-0.625-0.625h-0.938c-0.345 0-0.625 0.28-0.625 0.625s0.28 0.625 0.625 0.625h0.938c0.345 0 0.625-0.28 0.625-0.625z"></path>
<path d="M25.302 19.409h0.938c0.345 0 0.625-0.28 0.625-0.625s-0.28-0.625-0.625-0.625h-0.938c-0.345 0-0.625 0.28-0.625 0.625s0.279 0.625 0.625 0.625z"></path>
<path d="M23.396 15.44h-0.938c-0.345 0-0.625 0.28-0.625 0.625s0.28 0.625 0.625 0.625h0.938c0.345 0 0.625-0.28 0.625-0.625s-0.28-0.625-0.625-0.625z"></path>
<path d="M11.117 17.479c-0.176 0-0.345 0.075-0.463 0.206-0.428 0.472-2.558 2.928-2.558 4.963 0 0.879 0.307 1.7 0.866 2.309 0.568 0.619 1.333 0.961 2.155 0.961v0c0.819 0 1.585-0.348 2.158-0.98 0.557-0.615 0.864-1.429 0.864-2.291 0-1.984-1.958-4.301-2.558-4.963-0.119-0.131-0.287-0.206-0.463-0.206zM12.349 24.099c-0.332 0.367-0.77 0.569-1.231 0.569-0.467 0-0.905-0.198-1.234-0.556-0.347-0.379-0.538-0.899-0.538-1.465 0-0.985 0.831-2.419 1.772-3.583 0.896 1.106 1.771 2.541 1.771 3.583 0 0.551-0.192 1.067-0.54 1.451z"></path>
<path d="M17.014 24.815h-0.938c-0.345 0-0.625 0.28-0.625 0.625s0.28 0.625 0.625 0.625h0.938c0.345 0 0.625-0.28 0.625-0.625s-0.28-0.625-0.625-0.625z"></path>
<path d="M5.139 24.44h-0.938c-0.345 0-0.625 0.28-0.625 0.625s0.28 0.625 0.625 0.625h0.938c0.345 0 0.625-0.28 0.625-0.625s-0.28-0.625-0.625-0.625z"></path>
</symbol>
<symbol id="icon-teach" viewBox="0 0 32 32">
<title>teach</title>
<path d="M31.174 10.071c-1.097-1.097-2.881-1.096-3.977 0-0.337 0.338-2.491 2.494-2.821 2.823v-7.429c0-0.751-0.293-1.457-0.824-1.989l-2.652-2.652c-0.531-0.531-1.238-0.824-1.989-0.824h-16.098c-1.551 0-2.813 1.262-2.813 2.813v26.375c0 1.551 1.262 2.813 2.813 2.813h18.75c1.551 0 2.813-1.262 2.813-2.813v-8.336l6.798-6.804c1.099-1.099 1.099-2.879 0-3.977zM18.751 1.875c0.177 0 0.519-0.031 0.824 0.274l2.652 2.652c0.297 0.298 0.274 0.624 0.274 0.824h-3.75v-3.75zM22.501 29.188c0 0.517-0.421 0.938-0.938 0.938h-18.75c-0.517 0-0.938-0.421-0.938-0.938v-26.375c0-0.517 0.421-0.938 0.938-0.938h14.063v4.688c0 0.518 0.42 0.938 0.938 0.938h4.688v7.27c0 0-2.766 2.768-2.766 2.768l-1.325 1.325c-0.103 0.103-0.181 0.228-0.226 0.366l-1.326 3.977c-0.113 0.337-0.024 0.708 0.226 0.959s0.623 0.339 0.959 0.226l3.977-1.326c0.138-0.046 0.264-0.124 0.366-0.226l0.114-0.114v6.461zM20.399 19.527l1.326 1.326-0.506 0.506-1.989 0.663 0.663-1.989 0.506-0.506zM23.050 19.526l-1.326-1.326c0.706-0.706 3.841-3.845 4.507-4.511l1.326 1.326-4.507 4.511zM29.848 12.723l-0.966 0.967-1.326-1.326 0.967-0.967c0.366-0.366 0.961-0.366 1.326 0s0.367 0.957-0.001 1.326z"></path>
<path d="M17.814 9.375h-13.125c-0.518 0-0.938 0.42-0.938 0.938s0.42 0.938 0.938 0.938h13.125c0.517 0 0.938-0.42 0.938-0.938s-0.42-0.938-0.938-0.938z"></path>
<path d="M14.064 13.125h-9.375c-0.518 0-0.938 0.42-0.938 0.938s0.42 0.938 0.938 0.938h9.375c0.518 0 0.938-0.42 0.938-0.938s-0.42-0.938-0.938-0.938z"></path>
<path d="M14.064 16.875h-9.375c-0.518 0-0.938 0.42-0.938 0.938s0.42 0.938 0.938 0.938h9.375c0.518 0 0.938-0.42 0.938-0.938s-0.42-0.938-0.938-0.938z"></path>
<path d="M14.064 20.625h-9.375c-0.518 0-0.938 0.42-0.938 0.938s0.42 0.938 0.938 0.938h9.375c0.518 0 0.938-0.42 0.938-0.938s-0.42-0.938-0.938-0.938z"></path>
<path d="M17.814 26.375h-5.625c-0.518 0-0.938 0.42-0.938 0.938s0.42 0.938 0.938 0.938h5.625c0.517 0 0.938-0.42 0.938-0.938s-0.42-0.938-0.938-0.938z"></path>
</symbol>
<symbol id="icon-traffic-light-static" viewBox="0 0 32 32">
<title>traffic-light-static</title>
<path d="M16.443 5.118c-0.244-0.244-0.64-0.244-0.884 0s-0.244 0.64 0 0.884 0.64 0.244 0.884 0c0.244-0.244 0.244-0.64 0-0.884z"></path>
<path d="M12.906 2.467c1.706-1.706 4.482-1.706 6.188 0 0.122 0.122 0.282 0.183 0.442 0.183s0.32-0.061 0.442-0.183c0.244-0.244 0.244-0.64 0-0.884-2.194-2.194-5.762-2.194-7.956 0-0.244 0.244-0.244 0.64 0 0.884s0.64 0.244 0.884 0z"></path>
<path d="M17.768 4.417c0.16 0 0.32-0.061 0.442-0.183 0.244-0.244 0.244-0.64 0-0.884-1.219-1.218-3.201-1.218-4.42 0-0.244 0.244-0.244 0.64 0 0.884s0.64 0.244 0.884 0c0.731-0.731 1.921-0.731 2.652 0 0.122 0.122 0.282 0.183 0.442 0.183z"></path>
<path d="M15.315 30.687h-2.94c-0.758 0-1.375-0.617-1.375-1.375v-19.752c0-0.758 0.617-1.375 1.375-1.375 0.345 0 0.625-0.28 0.625-0.625s-0.28-0.625-0.625-0.625c-1.299 0-2.38 0.949-2.588 2.189-0.012-0.001-0.024-0.002-0.036-0.002h-0.375c-0.896 0-1.625 0.729-1.625 1.625v1.5c0 0.345 0.28 0.625 0.625 0.625h1.375v3.438h-0.375c-0.896 0-1.625 0.729-1.625 1.625v1.5c0 0.345 0.28 0.625 0.625 0.625h1.375v3.438h-0.375c-0.896 0-1.625 0.729-1.625 1.625v1.5c0 0.345 0.28 0.625 0.625 0.625h1.375v2.063c0 1.447 1.177 2.625 2.625 2.625h2.94c0.345 0 0.625-0.28 0.625-0.625s-0.28-0.625-0.626-0.625zM9.75 11.623h-0.75v-0.875c0-0.204 0.172-0.375 0.375-0.375h0.375v1.25c0 0 0 0 0 0zM9.75 18.812h-0.75v-0.875c0-0.203 0.172-0.375 0.375-0.375h0.375v1.251c0 0 0 0 0 0zM9.75 26h-0.75v-0.875c0-0.204 0.172-0.375 0.375-0.375h0.375v1.25c0 0 0 0 0 0z"></path>
<path d="M16.001 16.311c-1.723 0-3.125 1.402-3.125 3.125s1.402 3.125 3.125 3.125c1.723 0 3.125-1.402 3.125-3.125s-1.402-3.125-3.125-3.125zM16.001 21.312c-1.034 0-1.876-0.841-1.876-1.875s0.841-1.876 1.876-1.876 1.875 0.841 1.875 1.876c0 1.034-0.841 1.875-1.875 1.875z"></path>
<path d="M19.126 26.625c0-1.723-1.402-3.125-3.125-3.125s-3.125 1.402-3.125 3.125c0 1.723 1.402 3.125 3.125 3.125s3.125-1.402 3.125-3.125zM16.001 28.5c-1.034 0-1.876-0.841-1.876-1.876s0.841-1.875 1.876-1.875 1.875 0.841 1.875 1.875c0 1.034-0.841 1.876-1.875 1.876z"></path>
<path d="M16.001 9.123c-1.723 0-3.125 1.402-3.125 3.125s1.402 3.125 3.125 3.125c1.723 0 3.125-1.402 3.125-3.125s-1.402-3.125-3.125-3.125zM16.001 14.124c-1.034 0-1.876-0.841-1.876-1.876s0.841-1.875 1.876-1.875 1.875 0.841 1.875 1.875-0.841 1.876-1.875 1.876z"></path>
<path d="M14.188 8.185c0.345 0 0.625-0.28 0.625-0.625s-0.28-0.625-0.625-0.625h-0.017c-0.345 0-0.625 0.28-0.625 0.625s0.28 0.625 0.625 0.625h0.017z"></path>
<path d="M17.83 30.687h-0.017c-0.345 0-0.625 0.28-0.625 0.625s0.28 0.625 0.625 0.625h0.017c0.345 0 0.625-0.28 0.625-0.625s-0.279-0.625-0.625-0.625z"></path>
<path d="M22.251 12.873h1.375c0.345 0 0.625-0.28 0.625-0.625v-1.5c0-0.896-0.729-1.625-1.625-1.625h-0.375c-0.013 0-0.024 0.001-0.037 0.002-0.209-1.241-1.289-2.19-2.588-2.19h-2.94c-0.345 0-0.625 0.28-0.625 0.625s0.28 0.625 0.625 0.625h2.94c0.758 0 1.375 0.617 1.375 1.375v19.752c0 0.758-0.617 1.375-1.375 1.375-0.345 0-0.625 0.28-0.625 0.625s0.28 0.625 0.625 0.625c1.447 0 2.625-1.178 2.625-2.625v-2.063h1.375c0.345 0 0.625-0.28 0.625-0.625v-1.5c0-0.896-0.729-1.625-1.625-1.625h-0.375v-3.438h1.375c0.345 0 0.625-0.28 0.625-0.625v-1.5c0-0.896-0.729-1.625-1.625-1.625h-0.375v-3.439zM22.626 10.373c0.203 0 0.375 0.172 0.375 0.375v0.875h-0.75v-1.25h0.375zM22.251 24.75h0.375c0.203 0 0.375 0.172 0.375 0.375v0.875h-0.75v-1.25zM22.251 17.561h0.375c0.203 0 0.375 0.172 0.375 0.375v0.875h-0.75v-1.251z"></path>
</symbol>
<symbol id="icon-user" viewBox="0 0 32 32">
<title>user</title>
<path d="M16 16.946c3.962 0 7.175-3.759 7.175-8.398 0-6.432-3.212-8.398-7.175-8.398s-7.175 1.966-7.175 8.398c0 4.639 3.213 8.398 7.175 8.398z"></path>
<path d="M31.844 29.306l-3.619-8.154c-0.166-0.373-0.457-0.683-0.818-0.871l-5.618-2.924c-0.124-0.064-0.274-0.052-0.386 0.032-1.589 1.202-3.457 1.837-5.403 1.837s-3.813-0.635-5.403-1.837c-0.112-0.084-0.262-0.097-0.386-0.032l-5.618 2.924c-0.362 0.188-0.653 0.497-0.819 0.871l-3.619 8.154c-0.249 0.562-0.199 1.205 0.137 1.721s0.903 0.824 1.517 0.824h28.379c0.615 0 1.183-0.308 1.517-0.824s0.387-1.16 0.137-1.721z"></path>
</symbol>
<symbol id="icon-using" viewBox="0 0 32 32">
<title>using</title>
<path d="M30.842 0.030c-0.009 0.002-0.017 0.004-0.026 0.006l-29.168 7.955c-0.733 0.2-0.935 1.146-0.349 1.628l9.078 7.479-1.671 5.014c-0.244 0.731 0.454 1.43 1.186 1.186l5.014-1.671 7.479 9.078c0.484 0.587 1.429 0.382 1.628-0.349l7.955-29.168c0.003-0.009 0.004-0.019 0.007-0.028 0.164-0.688-0.456-1.293-1.132-1.13zM3.888 9.324l23.111-6.303-15.524 12.553-7.586-6.25zM14.662 19.731l-3.586 1.196 1.196-3.586 12.491-10.101-10.101 12.491zM22.679 28.115l-6.25-7.586 12.553-15.525-6.303 23.111z"></path>
<path d="M2.926 29.082c-0.366-0.366-0.96-0.366-1.326 0.001l-1.325 1.326c-0.366 0.366-0.366 0.96 0.001 1.326 0.349 0.349 0.976 0.349 1.326-0.001l1.325-1.326c0.366-0.366 0.366-0.959-0.001-1.326z"></path>
<path d="M6.901 25.102c-0.366-0.366-0.96-0.366-1.326 0.001l-1.325 1.327c-0.333 0.333-0.333 0.993 0.001 1.326 0.316 0.316 1.010 0.316 1.326-0.001l1.325-1.326c0.366-0.366 0.366-0.96-0.001-1.326z"></path>
</symbol>
<symbol id="icon-vk" viewBox="0 0 32 32">
<title>vk</title>
<path d="M31.715 23.156c-0.086-0.144-0.618-1.3-3.178-3.676-2.68-2.488-2.32-2.084 0.908-6.386 1.966-2.62 2.752-4.22 2.506-4.904-0.234-0.652-1.68-0.48-1.68-0.48l-4.808 0.028c0 0-0.356-0.048-0.622 0.11-0.258 0.156-0.424 0.516-0.424 0.516s-0.762 2.028-1.778 3.752c-2.142 3.638-3 3.83-3.35 3.604-0.814-0.526-0.61-2.116-0.61-3.244 0-3.526 0.534-4.996-1.042-5.376-0.524-0.126-0.908-0.21-2.246-0.224-1.716-0.018-3.17 0.006-3.992 0.408-0.548 0.268-0.97 0.866-0.712 0.9 0.318 0.042 1.038 0.194 1.42 0.714 0.494 0.67 0.476 2.178 0.476 2.178s0.284 4.15-0.662 4.666c-0.65 0.354-1.54-0.368-3.45-3.67-0.978-1.69-1.718-3.56-1.718-3.56s-0.142-0.348-0.396-0.534c-0.308-0.226-0.74-0.298-0.74-0.298l-4.572 0.028c0 0-0.686 0.020-0.938 0.318-0.224 0.266-0.018 0.814-0.018 0.814s3.58 8.375 7.633 12.597c3.718 3.87 7.939 3.616 7.939 3.616h1.912c0 0 0.578-0.064 0.872-0.382 0.272-0.292 0.262-0.84 0.262-0.84s-0.038-2.566 1.154-2.944c1.174-0.372 2.682 2.48 4.28 3.578 1.208 0.83 2.126 0.648 2.126 0.648l4.274-0.060c0 0 2.236-0.138 1.176-1.896z"></path>
</symbol>
</defs>
</svg>
