<?xml version="1.0" encoding="utf-8"?>
<!-- Generator: Adobe Illustrator 21.1.0, SVG Export Plug-In . SVG Version: 6.00 Build 0)  -->
<svg version="1.1" id="Layer_1" xmlns="http://www.w3.org/2000/svg" xmlns:xlink="http://www.w3.org/1999/xlink" x="0px" y="0px"
	 viewBox="0 0 176.986 95.068" enable-background="new 0 0 176.986 95.068" xml:space="preserve">
<g display="none">
	<g display="inline">
		<linearGradient id="SVGID_1_" gradientUnits="userSpaceOnUse" x1="140.8653" y1="-39.132" x2="16.8479" y2="67.4404">
			<stop  offset="0" style="stop-color:#EE1B25;stop-opacity:0.4"/>
			<stop  offset="0.2576" style="stop-color:#F42425;stop-opacity:0.6724"/>
			<stop  offset="0.5674" style="stop-color:#FF3624"/>
			<stop  offset="0.8652" style="stop-color:#EE2E25"/>
			<stop  offset="0.9962" style="stop-color:#EE1B25"/>
		</linearGradient>
		<path fill="url(#SVGID_1_)" d="M42.545,21.779v67.289c0,3.321-1.179,4.393-4.393,4.393h-8.679c-3.214,0-4.393-1.071-4.393-4.393
			V38.815l-10.394,5.893c-3.321,1.929-5.143,1.179-6.643-1.714l-3.75-6.75c-1.5-2.786-0.75-4.179,2.143-5.893L25.83,19.1
			c2.357-1.393,3.536-1.714,6.214-1.714h6.107C41.366,17.386,42.545,18.458,42.545,21.779z"/>
		<linearGradient id="SVGID_2_" gradientUnits="userSpaceOnUse" x1="161.0317" y1="-14.3889" x2="37.7296" y2="91.5689">
			<stop  offset="0" style="stop-color:#EE1B25;stop-opacity:0.1"/>
			<stop  offset="0.2576" style="stop-color:#F42425;stop-opacity:0.5087"/>
			<stop  offset="0.5674" style="stop-color:#FF3624"/>
			<stop  offset="0.8652" style="stop-color:#EE2E25"/>
			<stop  offset="0.9962" style="stop-color:#EE1B25"/>
		</linearGradient>
		<path fill="url(#SVGID_2_)" d="M108.012,21.779v7.071c0,2.426-1.967,4.393-4.393,4.393h-28.18l-1.071,11.25h9.857
			c18.536,0,26.894,11.144,26.894,24.858c0,14.036-9.964,25.716-27.751,25.716c-16.607,0-25.715-6.107-30.001-17.68
			c-1.071-3.107-0.321-4.5,2.679-5.571l8.25-3c3-1.071,4.286-0.536,5.572,2.679c1.929,4.929,5.464,7.607,13.071,7.607
			c5.692,0,9.828-3.215,9.962-9.745c0.107-5.225-4.306-9.434-9.532-9.434l-22.93,0c-3.75,0-4.821-1.607-4.5-5.036l3.215-31.287
			c0.429-4.714,2.143-6.215,6.965-6.215h37.501C106.045,17.386,108.012,19.353,108.012,21.779z"/>
		<linearGradient id="SVGID_3_" gradientUnits="userSpaceOnUse" x1="191.0461" y1="19.2629" x2="67.0287" y2="125.8354">
			<stop  offset="0" style="stop-color:#EE1B25;stop-opacity:0.4"/>
			<stop  offset="0.2576" style="stop-color:#F42425;stop-opacity:0.6724"/>
			<stop  offset="0.5674" style="stop-color:#FF3624"/>
			<stop  offset="0.8652" style="stop-color:#EE2E25"/>
			<stop  offset="0.9962" style="stop-color:#EE1B25"/>
		</linearGradient>
		<path fill="url(#SVGID_3_)" d="M149.051,15.779c18.536,0,29.144,10.393,29.144,26.68v25.715c0,16.501-10.607,26.895-29.144,26.895
			c-18.644,0-29.358-10.394-29.358-26.895V42.459C119.693,26.172,130.408,15.779,149.051,15.779z M149.051,31.744
			c-7.607,0-12.001,3.643-12.001,10.5v26.251c0,6.857,4.394,10.607,12.001,10.607c7.393,0,11.786-3.75,11.786-10.607V42.244
			C160.837,35.387,156.444,31.744,149.051,31.744z"/>
	</g>
	<g display="inline">
		<path fill="#FFFFFF" d="M107.012,23.076c-0.086-1.475-0.656-2.999-1.894-3.713c-0.579-0.388-1.272-0.602-1.983-0.68
			c-0.703-0.074-1.465-0.038-2.208-0.047h-8.955h-8.955h-4.477l-4.477-0.25l4.477-0.25h4.477h8.955h8.955
			c0.747,0.01,1.484-0.03,2.265,0.05c0.765,0.092,1.548,0.308,2.208,0.762C106.724,19.928,107.13,21.616,107.012,23.076z"/>
	</g>
	<g display="inline" opacity="0.41">
		<path fill="#FFFFFF" d="M107.012,23.076c-0.086-1.475-0.656-2.999-1.894-3.713c-0.579-0.388-1.272-0.602-1.983-0.68
			c-0.703-0.074-1.465-0.038-2.208-0.047h-8.955h-8.955h-4.477l-4.477-0.25l4.477-0.25h4.477h8.955h8.955
			c0.747,0.01,1.484-0.03,2.265,0.05c0.765,0.092,1.548,0.308,2.208,0.762C106.724,19.928,107.13,21.616,107.012,23.076z"/>
	</g>
	<g display="inline">
		<path fill="#FFFFFF" d="M41.52,23.275c-0.055-1.142-0.106-2.353-0.668-3.332c-0.554-1.009-1.753-1.328-2.864-1.336
			c-1.14,0.001-2.312,0.076-3.467,0.037c-1.159-0.046-2.318-0.082-3.477-0.225c-0.014-0.002-0.024-0.014-0.022-0.028
			c0.001-0.012,0.011-0.021,0.022-0.022c1.159-0.143,2.318-0.179,3.477-0.225c1.163-0.027,2.309,0.01,3.486,0.063
			c0.59,0.044,1.192,0.137,1.749,0.389c0.558,0.245,1.037,0.688,1.314,1.225c0.541,1.096,0.506,2.304,0.499,3.453
			c0,0.014-0.011,0.025-0.025,0.025C41.531,23.299,41.52,23.288,41.52,23.275z"/>
	</g>
	<g display="inline">
		<path fill="#FFFFFF" d="M41.52,23.275c-0.055-1.142-0.106-2.353-0.668-3.332c-0.554-1.009-1.753-1.328-2.864-1.336
			c-1.14,0.001-2.312,0.076-3.467,0.037c-1.159-0.046-2.318-0.082-3.477-0.225c-0.014-0.002-0.024-0.014-0.022-0.028
			c0.001-0.012,0.011-0.021,0.022-0.022c1.159-0.143,2.318-0.179,3.477-0.225c1.163-0.027,2.309,0.01,3.486,0.063
			c0.59,0.044,1.192,0.137,1.749,0.389c0.558,0.245,1.037,0.688,1.314,1.225c0.541,1.096,0.506,2.304,0.499,3.453
			c0,0.014-0.011,0.025-0.025,0.025C41.531,23.299,41.52,23.288,41.52,23.275z"/>
	</g>
	<g display="inline">
		<path fill="#FFFFFF" d="M148.051,16.754c4.173,0.005,8.4,0.37,12.408,1.648c4.008,1.223,7.765,3.47,10.534,6.672
			c2.818,3.174,4.503,7.201,5.396,11.3c0.842,4.13,0.99,8.351,0.831,12.526c0,0.014-0.012,0.025-0.026,0.024
			c-0.013,0-0.024-0.011-0.024-0.024c-0.135-4.174-0.285-8.372-1.269-12.419c-0.898-4.037-2.514-7.983-5.211-11.147
			c-2.678-3.172-6.347-5.435-10.308-6.695c-3.954-1.332-8.163-1.765-12.331-1.836c-0.014,0-0.025-0.011-0.025-0.025
			C148.026,16.765,148.038,16.754,148.051,16.754z"/>
	</g>
	<g display="inline" opacity="0.59">
		<path fill="#FFFFFF" d="M148.051,16.754c4.173,0.005,8.4,0.37,12.408,1.648c4.008,1.223,7.765,3.47,10.534,6.672
			c2.818,3.174,4.503,7.201,5.396,11.3c0.842,4.13,0.99,8.351,0.831,12.526c0,0.014-0.012,0.025-0.026,0.024
			c-0.013,0-0.024-0.011-0.024-0.024c-0.135-4.174-0.285-8.372-1.269-12.419c-0.898-4.037-2.514-7.983-5.211-11.147
			c-2.678-3.172-6.347-5.435-10.308-6.695c-3.954-1.332-8.163-1.765-12.331-1.836c-0.014,0-0.025-0.011-0.025-0.025
			C148.026,16.765,148.038,16.754,148.051,16.754z"/>
	</g>
	<g display="inline">
		<path fill="#EE1B25" d="M14.264,91.665L14.264,91.665c-0.454,0.454-1.191,0.454-1.645,0l-5.532-5.532
			c-0.454-0.454-0.454-1.191,0-1.645l0,0c0.454-0.454,1.191-0.454,1.645,0l5.532,5.532C14.718,90.474,14.718,91.211,14.264,91.665z"
			/>
		<path fill="#EE1B25" d="M7.087,91.665L7.087,91.665c-0.454-0.454-0.454-1.191,0-1.645l5.532-5.532
			c0.454-0.454,1.191-0.454,1.645,0l0,0c0.454,0.454,0.454,1.191,0,1.645l-5.532,5.532C8.278,92.119,7.541,92.119,7.087,91.665z"/>
	</g>
	<g display="inline">
		<path fill="#EE1B25" d="M17.287,61.599L17.287,61.599c-0.225,0.225-0.59,0.225-0.815,0l-2.743-2.743
			c-0.225-0.225-0.225-0.59,0-0.815h0c0.225-0.225,0.59-0.225,0.815,0l2.743,2.743C17.512,61.008,17.512,61.374,17.287,61.599z"/>
		<path fill="#EE1B25" d="M13.729,61.599L13.729,61.599c-0.225-0.225-0.225-0.59,0-0.815l2.743-2.743
			c0.225-0.225,0.59-0.225,0.815,0h0c0.225,0.225,0.225,0.59,0,0.815l-2.743,2.743C14.319,61.824,13.954,61.824,13.729,61.599z"/>
	</g>
	<g display="inline">
		<path fill="#EE1B25" d="M2.726,78.647L2.726,78.647c-0.608,0.608-1.595,0.608-2.203,0l-7.41-7.41
			c-0.608-0.608-0.608-1.595,0-2.203l0,0c0.608-0.608,1.595-0.608,2.203,0l7.41,7.41C3.335,77.052,3.335,78.038,2.726,78.647z"/>
		<path fill="#EE1B25" d="M-6.886,78.647L-6.886,78.647c-0.608-0.608-0.608-1.595,0-2.203l7.41-7.41
			c0.608-0.608,1.595-0.608,2.203,0l0,0c0.608,0.608,0.608,1.595,0,2.203l-7.41,7.41C-5.292,79.255-6.278,79.255-6.886,78.647z"/>
	</g>
	<g display="inline">
		<path fill="#EE1B25" d="M15.422,75.739L15.422,75.739c-0.115,0.115-0.301,0.115-0.415,0l-1.397-1.397
			c-0.115-0.115-0.115-0.301,0-0.415l0,0c0.115-0.115,0.301-0.115,0.415,0l1.397,1.397C15.537,75.438,15.537,75.624,15.422,75.739z"
			/>
		<path fill="#EE1B25" d="M13.61,75.739L13.61,75.739c-0.115-0.115-0.115-0.301,0-0.415l1.397-1.397
			c0.115-0.115,0.301-0.115,0.415,0l0,0c0.115,0.115,0.115,0.301,0,0.415l-1.397,1.397C13.91,75.853,13.725,75.853,13.61,75.739z"/>
	</g>
</g>
<g>
	<g>
		<g>
			<g>
				<linearGradient id="SVGID_4_" gradientUnits="userSpaceOnUse" x1="87.18" y1="-43.9349" x2="-4.1678" y2="107.0427">
					<stop  offset="0" style="stop-color:#EE1B25;stop-opacity:0.4"/>
					<stop  offset="0.2576" style="stop-color:#F42425;stop-opacity:0.6724"/>
					<stop  offset="0.5674" style="stop-color:#FF3624"/>
					<stop  offset="0.8652" style="stop-color:#EE2E25"/>
					<stop  offset="0.9962" style="stop-color:#EE1B25"/>
				</linearGradient>
				<path fill="url(#SVGID_4_)" d="M42.545,21.779v67.289c0,3.321-1.179,4.393-4.393,4.393h-8.679c-3.214,0-4.393-1.071-4.393-4.393
					V38.815l-10.394,5.893c-3.321,1.929-5.143,1.179-6.643-1.714l-3.75-6.75c-1.5-2.786-0.75-4.179,2.143-5.893L25.83,19.1
					c2.357-1.393,3.536-1.714,6.214-1.714h6.107C41.366,17.386,42.545,18.458,42.545,21.779z"/>
				<linearGradient id="SVGID_5_" gradientUnits="userSpaceOnUse" x1="129.0226" y1="-18.6184" x2="37.6748" y2="132.3593">
					<stop  offset="0" style="stop-color:#EE1B25;stop-opacity:0.4"/>
					<stop  offset="0.2576" style="stop-color:#F42425;stop-opacity:0.6724"/>
					<stop  offset="0.5674" style="stop-color:#FF3624"/>
					<stop  offset="0.8652" style="stop-color:#EE2E25"/>
					<stop  offset="0.9962" style="stop-color:#EE1B25"/>
				</linearGradient>
				<path fill="url(#SVGID_5_)" d="M84.333,15.779c18.536,0,29.144,10.393,29.144,26.68v25.715
					c0,16.501-10.607,26.895-29.144,26.895c-18.644,0-29.358-10.394-29.358-26.895V42.459
					C54.974,26.172,65.689,15.779,84.333,15.779z M84.333,31.744c-7.607,0-12.001,3.643-12.001,10.5v26.251
					c0,6.857,4.394,10.607,12.001,10.607c7.393,0,11.786-3.75,11.786-10.607V42.244C96.119,35.387,91.725,31.744,84.333,31.744z"/>
				<linearGradient id="SVGID_6_" gradientUnits="userSpaceOnUse" x1="172.0489" y1="7.4143" x2="80.701" y2="158.392">
					<stop  offset="0" style="stop-color:#EE1B25;stop-opacity:0.4"/>
					<stop  offset="0.2576" style="stop-color:#F42425;stop-opacity:0.6724"/>
					<stop  offset="0.5674" style="stop-color:#FF3624"/>
					<stop  offset="0.8652" style="stop-color:#EE2E25"/>
					<stop  offset="0.9962" style="stop-color:#EE1B25"/>
				</linearGradient>
				<path fill="url(#SVGID_6_)" d="M158.482,21.779v67.289c0,3.321-1.179,4.393-4.393,4.393h-8.68c-3.214,0-4.393-1.071-4.393-4.393
					V38.815l-10.394,5.893c-3.321,1.929-5.143,1.179-6.643-1.714l-3.751-6.75c-1.5-2.786-0.75-4.179,2.144-5.893l19.394-11.25
					c2.357-1.393,3.536-1.714,6.215-1.714h6.107C157.303,17.386,158.482,18.458,158.482,21.779z"/>
			</g>
			<g>
				<path fill="#FFFFFF" d="M41.52,23.275c-0.055-1.142-0.106-2.353-0.668-3.332c-0.554-1.009-1.753-1.328-2.864-1.336
					c-1.14,0.001-2.312,0.076-3.467,0.037c-1.159-0.046-2.318-0.082-3.477-0.225c-0.014-0.002-0.024-0.014-0.022-0.028
					c0.001-0.012,0.011-0.021,0.022-0.022c1.159-0.143,2.318-0.179,3.477-0.225c1.163-0.027,2.309,0.01,3.486,0.063
					c0.59,0.044,1.192,0.137,1.749,0.389c0.558,0.245,1.037,0.688,1.314,1.225c0.541,1.096,0.506,2.304,0.499,3.453
					c0,0.014-0.011,0.025-0.025,0.025C41.531,23.299,41.52,23.288,41.52,23.275z"/>
			</g>
			<g opacity="0.5">
				<path fill="#FFFFFF" d="M41.52,23.275c-0.055-1.142-0.106-2.353-0.668-3.332c-0.554-1.009-1.753-1.328-2.864-1.336
					c-1.14,0.001-2.312,0.076-3.467,0.037c-1.159-0.046-2.318-0.082-3.477-0.225c-0.014-0.002-0.024-0.014-0.022-0.028
					c0.001-0.012,0.011-0.021,0.022-0.022c1.159-0.143,2.318-0.179,3.477-0.225c1.163-0.027,2.309,0.01,3.486,0.063
					c0.59,0.044,1.192,0.137,1.749,0.389c0.558,0.245,1.037,0.688,1.314,1.225c0.541,1.096,0.506,2.304,0.499,3.453
					c0,0.014-0.011,0.025-0.025,0.025C41.531,23.299,41.52,23.288,41.52,23.275z"/>
			</g>
			<g opacity="0.5">
				<path fill="#FFFFFF" d="M157.396,23.275c-0.055-1.142-0.106-2.353-0.668-3.332c-0.554-1.009-1.753-1.328-2.864-1.336
					c-1.14,0.001-2.312,0.076-3.467,0.037c-1.159-0.046-2.318-0.082-3.477-0.225c-0.014-0.002-0.024-0.014-0.022-0.028
					c0.001-0.012,0.011-0.021,0.022-0.022c1.159-0.143,2.318-0.179,3.477-0.225c1.163-0.027,2.309,0.01,3.486,0.063
					c0.59,0.044,1.192,0.137,1.749,0.389c0.558,0.245,1.037,0.688,1.314,1.225c0.541,1.096,0.506,2.304,0.499,3.453
					c0,0.014-0.011,0.025-0.025,0.025C157.407,23.299,157.397,23.288,157.396,23.275z"/>
			</g>
			<g>
				<path fill="#FFFFFF" d="M157.396,23.275c-0.055-1.142-0.106-2.353-0.668-3.332c-0.554-1.009-1.753-1.328-2.864-1.336
					c-1.14,0.001-2.312,0.076-3.467,0.037c-1.159-0.046-2.318-0.082-3.477-0.225c-0.014-0.002-0.024-0.014-0.022-0.028
					c0.001-0.012,0.011-0.021,0.022-0.022c1.159-0.143,2.318-0.179,3.477-0.225c1.163-0.027,2.309,0.01,3.486,0.063
					c0.59,0.044,1.192,0.137,1.749,0.389c0.558,0.245,1.037,0.688,1.314,1.225c0.541,1.096,0.506,2.304,0.499,3.453
					c0,0.014-0.011,0.025-0.025,0.025C157.407,23.299,157.397,23.288,157.396,23.275z"/>
			</g>
			<g opacity="0.59">
				<path fill="#FFFFFF" d="M82.867,16.754c4.173,0.005,8.4,0.37,12.408,1.648c4.008,1.223,7.765,3.47,10.534,6.672
					c2.818,3.174,4.503,7.201,5.396,11.3c0.842,4.13,0.99,8.351,0.831,12.526c0,0.014-0.012,0.025-0.026,0.024
					c-0.013,0-0.024-0.011-0.024-0.024c-0.135-4.174-0.285-8.372-1.269-12.419c-0.898-4.037-2.513-7.983-5.211-11.147
					c-2.678-3.172-6.347-5.435-10.308-6.695c-3.954-1.332-8.163-1.765-12.331-1.836c-0.014,0-0.025-0.011-0.025-0.025
					C82.842,16.765,82.854,16.754,82.867,16.754z"/>
			</g>
			<g opacity="0.59">
				<path fill="#FFFFFF" d="M82.867,16.754c4.173,0.005,8.4,0.37,12.408,1.648c4.008,1.223,7.765,3.47,10.534,6.672
					c2.818,3.174,4.503,7.201,5.396,11.3c0.842,4.13,0.99,8.351,0.831,12.526c0,0.014-0.012,0.025-0.026,0.024
					c-0.013,0-0.024-0.011-0.024-0.024c-0.135-4.174-0.285-8.372-1.269-12.419c-0.898-4.037-2.513-7.983-5.211-11.147
					c-2.678-3.172-6.347-5.435-10.308-6.695c-3.954-1.332-8.163-1.765-12.331-1.836c-0.014,0-0.025-0.011-0.025-0.025
					C82.842,16.765,82.854,16.754,82.867,16.754z"/>
			</g>
		</g>
	</g>
	<g>
		<path fill="#EE1B25" d="M148.803,5.009L148.803,5.009c0.282-0.449,0.874-0.585,1.323-0.303l5.469,3.431
			c0.449,0.282,0.585,0.874,0.303,1.323v0c-0.282,0.449-0.874,0.585-1.323,0.303l-5.469-3.431
			C148.657,6.05,148.522,5.458,148.803,5.009z"/>
		<path fill="#EE1B25" d="M154.576,3.687L154.576,3.687c0.449,0.282,0.585,0.874,0.303,1.323l-3.431,5.469
			c-0.282,0.449-0.874,0.585-1.323,0.303v0c-0.449-0.282-0.585-0.874-0.303-1.323l3.431-5.469
			C153.535,3.541,154.127,3.405,154.576,3.687z"/>
	</g>
	<g>
		<path fill="#EE1B25" d="M161.398,26.636L161.398,26.636c0.169-0.27,0.525-0.351,0.795-0.182l3.286,2.061
			c0.27,0.169,0.351,0.525,0.182,0.795v0c-0.169,0.27-0.525,0.351-0.795,0.182l-3.286-2.061
			C161.31,27.262,161.229,26.906,161.398,26.636z"/>
		<path fill="#EE1B25" d="M164.866,25.842L164.866,25.842c0.27,0.169,0.351,0.525,0.182,0.795l-2.061,3.286
			c-0.169,0.27-0.525,0.351-0.795,0.182l0,0c-0.27-0.169-0.351-0.525-0.182-0.795l2.061-3.286
			C164.241,25.754,164.597,25.673,164.866,25.842z"/>
	</g>
	<g>
		<path fill="#EE1B25" d="M162.871,4.396L162.871,4.396c0.457-0.729,1.419-0.949,2.147-0.492l8.877,5.569
			c0.729,0.457,0.949,1.419,0.492,2.147v0c-0.457,0.729-1.419,0.949-2.147,0.492l-8.877-5.569
			C162.634,6.086,162.414,5.125,162.871,4.396z"/>
		<path fill="#EE1B25" d="M172.241,2.251L172.241,2.251c0.729,0.457,0.949,1.419,0.492,2.147l-5.569,8.877
			c-0.457,0.729-1.419,0.949-2.147,0.492v0c-0.729-0.457-0.949-1.419-0.492-2.147l5.569-8.877
			C170.551,2.014,171.512,1.793,172.241,2.251z"/>
	</g>
	<g>
		<path fill="#EE1B25" d="M162.291,17.355L162.291,17.355c0.062-0.098,0.192-0.128,0.29-0.066l1.199,0.752
			c0.098,0.062,0.128,0.192,0.066,0.29l0,0c-0.062,0.098-0.192,0.128-0.29,0.066l-1.199-0.752
			C162.259,17.583,162.229,17.453,162.291,17.355z"/>
		<path fill="#EE1B25" d="M163.556,17.065L163.556,17.065c0.098,0.062,0.128,0.192,0.066,0.29l-0.752,1.199
			c-0.062,0.098-0.192,0.128-0.29,0.066l0,0c-0.098-0.062-0.128-0.192-0.066-0.29l0.752-1.199
			C163.328,17.033,163.458,17.003,163.556,17.065z"/>
	</g>
</g>
<g display="none">
	<g display="inline">
		<g>
			<linearGradient id="SVGID_7_" gradientUnits="userSpaceOnUse" x1="-4.4204" y1="-27.9157" x2="-32.9666" y2="110.0576">
				<stop  offset="0" style="stop-color:#EE1B25;stop-opacity:0.4"/>
				<stop  offset="0.2576" style="stop-color:#F42425;stop-opacity:0.6724"/>
				<stop  offset="0.5674" style="stop-color:#FF3624"/>
				<stop  offset="0.8652" style="stop-color:#EE2E25"/>
				<stop  offset="0.9962" style="stop-color:#EE1B25"/>
			</linearGradient>
			<path fill="url(#SVGID_7_)" d="M-22.489,65.71c-19.715,0-28.823-8.357-28.823-24.858c0-15.644,11.25-25.072,29.894-25.072
				c19.5,0,29.894,10.715,29.894,28.501v22.287c0,17.786-10.5,28.501-29.894,28.501c-15.322,0-24.43-6-28.715-17.144
				c-1.179-3-0.321-4.394,2.679-5.572l7.822-2.893c3-1.179,4.179-0.321,5.572,2.786c1.801,4.303,5.378,6.55,11.255,6.828
				c7.604,0.36,13.925-5.832,13.925-13.445v0c0-0.618-0.556-1.081-1.162-0.963C-12.888,65.219-16.87,65.71-22.489,65.71z
				 M-21.417,31.529c-8.464,0-12.536,3.214-12.536,9.215c0,6.107,3.322,9.214,12.536,9.214c6.154,0,9.966-0.836,11.879-1.475
				c0.397-0.133,0.658-0.509,0.658-0.928l0-4.133C-8.881,35.601-13.06,31.529-21.417,31.529z"/>
			<linearGradient id="SVGID_8_" gradientUnits="userSpaceOnUse" x1="64.9506" y1="-12.904" x2="36.6745" y2="123.7641">
				<stop  offset="0" style="stop-color:#EE1B25;stop-opacity:0.4"/>
				<stop  offset="0.2576" style="stop-color:#F42425;stop-opacity:0.6724"/>
				<stop  offset="0.5674" style="stop-color:#FF3624"/>
				<stop  offset="0.8652" style="stop-color:#EE2E25"/>
				<stop  offset="0.9962" style="stop-color:#EE1B25"/>
			</linearGradient>
			<path fill="url(#SVGID_8_)" d="M80.16,67.102v6c0,3.215-1.071,4.394-4.394,4.394h-4.694c-0.721,0-1.306,0.585-1.306,1.306v8.96
				c0,3.147-2.551,5.699-5.699,5.699h-4.889c-3.147,0-5.699-2.551-5.699-5.699v-8.96c0-0.721-0.585-1.306-1.306-1.306H19.836
				c-3.321,0-4.393-1.179-4.393-4.394v-5.356c0-3.001,0.214-3.857,1.821-5.68l33.858-41.573c2.036-2.464,3.215-3.107,6.321-3.107
				h6.624c3.147,0,5.699,2.551,5.699,5.699v38.319c0,0.721,0.585,1.306,1.306,1.306h4.694C79.089,62.71,80.16,63.888,80.16,67.102z
				 M37.703,62.71h14.471c0.721,0,1.306-0.585,1.306-1.306v-17.65c0-1.227-1.538-1.777-2.316-0.828l-14.471,17.65
				C35.994,61.428,36.601,62.71,37.703,62.71z"/>
			<linearGradient id="SVGID_9_" gradientUnits="userSpaceOnUse" x1="127.9242" y1="-0.534" x2="99.378" y2="137.4393">
				<stop  offset="0" style="stop-color:#EE1B25;stop-opacity:0.4"/>
				<stop  offset="0.2576" style="stop-color:#F42425;stop-opacity:0.6724"/>
				<stop  offset="0.5674" style="stop-color:#FF3624"/>
				<stop  offset="0.8652" style="stop-color:#EE2E25"/>
				<stop  offset="0.9962" style="stop-color:#EE1B25"/>
			</linearGradient>
			<path fill="url(#SVGID_9_)" d="M115.521,65.71c-19.715,0-28.822-8.357-28.822-24.858c0-15.644,11.25-25.072,29.895-25.072
				c19.5,0,29.893,10.715,29.893,28.501v22.287c0,17.786-10.5,28.501-29.893,28.501c-15.322,0-24.43-6-28.717-17.144
				c-1.178-3-0.32-4.394,2.68-5.572l7.82-2.893c3.002-1.179,4.18-0.321,5.572,2.786c1.802,4.303,5.377,6.549,11.253,6.828
				c7.605,0.36,13.927-5.831,13.927-13.445v0c0-0.617-0.555-1.081-1.161-0.963C125.122,65.219,121.141,65.71,115.521,65.71z
				 M116.593,31.529c-8.465,0-12.537,3.214-12.537,9.215c0,6.107,3.322,9.214,12.537,9.214c6.153,0,9.965-0.837,11.877-1.475
				c0.397-0.133,0.658-0.509,0.658-0.927l0-4.133C129.129,35.601,124.951,31.529,116.593,31.529z"/>
			<linearGradient id="SVGID_10_" gradientUnits="userSpaceOnUse" x1="193.3642" y1="13.0053" x2="164.818" y2="150.9786">
				<stop  offset="0" style="stop-color:#EE1B25;stop-opacity:0.4"/>
				<stop  offset="0.2576" style="stop-color:#F42425;stop-opacity:0.6724"/>
				<stop  offset="0.5674" style="stop-color:#FF3624"/>
				<stop  offset="0.8652" style="stop-color:#EE2E25"/>
				<stop  offset="0.9962" style="stop-color:#EE1B25"/>
			</linearGradient>
			<path fill="url(#SVGID_10_)" d="M204.23,53.104c-0.332,0.235-0.308,0.72,0.046,0.921c6.725,3.815,9.609,10.244,9.609,17.47
				c0,14.144-9.215,23.572-28.393,23.572c-16.502,0-25.824-6.429-30.109-18.001c-1.072-3-0.322-4.5,2.68-5.571l8.035-2.894
				c3-1.071,4.285-0.429,5.572,2.786c2.035,5.25,5.035,7.929,13.285,7.929c7.395,0,10.715-3.107,10.715-8.357
				c0-5.786-3-8.357-9-8.357h-8.465c-3.322,0-4.393-1.071-4.393-4.286v-6.099c0-2.727,2.211-4.937,4.937-4.937l6.521,0
				c5.32,0,9.565-4.824,8.471-10.03c-0.81-3.858-3.925-5.721-9.215-5.721c-7.822,0-10.287,2.679-12.322,7.929
				c-1.285,3.214-2.465,3.643-5.572,2.786l-8.035-2.893c-3-1.071-3.75-2.571-2.68-5.572c4.287-11.572,13.072-18,29.574-18
				c16.607,0,26.035,8.464,26.035,21.965C211.527,44.381,209.095,49.656,204.23,53.104z"/>
		</g>
		<g opacity="0.5">
			<path fill="#FFFFFF" d="M-22.417,16.754l2.936,0.103l1.469,0.052c0.487,0.049,0.972,0.124,1.458,0.185
				c0.969,0.14,1.95,0.228,2.912,0.412l2.863,0.691c3.762,1.106,7.36,2.933,10.265,5.619c2.927,2.655,5.087,6.113,6.381,9.84
				c1.208,3.758,1.751,7.708,1.636,11.625c0,0.014-0.012,0.025-0.026,0.024c-0.013,0-0.024-0.011-0.024-0.024
				c-0.179-3.903-0.72-7.805-2.057-11.459c-1.288-3.655-3.366-7.045-6.182-9.713c-2.819-2.674-6.345-4.526-10.063-5.671
				l-2.832-0.735c-0.954-0.199-1.927-0.303-2.891-0.459c-0.483-0.069-0.966-0.151-1.45-0.209l-1.464-0.076l-2.93-0.153
				c-0.014,0-0.025-0.01-0.026-0.024C-22.444,16.766-22.431,16.755-22.417,16.754z"/>
		</g>
		<g opacity="0.5">
			<path fill="#FFFFFF" d="M-22.417,16.754l2.936,0.103l1.469,0.052c0.487,0.049,0.972,0.124,1.458,0.185
				c0.969,0.14,1.95,0.228,2.912,0.412l2.863,0.691c3.762,1.106,7.36,2.933,10.265,5.619c2.927,2.655,5.087,6.113,6.381,9.84
				c1.208,3.758,1.751,7.708,1.636,11.625c0,0.014-0.012,0.025-0.026,0.024c-0.013,0-0.024-0.011-0.024-0.024
				c-0.179-3.903-0.72-7.805-2.057-11.459c-1.288-3.655-3.366-7.045-6.182-9.713c-2.819-2.674-6.345-4.526-10.063-5.671
				l-2.832-0.735c-0.954-0.199-1.927-0.303-2.891-0.459c-0.483-0.069-0.966-0.151-1.45-0.209l-1.464-0.076l-2.93-0.153
				c-0.014,0-0.025-0.01-0.026-0.024C-22.444,16.766-22.431,16.755-22.417,16.754z"/>
		</g>
		<g opacity="0.5">
			<path fill="#FFFFFF" d="M115.583,16.754l2.936,0.103l1.469,0.052c0.487,0.049,0.972,0.124,1.458,0.185
				c0.969,0.14,1.95,0.228,2.912,0.412l2.863,0.691c3.762,1.106,7.36,2.933,10.265,5.619c2.927,2.655,5.087,6.113,6.381,9.84
				c1.208,3.758,1.751,7.708,1.636,11.625c0,0.014-0.012,0.025-0.026,0.024c-0.013,0-0.024-0.011-0.024-0.024
				c-0.179-3.903-0.72-7.805-2.057-11.459c-1.288-3.655-3.366-7.045-6.182-9.713c-2.819-2.674-6.345-4.526-10.063-5.671
				l-2.832-0.735c-0.954-0.199-1.927-0.303-2.891-0.459c-0.483-0.069-0.966-0.151-1.45-0.209l-1.464-0.076l-2.93-0.153
				c-0.014,0-0.025-0.01-0.026-0.024C115.556,16.766,115.569,16.755,115.583,16.754z"/>
		</g>
		<g opacity="0.5">
			<path fill="#FFFFFF" d="M115.583,16.754l2.936,0.103l1.469,0.052c0.487,0.049,0.972,0.124,1.458,0.185
				c0.969,0.14,1.95,0.228,2.912,0.412l2.863,0.691c3.762,1.106,7.36,2.933,10.265,5.619c2.927,2.655,5.087,6.113,6.381,9.84
				c1.208,3.758,1.751,7.708,1.636,11.625c0,0.014-0.012,0.025-0.026,0.024c-0.013,0-0.024-0.011-0.024-0.024
				c-0.179-3.903-0.72-7.805-2.057-11.459c-1.288-3.655-3.366-7.045-6.182-9.713c-2.819-2.674-6.345-4.526-10.063-5.671
				l-2.832-0.735c-0.954-0.199-1.927-0.303-2.891-0.459c-0.483-0.069-0.966-0.151-1.45-0.209l-1.464-0.076l-2.93-0.153
				c-0.014,0-0.025-0.01-0.026-0.024C115.556,16.766,115.569,16.755,115.583,16.754z"/>
		</g>
		<g opacity="0.5">
			<path fill="#FFFFFF" d="M64.374,18.361c0.606-0.013,1.223-0.028,1.833,0.1c0.604,0.123,1.217,0.354,1.709,0.788
				c0.493,0.422,0.858,1.033,0.951,1.668c0.09,0.636,0.066,1.258-0.076,1.863c-0.003,0.014-0.017,0.022-0.031,0.019
				c-0.01-0.002-0.017-0.01-0.019-0.019c-0.144-0.605-0.197-1.203-0.363-1.755c-0.144-0.551-0.347-1.076-0.738-1.486
				c-0.805-0.814-2.081-1.042-3.267-1.127c-0.014,0-0.025-0.012-0.024-0.026C64.35,18.372,64.361,18.362,64.374,18.361z"/>
		</g>
		<g opacity="0.5">
			<path fill="#FFFFFF" d="M64.374,18.361c0.606-0.013,1.223-0.028,1.833,0.1c0.604,0.123,1.217,0.354,1.709,0.788
				c0.493,0.422,0.858,1.033,0.951,1.668c0.09,0.636,0.066,1.258-0.076,1.863c-0.003,0.014-0.017,0.022-0.031,0.019
				c-0.01-0.002-0.017-0.01-0.019-0.019c-0.144-0.605-0.197-1.203-0.363-1.755c-0.144-0.551-0.347-1.076-0.738-1.486
				c-0.805-0.814-2.081-1.042-3.267-1.127c-0.014,0-0.025-0.012-0.024-0.026C64.35,18.372,64.361,18.362,64.374,18.361z"/>
		</g>
		<g>
			<path fill="#FFFFFF" d="M184.492,16.754c1.603,0.075,3.216,0.071,4.816,0.211l2.392,0.327c0.398,0.06,0.801,0.096,1.195,0.177
				l1.172,0.297c3.154,0.667,6.17,2.039,8.769,3.964l0.978,0.725l0.875,0.848l0.875,0.85l0.764,0.95l0.746,0.965l0.632,1.044
				c0.452,0.68,0.78,1.424,1.12,2.163c1.291,2.984,1.839,6.257,1.727,9.469c0,0.014-0.012,0.025-0.026,0.024
				c-0.013,0-0.023-0.011-0.024-0.024c-0.174-3.197-0.791-6.386-2.135-9.268c-1.286-2.897-3.266-5.481-5.775-7.429
				c-2.516-1.926-5.468-3.33-8.587-4.039l-1.157-0.319c-0.39-0.089-0.789-0.132-1.183-0.2l-2.374-0.374
				c-1.591-0.173-3.199-0.202-4.801-0.311c-0.014,0.001-0.026-0.01-0.026-0.024C184.465,16.766,184.478,16.755,184.492,16.754z"/>
		</g>
		<g>
			<path fill="#FFFFFF" d="M184.492,16.754c1.603,0.075,3.216,0.071,4.816,0.211l2.392,0.327c0.398,0.06,0.801,0.096,1.195,0.177
				l1.172,0.297c3.154,0.667,6.17,2.039,8.769,3.964l0.978,0.725l0.875,0.848l0.875,0.85l0.764,0.95l0.746,0.965l0.632,1.044
				c0.452,0.68,0.78,1.424,1.12,2.163c1.291,2.984,1.839,6.257,1.727,9.469c0,0.014-0.012,0.025-0.026,0.024
				c-0.013,0-0.023-0.011-0.024-0.024c-0.174-3.197-0.791-6.386-2.135-9.268c-1.286-2.897-3.266-5.481-5.775-7.429
				c-2.516-1.926-5.468-3.33-8.587-4.039l-1.157-0.319c-0.39-0.089-0.789-0.132-1.183-0.2l-2.374-0.374
				c-1.591-0.173-3.199-0.202-4.801-0.311c-0.014,0.001-0.026-0.01-0.026-0.024C184.465,16.766,184.478,16.755,184.492,16.754z"/>
		</g>
	</g>
	<g display="inline">
		<g>
			<path fill="#EE1B25" d="M7.678,9.254L7.678,9.254c0.387-0.617,1.2-0.803,1.817-0.416l7.512,4.713
				c0.617,0.387,0.803,1.2,0.416,1.817l0,0c-0.387,0.617-1.2,0.803-1.817,0.416l-7.512-4.713C7.478,10.685,7.291,9.871,7.678,9.254z
				"/>
			<path fill="#EE1B25" d="M15.608,7.439L15.608,7.439c0.617,0.387,0.803,1.2,0.416,1.817l-4.713,7.512
				c-0.387,0.617-1.2,0.803-1.817,0.416l0,0c-0.617-0.387-0.803-1.2-0.416-1.817l4.713-7.512
				C14.178,7.238,14.991,7.052,15.608,7.439z"/>
		</g>
		<g>
			<path fill="#EE1B25" d="M33.253,20.013l0.229-0.365c0.169-0.27,0.525-0.351,0.795-0.182l4.878,3.06
				c0.27,0.169,0.351,0.525,0.182,0.795l-0.229,0.365c-0.169,0.27-0.525,0.351-0.795,0.182l-4.878-3.06
				C33.165,20.639,33.084,20.283,33.253,20.013z"/>
			<path fill="#EE1B25" d="M37.949,18.626l0.365,0.229c0.27,0.169,0.351,0.525,0.182,0.795l-3.06,4.878
				c-0.169,0.27-0.525,0.351-0.795,0.182l-0.365-0.229c-0.27-0.169-0.351-0.525-0.182-0.795l3.06-4.878
				C37.324,18.538,37.679,18.456,37.949,18.626z"/>
		</g>
		<g>
			<path fill="#EE1B25" d="M26.692-2.464L27.31-3.45c0.457-0.729,1.419-0.949,2.147-0.492l13.179,8.268
				c0.729,0.457,0.949,1.419,0.492,2.147L42.51,7.459c-0.457,0.729-1.419,0.949-2.147,0.492L27.183-0.317
				C26.455-0.774,26.235-1.735,26.692-2.464z"/>
			<path fill="#EE1B25" d="M39.379-6.214l0.986,0.618c0.729,0.457,0.949,1.419,0.492,2.147L32.589,9.731
				c-0.457,0.729-1.419,0.949-2.147,0.492l-0.986-0.618c-0.729-0.457-0.949-1.419-0.492-2.147l8.268-13.179
				C37.689-6.451,38.65-6.671,39.379-6.214z"/>
		</g>
		<g>
			<path fill="#EE1B25" d="M13.282,27.238L13.282,27.238c0.33-0.527,1.025-0.686,1.552-0.355l6.415,4.024
				c0.527,0.33,0.686,1.025,0.355,1.552l0,0c-0.33,0.527-1.025,0.686-1.552,0.355l-6.415-4.024
				C13.11,28.459,12.951,27.764,13.282,27.238z"/>
			<path fill="#EE1B25" d="M20.053,25.687L20.053,25.687c0.527,0.33,0.686,1.025,0.355,1.552l-4.024,6.415
				c-0.33,0.527-1.025,0.686-1.552,0.355h0c-0.527-0.33-0.686-1.025-0.355-1.552l4.024-6.415
				C18.831,25.516,19.526,25.357,20.053,25.687z"/>
		</g>
	</g>
</g>
</svg>
