<?xml version="1.0" encoding="utf-8"?>
<!-- Generator: Adobe Illustrator 21.1.0, SVG Export Plug-In . SVG Version: 6.00 Build 0)  -->
<svg version="1.1" id="Layer_1" xmlns="http://www.w3.org/2000/svg" xmlns:xlink="http://www.w3.org/1999/xlink" x="0px" y="0px"
	 viewBox="0 0 265.196 103.315" enable-background="new 0 0 265.196 103.315" xml:space="preserve">
<g display="none">
	<g display="inline">
		<linearGradient id="SVGID_1_" gradientUnits="userSpaceOnUse" x1="192.1767" y1="-30.8853" x2="68.1594" y2="75.6871">
			<stop  offset="0" style="stop-color:#EE1B25;stop-opacity:0.4"/>
			<stop  offset="0.2576" style="stop-color:#F42425;stop-opacity:0.6724"/>
			<stop  offset="0.5674" style="stop-color:#FF3624"/>
			<stop  offset="0.8652" style="stop-color:#EE2E25"/>
			<stop  offset="0.9962" style="stop-color:#EE1B25"/>
		</linearGradient>
		<path fill="url(#SVGID_1_)" d="M93.856,30.026v67.289c0,3.321-1.179,4.393-4.393,4.393h-8.679c-3.214,0-4.393-1.071-4.393-4.393
			V47.062l-10.394,5.893c-3.321,1.929-5.143,1.179-6.643-1.714l-3.75-6.75c-1.5-2.786-0.75-4.179,2.143-5.893l19.394-11.25
			c2.357-1.393,3.536-1.714,6.214-1.714h6.107C92.677,25.632,93.856,26.704,93.856,30.026z"/>
		<linearGradient id="SVGID_2_" gradientUnits="userSpaceOnUse" x1="212.3431" y1="-6.1423" x2="89.041" y2="99.8156">
			<stop  offset="0" style="stop-color:#EE1B25;stop-opacity:0.1"/>
			<stop  offset="0.2576" style="stop-color:#F42425;stop-opacity:0.5087"/>
			<stop  offset="0.5674" style="stop-color:#FF3624"/>
			<stop  offset="0.8652" style="stop-color:#EE2E25"/>
			<stop  offset="0.9962" style="stop-color:#EE1B25"/>
		</linearGradient>
		<path fill="url(#SVGID_2_)" d="M159.324,30.026v7.071c0,2.426-1.967,4.393-4.393,4.393h-28.18l-1.071,11.25h9.857
			c18.536,0,26.894,11.144,26.894,24.858c0,14.036-9.964,25.716-27.751,25.716c-16.607,0-25.715-6.107-30.001-17.68
			c-1.071-3.107-0.321-4.5,2.679-5.571l8.25-3c3-1.071,4.286-0.536,5.572,2.679c1.929,4.929,5.464,7.607,13.071,7.607
			c5.692,0,9.828-3.215,9.962-9.745c0.107-5.225-4.306-9.434-9.532-9.434l-22.93,0c-3.75,0-4.821-1.607-4.5-5.036l3.215-31.287
			c0.429-4.714,2.143-6.215,6.965-6.215h37.501C157.357,25.632,159.324,27.6,159.324,30.026z"/>
		<linearGradient id="SVGID_3_" gradientUnits="userSpaceOnUse" x1="242.3575" y1="27.5096" x2="118.3402" y2="134.082">
			<stop  offset="0" style="stop-color:#EE1B25;stop-opacity:0.4"/>
			<stop  offset="0.2576" style="stop-color:#F42425;stop-opacity:0.6724"/>
			<stop  offset="0.5674" style="stop-color:#FF3624"/>
			<stop  offset="0.8652" style="stop-color:#EE2E25"/>
			<stop  offset="0.9962" style="stop-color:#EE1B25"/>
		</linearGradient>
		<path fill="url(#SVGID_3_)" d="M200.363,24.026c18.536,0,29.144,10.393,29.144,26.68V76.42c0,16.501-10.607,26.895-29.144,26.895
			c-18.644,0-29.358-10.394-29.358-26.895V50.705C171.004,34.419,181.719,24.026,200.363,24.026z M200.363,39.99
			c-7.607,0-12.001,3.643-12.001,10.5v26.251c0,6.857,4.394,10.607,12.001,10.607c7.393,0,11.786-3.75,11.786-10.607V50.491
			C212.149,43.633,207.755,39.99,200.363,39.99z"/>
	</g>
	<g display="inline">
		<path fill="#FFFFFF" d="M158.324,31.323c-0.086-1.475-0.656-2.999-1.894-3.713c-0.579-0.388-1.272-0.602-1.983-0.68
			c-0.703-0.074-1.465-0.038-2.208-0.047h-8.955h-8.955h-4.477l-4.477-0.25l4.477-0.25h4.477h8.955h8.955
			c0.747,0.01,1.484-0.03,2.265,0.05c0.765,0.092,1.548,0.308,2.208,0.762C158.035,28.174,158.441,29.863,158.324,31.323z"/>
	</g>
	<g display="inline" opacity="0.41">
		<path fill="#FFFFFF" d="M158.324,31.323c-0.086-1.475-0.656-2.999-1.894-3.713c-0.579-0.388-1.272-0.602-1.983-0.68
			c-0.703-0.074-1.465-0.038-2.208-0.047h-8.955h-8.955h-4.477l-4.477-0.25l4.477-0.25h4.477h8.955h8.955
			c0.747,0.01,1.484-0.03,2.265,0.05c0.765,0.092,1.548,0.308,2.208,0.762C158.035,28.174,158.441,29.863,158.324,31.323z"/>
	</g>
	<g display="inline">
		<path fill="#FFFFFF" d="M92.831,31.521c-0.055-1.142-0.106-2.353-0.668-3.332c-0.554-1.009-1.753-1.328-2.864-1.336
			c-1.14,0.001-2.312,0.076-3.467,0.037c-1.159-0.046-2.318-0.082-3.477-0.225c-0.014-0.002-0.024-0.014-0.022-0.028
			c0.001-0.012,0.011-0.021,0.022-0.022c1.159-0.143,2.318-0.179,3.477-0.225c1.163-0.027,2.309,0.01,3.486,0.063
			c0.59,0.044,1.192,0.137,1.749,0.389c0.558,0.245,1.037,0.688,1.314,1.225c0.541,1.096,0.506,2.304,0.499,3.453
			c0,0.014-0.011,0.025-0.025,0.025C92.842,31.546,92.832,31.535,92.831,31.521z"/>
	</g>
	<g display="inline">
		<path fill="#FFFFFF" d="M92.831,31.521c-0.055-1.142-0.106-2.353-0.668-3.332c-0.554-1.009-1.753-1.328-2.864-1.336
			c-1.14,0.001-2.312,0.076-3.467,0.037c-1.159-0.046-2.318-0.082-3.477-0.225c-0.014-0.002-0.024-0.014-0.022-0.028
			c0.001-0.012,0.011-0.021,0.022-0.022c1.159-0.143,2.318-0.179,3.477-0.225c1.163-0.027,2.309,0.01,3.486,0.063
			c0.59,0.044,1.192,0.137,1.749,0.389c0.558,0.245,1.037,0.688,1.314,1.225c0.541,1.096,0.506,2.304,0.499,3.453
			c0,0.014-0.011,0.025-0.025,0.025C92.842,31.546,92.832,31.535,92.831,31.521z"/>
	</g>
	<g display="inline">
		<path fill="#FFFFFF" d="M199.363,25.001c4.173,0.005,8.4,0.37,12.408,1.648c4.008,1.223,7.765,3.47,10.534,6.672
			c2.818,3.174,4.503,7.201,5.396,11.3c0.842,4.13,0.99,8.351,0.831,12.526c0,0.014-0.012,0.025-0.026,0.024
			c-0.013,0-0.024-0.011-0.024-0.024c-0.135-4.174-0.285-8.372-1.269-12.419c-0.898-4.037-2.514-7.983-5.211-11.147
			c-2.678-3.172-6.347-5.435-10.308-6.695c-3.954-1.332-8.163-1.765-12.331-1.836c-0.014,0-0.025-0.011-0.025-0.025
			C199.338,25.012,199.349,25.001,199.363,25.001z"/>
	</g>
	<g display="inline" opacity="0.59">
		<path fill="#FFFFFF" d="M199.363,25.001c4.173,0.005,8.4,0.37,12.408,1.648c4.008,1.223,7.765,3.47,10.534,6.672
			c2.818,3.174,4.503,7.201,5.396,11.3c0.842,4.13,0.99,8.351,0.831,12.526c0,0.014-0.012,0.025-0.026,0.024
			c-0.013,0-0.024-0.011-0.024-0.024c-0.135-4.174-0.285-8.372-1.269-12.419c-0.898-4.037-2.514-7.983-5.211-11.147
			c-2.678-3.172-6.347-5.435-10.308-6.695c-3.954-1.332-8.163-1.765-12.331-1.836c-0.014,0-0.025-0.011-0.025-0.025
			C199.338,25.012,199.349,25.001,199.363,25.001z"/>
	</g>
	<g display="inline">
		<path fill="#EE1B25" d="M65.576,99.911L65.576,99.911c-0.454,0.454-1.191,0.454-1.645,0l-5.532-5.532
			c-0.454-0.454-0.454-1.191,0-1.645l0,0c0.454-0.454,1.191-0.454,1.645,0l5.532,5.532C66.03,98.721,66.03,99.457,65.576,99.911z"/>
		<path fill="#EE1B25" d="M58.399,99.911L58.399,99.911c-0.454-0.454-0.454-1.191,0-1.645l5.532-5.532
			c0.454-0.454,1.191-0.454,1.645,0l0,0c0.454,0.454,0.454,1.191,0,1.645l-5.532,5.532C59.589,100.366,58.853,100.366,58.399,99.911
			z"/>
	</g>
	<g display="inline">
		<path fill="#EE1B25" d="M68.599,69.845L68.599,69.845c-0.225,0.225-0.59,0.225-0.815,0l-2.743-2.743
			c-0.225-0.225-0.225-0.59,0-0.815h0c0.225-0.225,0.59-0.225,0.815,0l2.743,2.743C68.824,69.255,68.824,69.62,68.599,69.845z"/>
		<path fill="#EE1B25" d="M65.04,69.845L65.04,69.845c-0.225-0.225-0.225-0.59,0-0.815l2.743-2.743c0.225-0.225,0.59-0.225,0.815,0
			l0,0c0.225,0.225,0.225,0.59,0,0.815l-2.743,2.743C65.631,70.071,65.266,70.071,65.04,69.845z"/>
	</g>
	<g display="inline">
		<path fill="#EE1B25" d="M54.038,86.893L54.038,86.893c-0.608,0.608-1.595,0.608-2.203,0l-7.41-7.41
			c-0.608-0.608-0.608-1.595,0-2.203h0c0.608-0.608,1.595-0.608,2.203,0l7.41,7.41C54.646,85.299,54.646,86.285,54.038,86.893z"/>
		<path fill="#EE1B25" d="M44.425,86.893L44.425,86.893c-0.608-0.608-0.608-1.595,0-2.203l7.41-7.41
			c0.608-0.608,1.595-0.608,2.203,0l0,0c0.608,0.608,0.608,1.595,0,2.203l-7.41,7.41C46.02,87.502,45.033,87.502,44.425,86.893z"/>
	</g>
	<g display="inline">
		<path fill="#EE1B25" d="M66.734,83.985L66.734,83.985c-0.115,0.115-0.301,0.115-0.415,0l-1.397-1.397
			c-0.115-0.115-0.115-0.301,0-0.415l0,0c0.115-0.115,0.301-0.115,0.415,0l1.397,1.397C66.848,83.685,66.848,83.871,66.734,83.985z"
			/>
		<path fill="#EE1B25" d="M64.921,83.985L64.921,83.985c-0.115-0.115-0.115-0.301,0-0.415l1.397-1.397
			c0.115-0.115,0.301-0.115,0.415,0l0,0c0.115,0.115,0.115,0.301,0,0.415l-1.397,1.397C65.222,84.1,65.036,84.1,64.921,83.985z"/>
	</g>
</g>
<g display="none">
	<g display="inline">
		<g>
			<g>
				<linearGradient id="SVGID_4_" gradientUnits="userSpaceOnUse" x1="138.4914" y1="-35.6883" x2="47.1436" y2="115.2894">
					<stop  offset="0" style="stop-color:#EE1B25;stop-opacity:0.4"/>
					<stop  offset="0.2576" style="stop-color:#F42425;stop-opacity:0.6724"/>
					<stop  offset="0.5674" style="stop-color:#FF3624"/>
					<stop  offset="0.8652" style="stop-color:#EE2E25"/>
					<stop  offset="0.9962" style="stop-color:#EE1B25"/>
				</linearGradient>
				<path fill="url(#SVGID_4_)" d="M93.856,30.026v67.289c0,3.321-1.179,4.393-4.393,4.393h-8.679c-3.214,0-4.393-1.071-4.393-4.393
					V47.062l-10.394,5.893c-3.321,1.929-5.143,1.179-6.643-1.714l-3.75-6.75c-1.5-2.786-0.75-4.179,2.143-5.893l19.394-11.25
					c2.357-1.393,3.536-1.714,6.214-1.714h6.107C92.677,25.632,93.856,26.704,93.856,30.026z"/>
				<linearGradient id="SVGID_5_" gradientUnits="userSpaceOnUse" x1="180.3341" y1="-10.3717" x2="88.9862" y2="140.6059">
					<stop  offset="0" style="stop-color:#EE1B25;stop-opacity:0.4"/>
					<stop  offset="0.2576" style="stop-color:#F42425;stop-opacity:0.6724"/>
					<stop  offset="0.5674" style="stop-color:#FF3624"/>
					<stop  offset="0.8652" style="stop-color:#EE2E25"/>
					<stop  offset="0.9962" style="stop-color:#EE1B25"/>
				</linearGradient>
				<path fill="url(#SVGID_5_)" d="M135.644,24.026c18.536,0,29.144,10.393,29.144,26.68V76.42
					c0,16.501-10.607,26.895-29.144,26.895c-18.644,0-29.358-10.394-29.358-26.895V50.705C106.286,34.419,117,24.026,135.644,24.026
					z M135.644,39.99c-7.607,0-12.001,3.643-12.001,10.5v26.251c0,6.857,4.394,10.607,12.001,10.607
					c7.393,0,11.786-3.75,11.786-10.607V50.491C147.43,43.633,143.037,39.99,135.644,39.99z"/>
				<linearGradient id="SVGID_6_" gradientUnits="userSpaceOnUse" x1="223.3603" y1="15.661" x2="132.0125" y2="166.6386">
					<stop  offset="0" style="stop-color:#EE1B25;stop-opacity:0.4"/>
					<stop  offset="0.2576" style="stop-color:#F42425;stop-opacity:0.6724"/>
					<stop  offset="0.5674" style="stop-color:#FF3624"/>
					<stop  offset="0.8652" style="stop-color:#EE2E25"/>
					<stop  offset="0.9962" style="stop-color:#EE1B25"/>
				</linearGradient>
				<path fill="url(#SVGID_6_)" d="M209.793,30.026v67.289c0,3.321-1.179,4.393-4.393,4.393h-8.68c-3.214,0-4.393-1.071-4.393-4.393
					V47.062l-10.394,5.893c-3.321,1.929-5.143,1.179-6.643-1.714l-3.751-6.75c-1.5-2.786-0.75-4.179,2.144-5.893l19.394-11.25
					c2.357-1.393,3.536-1.714,6.215-1.714h6.107C208.615,25.632,209.793,26.704,209.793,30.026z"/>
			</g>
			<g>
				<path fill="#FFFFFF" d="M92.831,31.521c-0.055-1.142-0.106-2.353-0.668-3.332c-0.554-1.009-1.753-1.328-2.864-1.336
					c-1.14,0.001-2.312,0.076-3.467,0.037c-1.159-0.046-2.318-0.082-3.477-0.225c-0.014-0.002-0.024-0.014-0.022-0.028
					c0.001-0.012,0.011-0.021,0.022-0.022c1.159-0.143,2.318-0.179,3.477-0.225c1.163-0.027,2.309,0.01,3.486,0.063
					c0.59,0.044,1.192,0.137,1.749,0.389c0.558,0.245,1.037,0.688,1.314,1.225c0.541,1.096,0.506,2.304,0.499,3.453
					c0,0.014-0.011,0.025-0.025,0.025C92.842,31.546,92.832,31.535,92.831,31.521z"/>
			</g>
			<g opacity="0.5">
				<path fill="#FFFFFF" d="M92.831,31.521c-0.055-1.142-0.106-2.353-0.668-3.332c-0.554-1.009-1.753-1.328-2.864-1.336
					c-1.14,0.001-2.312,0.076-3.467,0.037c-1.159-0.046-2.318-0.082-3.477-0.225c-0.014-0.002-0.024-0.014-0.022-0.028
					c0.001-0.012,0.011-0.021,0.022-0.022c1.159-0.143,2.318-0.179,3.477-0.225c1.163-0.027,2.309,0.01,3.486,0.063
					c0.59,0.044,1.192,0.137,1.749,0.389c0.558,0.245,1.037,0.688,1.314,1.225c0.541,1.096,0.506,2.304,0.499,3.453
					c0,0.014-0.011,0.025-0.025,0.025C92.842,31.546,92.832,31.535,92.831,31.521z"/>
			</g>
			<g opacity="0.5">
				<path fill="#FFFFFF" d="M208.707,31.521c-0.055-1.142-0.106-2.353-0.668-3.332c-0.554-1.009-1.753-1.328-2.864-1.336
					c-1.14,0.001-2.312,0.076-3.467,0.037c-1.159-0.046-2.318-0.082-3.477-0.225c-0.014-0.002-0.024-0.014-0.022-0.028
					c0.001-0.012,0.011-0.021,0.022-0.022c1.159-0.143,2.318-0.179,3.477-0.225c1.163-0.027,2.309,0.01,3.486,0.063
					c0.59,0.044,1.192,0.137,1.749,0.389c0.558,0.245,1.037,0.688,1.314,1.225c0.541,1.096,0.506,2.304,0.499,3.453
					c0,0.014-0.011,0.025-0.025,0.025C208.719,31.546,208.708,31.535,208.707,31.521z"/>
			</g>
			<g>
				<path fill="#FFFFFF" d="M208.707,31.521c-0.055-1.142-0.106-2.353-0.668-3.332c-0.554-1.009-1.753-1.328-2.864-1.336
					c-1.14,0.001-2.312,0.076-3.467,0.037c-1.159-0.046-2.318-0.082-3.477-0.225c-0.014-0.002-0.024-0.014-0.022-0.028
					c0.001-0.012,0.011-0.021,0.022-0.022c1.159-0.143,2.318-0.179,3.477-0.225c1.163-0.027,2.309,0.01,3.486,0.063
					c0.59,0.044,1.192,0.137,1.749,0.389c0.558,0.245,1.037,0.688,1.314,1.225c0.541,1.096,0.506,2.304,0.499,3.453
					c0,0.014-0.011,0.025-0.025,0.025C208.719,31.546,208.708,31.535,208.707,31.521z"/>
			</g>
			<g opacity="0.59">
				<path fill="#FFFFFF" d="M134.179,25.001c4.173,0.005,8.4,0.37,12.408,1.648c4.008,1.223,7.765,3.47,10.534,6.672
					c2.818,3.174,4.503,7.201,5.396,11.3c0.842,4.13,0.99,8.351,0.831,12.526c0,0.014-0.012,0.025-0.026,0.024
					c-0.013,0-0.024-0.011-0.024-0.024c-0.135-4.174-0.285-8.372-1.269-12.419c-0.898-4.037-2.513-7.983-5.211-11.147
					c-2.678-3.172-6.347-5.435-10.308-6.695c-3.954-1.332-8.163-1.765-12.331-1.836c-0.014,0-0.025-0.011-0.025-0.025
					C134.154,25.012,134.165,25.001,134.179,25.001z"/>
			</g>
			<g opacity="0.59">
				<path fill="#FFFFFF" d="M134.179,25.001c4.173,0.005,8.4,0.37,12.408,1.648c4.008,1.223,7.765,3.47,10.534,6.672
					c2.818,3.174,4.503,7.201,5.396,11.3c0.842,4.13,0.99,8.351,0.831,12.526c0,0.014-0.012,0.025-0.026,0.024
					c-0.013,0-0.024-0.011-0.024-0.024c-0.135-4.174-0.285-8.372-1.269-12.419c-0.898-4.037-2.513-7.983-5.211-11.147
					c-2.678-3.172-6.347-5.435-10.308-6.695c-3.954-1.332-8.163-1.765-12.331-1.836c-0.014,0-0.025-0.011-0.025-0.025
					C134.154,25.012,134.165,25.001,134.179,25.001z"/>
			</g>
		</g>
	</g>
	<g display="inline">
		<path fill="#EE1B25" d="M200.115,13.256L200.115,13.256c0.282-0.449,0.874-0.585,1.323-0.303l5.469,3.431
			c0.449,0.282,0.585,0.874,0.303,1.323v0c-0.282,0.449-0.874,0.585-1.323,0.303l-5.469-3.431
			C199.969,14.297,199.833,13.704,200.115,13.256z"/>
		<path fill="#EE1B25" d="M205.888,11.934L205.888,11.934c0.449,0.282,0.585,0.874,0.303,1.323l-3.431,5.469
			c-0.282,0.449-0.874,0.585-1.323,0.303v0c-0.449-0.282-0.585-0.874-0.303-1.323l3.431-5.469
			C204.846,11.788,205.439,11.652,205.888,11.934z"/>
	</g>
	<g display="inline">
		<path fill="#EE1B25" d="M212.709,34.883L212.709,34.883c0.169-0.27,0.525-0.351,0.795-0.182l3.286,2.061
			c0.27,0.169,0.351,0.525,0.182,0.795l0,0c-0.169,0.27-0.525,0.351-0.795,0.182l-3.286-2.061
			C212.622,35.508,212.54,35.152,212.709,34.883z"/>
		<path fill="#EE1B25" d="M216.178,34.088L216.178,34.088c0.27,0.169,0.351,0.525,0.182,0.795l-2.061,3.286
			c-0.169,0.27-0.525,0.351-0.795,0.182v0c-0.27-0.169-0.351-0.525-0.182-0.795l2.061-3.286
			C215.552,34.001,215.908,33.919,216.178,34.088z"/>
	</g>
	<g display="inline">
		<path fill="#EE1B25" d="M214.182,12.643L214.182,12.643c0.457-0.729,1.419-0.949,2.147-0.492l8.877,5.569
			c0.729,0.457,0.949,1.419,0.492,2.147v0c-0.457,0.729-1.419,0.949-2.147,0.492l-8.877-5.569
			C213.945,14.333,213.725,13.372,214.182,12.643z"/>
		<path fill="#EE1B25" d="M223.553,10.497L223.553,10.497c0.729,0.457,0.949,1.419,0.492,2.147l-5.569,8.877
			c-0.457,0.729-1.419,0.949-2.147,0.492v0c-0.729-0.457-0.949-1.419-0.492-2.147l5.569-8.877
			C221.862,10.26,222.824,10.04,223.553,10.497z"/>
	</g>
	<g display="inline">
		<path fill="#EE1B25" d="M213.602,25.601L213.602,25.601c0.062-0.098,0.192-0.128,0.29-0.066l1.199,0.752
			c0.098,0.062,0.128,0.192,0.066,0.29l0,0c-0.062,0.098-0.192,0.128-0.29,0.066l-1.199-0.752
			C213.57,25.83,213.54,25.7,213.602,25.601z"/>
		<path fill="#EE1B25" d="M214.868,25.312L214.868,25.312c0.098,0.062,0.128,0.192,0.066,0.29l-0.752,1.199
			c-0.062,0.098-0.192,0.128-0.29,0.066l0,0c-0.098-0.062-0.128-0.192-0.066-0.29l0.752-1.199
			C214.639,25.28,214.769,25.25,214.868,25.312z"/>
	</g>
</g>
<g>
	<g>
		<g>
			<linearGradient id="SVGID_7_" gradientUnits="userSpaceOnUse" x1="46.8911" y1="-19.669" x2="18.3449" y2="118.3043">
				<stop  offset="0" style="stop-color:#EE1B25;stop-opacity:0.4"/>
				<stop  offset="0.2576" style="stop-color:#F42425;stop-opacity:0.6724"/>
				<stop  offset="0.5674" style="stop-color:#FF3624"/>
				<stop  offset="0.8652" style="stop-color:#EE2E25"/>
				<stop  offset="0.9962" style="stop-color:#EE1B25"/>
			</linearGradient>
			<path fill="url(#SVGID_7_)" d="M28.823,73.956C9.107,73.956,0,65.599,0,49.098c0-15.644,11.25-25.072,29.894-25.072
				c19.5,0,29.894,10.715,29.894,28.501v22.287c0,17.786-10.5,28.501-29.894,28.501c-15.322,0-24.43-6-28.715-17.144
				c-1.179-3-0.321-4.394,2.679-5.572l7.822-2.893c3-1.179,4.179-0.321,5.572,2.786c1.801,4.303,5.378,6.55,11.255,6.828
				c7.604,0.36,13.925-5.832,13.925-13.445v0c0-0.618-0.556-1.081-1.162-0.964C38.423,73.465,34.441,73.956,28.823,73.956z
				 M29.894,39.776c-8.464,0-12.536,3.214-12.536,9.215c0,6.107,3.322,9.214,12.536,9.214c6.154,0,9.966-0.836,11.879-1.475
				c0.397-0.133,0.658-0.509,0.658-0.928l0-4.133C42.431,43.848,38.251,39.776,29.894,39.776z"/>
			<linearGradient id="SVGID_8_" gradientUnits="userSpaceOnUse" x1="116.2621" y1="-4.6573" x2="87.9859" y2="132.0108">
				<stop  offset="0" style="stop-color:#EE1B25;stop-opacity:0.4"/>
				<stop  offset="0.2576" style="stop-color:#F42425;stop-opacity:0.6724"/>
				<stop  offset="0.5674" style="stop-color:#FF3624"/>
				<stop  offset="0.8652" style="stop-color:#EE2E25"/>
				<stop  offset="0.9962" style="stop-color:#EE1B25"/>
			</linearGradient>
			<path fill="url(#SVGID_8_)" d="M131.472,75.349v6c0,3.215-1.071,4.394-4.394,4.394h-4.694c-0.721,0-1.306,0.585-1.306,1.306v8.96
				c0,3.147-2.551,5.699-5.699,5.699h-4.889c-3.147,0-5.699-2.551-5.699-5.699v-8.96c0-0.721-0.585-1.306-1.306-1.306H71.147
				c-3.321,0-4.393-1.179-4.393-4.394v-5.356c0-3.001,0.214-3.857,1.821-5.68l33.858-41.573c2.036-2.464,3.215-3.107,6.321-3.107
				h6.624c3.147,0,5.699,2.551,5.699,5.699V69.65c0,0.721,0.585,1.306,1.306,1.306h4.694
				C130.4,70.956,131.472,72.135,131.472,75.349z M89.015,70.956h14.471c0.721,0,1.306-0.585,1.306-1.306V52
				c0-1.227-1.538-1.777-2.316-0.828l-14.471,17.65C87.306,69.675,87.912,70.956,89.015,70.956z"/>
			<linearGradient id="SVGID_9_" gradientUnits="userSpaceOnUse" x1="179.2357" y1="7.7126" x2="150.6895" y2="145.6859">
				<stop  offset="0" style="stop-color:#EE1B25;stop-opacity:0.4"/>
				<stop  offset="0.2576" style="stop-color:#F42425;stop-opacity:0.6724"/>
				<stop  offset="0.5674" style="stop-color:#FF3624"/>
				<stop  offset="0.8652" style="stop-color:#EE2E25"/>
				<stop  offset="0.9962" style="stop-color:#EE1B25"/>
			</linearGradient>
			<path fill="url(#SVGID_9_)" d="M166.833,73.956c-19.715,0-28.822-8.357-28.822-24.858c0-15.644,11.25-25.072,29.895-25.072
				c19.5,0,29.893,10.715,29.893,28.501v22.287c0,17.786-10.5,28.501-29.893,28.501c-15.322,0-24.43-6-28.717-17.144
				c-1.178-3-0.32-4.394,2.68-5.572l7.82-2.893c3.002-1.179,4.18-0.321,5.572,2.786c1.802,4.303,5.377,6.549,11.253,6.828
				c7.605,0.36,13.927-5.831,13.927-13.445v0c0-0.617-0.555-1.081-1.161-0.963C176.433,73.465,172.452,73.956,166.833,73.956z
				 M167.905,39.776c-8.465,0-12.537,3.214-12.537,9.215c0,6.107,3.322,9.214,12.537,9.214c6.153,0,9.965-0.837,11.877-1.475
				c0.397-0.133,0.658-0.509,0.658-0.927l0-4.133C180.44,43.848,176.262,39.776,167.905,39.776z"/>
			<linearGradient id="SVGID_10_" gradientUnits="userSpaceOnUse" x1="244.6756" y1="21.2519" x2="216.1294" y2="159.2252">
				<stop  offset="0" style="stop-color:#EE1B25;stop-opacity:0.4"/>
				<stop  offset="0.2576" style="stop-color:#F42425;stop-opacity:0.6724"/>
				<stop  offset="0.5674" style="stop-color:#FF3624"/>
				<stop  offset="0.8652" style="stop-color:#EE2E25"/>
				<stop  offset="0.9962" style="stop-color:#EE1B25"/>
			</linearGradient>
			<path fill="url(#SVGID_10_)" d="M255.541,61.351c-0.332,0.235-0.308,0.72,0.046,0.921c6.725,3.815,9.609,10.244,9.609,17.47
				c0,14.144-9.215,23.572-28.393,23.572c-16.502,0-25.824-6.429-30.109-18.001c-1.072-3-0.322-4.5,2.68-5.571l8.035-2.894
				c3-1.071,4.285-0.429,5.572,2.786c2.035,5.25,5.035,7.929,13.285,7.929c7.395,0,10.715-3.107,10.715-8.357
				c0-5.786-3-8.357-9-8.357h-8.465c-3.322,0-4.393-1.071-4.393-4.286v-6.099c0-2.727,2.211-4.937,4.937-4.937l6.521,0
				c5.32,0,9.565-4.824,8.471-10.03c-0.81-3.858-3.925-5.721-9.215-5.721c-7.822,0-10.287,2.679-12.322,7.929
				c-1.285,3.214-2.465,3.643-5.572,2.786l-8.035-2.893c-3-1.071-3.75-2.571-2.68-5.572c4.287-11.572,13.072-18,29.574-18
				c16.607,0,26.035,8.464,26.035,21.965C262.838,52.628,260.407,57.902,255.541,61.351z"/>
		</g>
		<g opacity="0.5">
			<path fill="#FFFFFF" d="M28.894,25.001l2.936,0.103l1.469,0.052c0.487,0.049,0.972,0.124,1.458,0.185
				c0.969,0.14,1.95,0.228,2.912,0.412l2.863,0.691c3.762,1.106,7.36,2.933,10.265,5.619c2.927,2.655,5.087,6.113,6.381,9.84
				c1.208,3.758,1.751,7.708,1.636,11.625c0,0.014-0.012,0.025-0.026,0.024c-0.013,0-0.024-0.011-0.024-0.024
				c-0.179-3.903-0.72-7.805-2.057-11.459c-1.288-3.655-3.366-7.045-6.182-9.713c-2.819-2.674-6.345-4.526-10.063-5.671
				l-2.832-0.735c-0.954-0.199-1.927-0.303-2.891-0.459c-0.483-0.069-0.966-0.151-1.45-0.209l-1.464-0.076l-2.93-0.153
				c-0.014,0-0.025-0.01-0.026-0.024C28.868,25.013,28.88,25.001,28.894,25.001z"/>
		</g>
		<g opacity="0.5">
			<path fill="#FFFFFF" d="M28.894,25.001l2.936,0.103l1.469,0.052c0.487,0.049,0.972,0.124,1.458,0.185
				c0.969,0.14,1.95,0.228,2.912,0.412l2.863,0.691c3.762,1.106,7.36,2.933,10.265,5.619c2.927,2.655,5.087,6.113,6.381,9.84
				c1.208,3.758,1.751,7.708,1.636,11.625c0,0.014-0.012,0.025-0.026,0.024c-0.013,0-0.024-0.011-0.024-0.024
				c-0.179-3.903-0.72-7.805-2.057-11.459c-1.288-3.655-3.366-7.045-6.182-9.713c-2.819-2.674-6.345-4.526-10.063-5.671
				l-2.832-0.735c-0.954-0.199-1.927-0.303-2.891-0.459c-0.483-0.069-0.966-0.151-1.45-0.209l-1.464-0.076l-2.93-0.153
				c-0.014,0-0.025-0.01-0.026-0.024C28.868,25.013,28.88,25.001,28.894,25.001z"/>
		</g>
		<g opacity="0.5">
			<path fill="#FFFFFF" d="M166.894,25.001l2.936,0.103l1.469,0.052c0.487,0.049,0.972,0.124,1.458,0.185
				c0.969,0.14,1.95,0.228,2.912,0.412l2.863,0.691c3.762,1.106,7.36,2.933,10.265,5.619c2.927,2.655,5.087,6.113,6.381,9.84
				c1.208,3.758,1.751,7.708,1.635,11.625c0,0.014-0.012,0.025-0.026,0.024c-0.013,0-0.024-0.011-0.024-0.024
				c-0.179-3.903-0.72-7.805-2.057-11.459c-1.288-3.655-3.366-7.045-6.182-9.713c-2.819-2.674-6.345-4.526-10.063-5.671
				l-2.832-0.735c-0.954-0.199-1.927-0.303-2.891-0.459c-0.483-0.069-0.966-0.151-1.45-0.209l-1.464-0.076l-2.93-0.153
				c-0.014,0-0.025-0.01-0.026-0.024C166.868,25.013,166.88,25.001,166.894,25.001z"/>
		</g>
		<g opacity="0.5">
			<path fill="#FFFFFF" d="M166.894,25.001l2.936,0.103l1.469,0.052c0.487,0.049,0.972,0.124,1.458,0.185
				c0.969,0.14,1.95,0.228,2.912,0.412l2.863,0.691c3.762,1.106,7.36,2.933,10.265,5.619c2.927,2.655,5.087,6.113,6.381,9.84
				c1.208,3.758,1.751,7.708,1.635,11.625c0,0.014-0.012,0.025-0.026,0.024c-0.013,0-0.024-0.011-0.024-0.024
				c-0.179-3.903-0.72-7.805-2.057-11.459c-1.288-3.655-3.366-7.045-6.182-9.713c-2.819-2.674-6.345-4.526-10.063-5.671
				l-2.832-0.735c-0.954-0.199-1.927-0.303-2.891-0.459c-0.483-0.069-0.966-0.151-1.45-0.209l-1.464-0.076l-2.93-0.153
				c-0.014,0-0.025-0.01-0.026-0.024C166.868,25.013,166.88,25.001,166.894,25.001z"/>
		</g>
		<g opacity="0.5">
			<path fill="#FFFFFF" d="M115.686,26.607c0.606-0.013,1.223-0.028,1.833,0.1c0.604,0.123,1.217,0.354,1.709,0.788
				c0.493,0.422,0.858,1.033,0.951,1.668c0.09,0.636,0.066,1.258-0.076,1.863c-0.003,0.014-0.017,0.022-0.031,0.019
				c-0.01-0.002-0.017-0.01-0.019-0.019c-0.144-0.605-0.197-1.203-0.363-1.755c-0.144-0.551-0.347-1.076-0.738-1.486
				c-0.805-0.814-2.081-1.042-3.267-1.127c-0.014,0-0.025-0.012-0.024-0.026C115.661,26.619,115.673,26.608,115.686,26.607z"/>
		</g>
		<g opacity="0.5">
			<path fill="#FFFFFF" d="M115.686,26.607c0.606-0.013,1.223-0.028,1.833,0.1c0.604,0.123,1.217,0.354,1.709,0.788
				c0.493,0.422,0.858,1.033,0.951,1.668c0.09,0.636,0.066,1.258-0.076,1.863c-0.003,0.014-0.017,0.022-0.031,0.019
				c-0.01-0.002-0.017-0.01-0.019-0.019c-0.144-0.605-0.197-1.203-0.363-1.755c-0.144-0.551-0.347-1.076-0.738-1.486
				c-0.805-0.814-2.081-1.042-3.267-1.127c-0.014,0-0.025-0.012-0.024-0.026C115.661,26.619,115.673,26.608,115.686,26.607z"/>
		</g>
		<g>
			<path fill="#FFFFFF" d="M235.803,25.001c1.603,0.075,3.216,0.071,4.816,0.211l2.392,0.327c0.398,0.06,0.801,0.096,1.195,0.177
				l1.172,0.297c3.154,0.667,6.17,2.039,8.769,3.964l0.978,0.725L256,31.55l0.875,0.85l0.764,0.95l0.746,0.965l0.632,1.044
				c0.452,0.68,0.78,1.424,1.12,2.163c1.291,2.984,1.839,6.257,1.727,9.469c0,0.014-0.012,0.025-0.026,0.024
				c-0.013,0-0.023-0.011-0.024-0.024c-0.174-3.197-0.791-6.386-2.135-9.268c-1.286-2.897-3.266-5.481-5.775-7.429
				c-2.516-1.926-5.468-3.33-8.587-4.039l-1.157-0.319c-0.39-0.089-0.789-0.132-1.183-0.2l-2.374-0.374
				c-1.591-0.173-3.199-0.202-4.801-0.311c-0.014,0.001-0.026-0.01-0.026-0.024C235.776,25.013,235.79,25.001,235.803,25.001z"/>
		</g>
		<g>
			<path fill="#FFFFFF" d="M235.803,25.001c1.603,0.075,3.216,0.071,4.816,0.211l2.392,0.327c0.398,0.06,0.801,0.096,1.195,0.177
				l1.172,0.297c3.154,0.667,6.17,2.039,8.769,3.964l0.978,0.725L256,31.55l0.875,0.85l0.764,0.95l0.746,0.965l0.632,1.044
				c0.452,0.68,0.78,1.424,1.12,2.163c1.291,2.984,1.839,6.257,1.727,9.469c0,0.014-0.012,0.025-0.026,0.024
				c-0.013,0-0.023-0.011-0.024-0.024c-0.174-3.197-0.791-6.386-2.135-9.268c-1.286-2.897-3.266-5.481-5.775-7.429
				c-2.516-1.926-5.468-3.33-8.587-4.039l-1.157-0.319c-0.39-0.089-0.789-0.132-1.183-0.2l-2.374-0.374
				c-1.591-0.173-3.199-0.202-4.801-0.311c-0.014,0.001-0.026-0.01-0.026-0.024C235.776,25.013,235.79,25.001,235.803,25.001z"/>
		</g>
	</g>
	<g>
		<g>
			<path fill="#EE1B25" d="M58.99,17.501L58.99,17.501c0.387-0.617,1.2-0.803,1.817-0.416l7.512,4.713
				c0.617,0.387,0.803,1.2,0.416,1.817v0c-0.387,0.617-1.201,0.803-1.817,0.416l-7.512-4.713
				C58.789,18.931,58.603,18.118,58.99,17.501z"/>
			<path fill="#EE1B25" d="M66.919,15.685L66.919,15.685c0.617,0.387,0.803,1.2,0.416,1.817l-4.713,7.512
				c-0.387,0.617-1.2,0.803-1.817,0.416v0c-0.617-0.387-0.803-1.2-0.416-1.817l4.713-7.512
				C65.489,15.485,66.303,15.298,66.919,15.685z"/>
		</g>
		<g>
			<path fill="#EE1B25" d="M84.564,28.26l0.229-0.365c0.169-0.27,0.525-0.351,0.795-0.182l4.878,3.06
				c0.27,0.169,0.351,0.525,0.182,0.795l-0.229,0.365c-0.169,0.27-0.525,0.351-0.795,0.182l-4.878-3.06
				C84.477,28.886,84.395,28.53,84.564,28.26z"/>
			<path fill="#EE1B25" d="M89.261,26.872l0.365,0.229c0.27,0.169,0.351,0.525,0.182,0.795l-3.06,4.878
				c-0.169,0.27-0.525,0.351-0.795,0.182l-0.365-0.229c-0.27-0.169-0.351-0.525-0.182-0.795l3.06-4.878
				C88.635,26.784,88.991,26.703,89.261,26.872z"/>
		</g>
		<g>
			<path fill="#EE1B25" d="M78.003,5.782l0.618-0.986c0.457-0.729,1.419-0.949,2.147-0.492l13.179,8.268
				c0.729,0.457,0.949,1.419,0.492,2.147l-0.618,0.986c-0.457,0.729-1.419,0.949-2.147,0.492L78.495,7.93
				C77.766,7.473,77.546,6.511,78.003,5.782z"/>
			<path fill="#EE1B25" d="M90.69,2.033l0.986,0.618c0.729,0.457,0.949,1.419,0.492,2.147L83.9,17.978
				c-0.457,0.729-1.419,0.949-2.147,0.492l-0.986-0.618c-0.729-0.457-0.949-1.419-0.492-2.147l8.268-13.179
				C89,1.796,89.962,1.576,90.69,2.033z"/>
		</g>
		<g>
			<path fill="#EE1B25" d="M64.593,35.484L64.593,35.484c0.33-0.527,1.025-0.686,1.552-0.355l6.415,4.024
				c0.527,0.33,0.686,1.025,0.355,1.552v0c-0.33,0.527-1.025,0.686-1.552,0.355l-6.415-4.024
				C64.422,36.706,64.263,36.011,64.593,35.484z"/>
			<path fill="#EE1B25" d="M71.364,33.934L71.364,33.934c0.527,0.33,0.686,1.025,0.355,1.552L67.695,41.9
				c-0.33,0.527-1.025,0.686-1.552,0.355h0c-0.527-0.33-0.686-1.025-0.355-1.552l4.024-6.415
				C70.143,33.763,70.837,33.603,71.364,33.934z"/>
		</g>
	</g>
</g>
</svg>
