<?xml version="1.0" encoding="utf-8"?>
<!-- Generator: Adobe Illustrator 21.1.0, SVG Export Plug-In . SVG Version: 6.00 Build 0)  -->
<svg version="1.1" id="Слой_1" xmlns="http://www.w3.org/2000/svg" xmlns:xlink="http://www.w3.org/1999/xlink" x="0px" y="0px"
	 viewBox="0 0 415.586 241.509" enable-background="new 0 0 415.586 241.509" xml:space="preserve">
<g>
	<defs>
		<rect id="SVGID_1_" width="415.586" height="241.509"/>
	</defs>
	<clipPath id="SVGID_2_">
		<use xlink:href="#SVGID_1_"  overflow="visible"/>
	</clipPath>
	<path clip-path="url(#SVGID_2_)" fill-rule="evenodd" clip-rule="evenodd" fill="#AF4F46" d="M310.495,186.515
		c34.097-2.672,63.32,27.762,78.866,4.017c3.352-5.123,3.967-9.17,3.947-15.349c-0.045-14.767,0.517-7.044,4.279-15.686
		c5.607-12.891-26.902-35.882-36.393-42.909c-14.462-10.708-15.251,2.406-31.252-6.201c-11.29-6.073-21.668-8.893-21.635-18.376
		c10.249-6.347,22.959-1.384,33.068,2.195c2.227-12.077-32.7-33.083-42.679-38.34c-9.484-4.996-23.351-8.205-30.4-12.104
		c-11.185-6.182-7.788-22.39-9.284-32.943c-16.685-1.032-41.125,7.571-56.964,13.336C150.627,42.86,128.519,40.72,76.926,41.586
		c-32.418,0.545-53.958,11.882-63.168,8.66C12.519,38.599,27.146,37.977,37.097,34.6c9.407-3.187,21.578-5.905,31.872-6.877
		c69.667-6.583,74.537,6.712,137.695-16.357c15.129-5.525,45.794-14.524,63.85-10.251c4.081,10.224-5.725,18.956,3.094,31.242
		c6.701,5.463,66.213,9.881,79.946,61.34c1.81,6.791,8.432,8.522,14.502,12.805c26.146,18.451,60.961,37.536,42.207,57.861
		c-11.068,11.994-1.142,25.914-17.73,37.381c-12.424,8.587-30.699,8.719-45.559,4.978c-14.266-3.592-30.599-6.294-44.719-10.081
		C301.233,188.321,301.658,187.207,310.495,186.515"/>
	<path clip-path="url(#SVGID_2_)" fill-rule="evenodd" clip-rule="evenodd" fill="#52AC62" d="M324.025,121.384
		c-12.769-6.867-28.267-11.819-28.207-29.416l0.025-6.929l5.887-3.647c2.83-1.751,5.688-2.969,8.567-3.756
		c-7.058-4.783-14.134-8.989-17.421-10.72c-9.599-5.058-21.126-6.974-30.622-12.224c-11.558-6.392-14.575-17.954-15.087-30.238
		l-0.02-0.485c-13.673,2.083-30.152,8.036-40.828,11.922c-22.118,8.048-43.496,13.95-66.969,16.243
		c-20.505,2.003-41.608,1.594-62.214,1.938c-13.024,0.22-25.018,2.433-37.629,5.41c-8.986,2.123-20.893,5.693-29.873,2.55
		l-7.458-2.607l-0.065-0.604l11.575-10.109c-0.008,0.489,0.015,0.999,0.072,1.534c9.209,3.221,30.75-8.115,63.168-8.66
		c51.593-0.867,73.701,1.274,125.122-17.431c15.838-5.766,40.279-14.368,56.963-13.336c1.496,10.553-1.9,26.761,9.285,32.942
		c7.048,3.899,20.916,7.109,30.4,12.104c9.978,5.258,44.906,26.264,42.679,38.341c-10.109-3.579-22.82-8.542-33.068-2.196
		c-0.033,9.484,10.345,12.304,21.635,18.376c16.001,8.607,16.79-4.506,31.252,6.202c9.491,7.026,42,30.018,36.393,42.909
		c-3.762,8.642-4.325,0.919-4.28,15.686c0.021,6.179-0.594,10.225-3.946,15.348c-15.546,23.746-44.77-6.689-78.866-4.016
		c-8.837,0.692-9.262,1.806-8.241,10.126h-12.56c-1.397-14.735,4.383-21.366,19.827-22.577c15.428-1.209,29.203,2.999,43.563,7.915
		c4.725,1.618,17.469,6.429,22.349,4.876c1.53-0.488,2.633-1.874,3.478-3.162c1.921-2.935,1.918-4.971,1.908-8.471
		c-0.023-7.555-0.645-13.457,4.688-19.442c-3.06-8.005-25.582-24.593-31.744-29.153c-0.667-0.495-2.56-1.847-3.414-2.009
		c-0.218,0-0.508,0.073-0.722,0.115C339.284,126.699,333.761,126.622,324.025,121.384"/>
	<path clip-path="url(#SVGID_2_)" fill="#FFFFFF" d="M372.995,200.95c-2.313,0-4.828-0.289-7.691-0.886l0.53-2.541
		c2.685,0.559,5.028,0.831,7.161,0.831c1.858,0,3.525-0.203,5.096-0.622l0.669,2.508C376.969,200.718,375.083,200.95,372.995,200.95
		 M357.661,198.031c-2.739-0.849-5.529-1.805-8.482-2.817c-1.257-0.43-2.558-0.876-3.859-1.314l0.828-2.46
		c1.308,0.441,2.612,0.887,3.871,1.319c2.936,1.005,5.707,1.954,8.41,2.792L357.661,198.031z M300.967,196.799
		c-0.175-1.421-0.275-2.379-0.335-3.201l2.589-0.189c0.057,0.777,0.153,1.697,0.322,3.074L300.967,196.799z M386.083,196.337
		l-1.7-1.961c1.397-1.212,2.707-2.744,3.892-4.555c1.277-1.951,2.139-3.728,2.715-5.594l2.48,0.767
		c-0.65,2.104-1.61,4.089-3.023,6.248C389.13,193.254,387.662,194.969,386.083,196.337 M337.945,191.538
		c-4.587-1.367-8.662-2.338-12.458-2.969l0.425-2.56c3.905,0.649,8.083,1.644,12.775,3.042L337.945,191.538z M305.427,188.54
		l-0.727-2.491c1.27-0.371,2.919-0.611,5.693-0.828c1.455-0.114,2.952-0.172,4.45-0.172c1.047,0,2.122,0.029,3.193,0.085
		l-0.136,2.592c-1.026-0.054-2.054-0.081-3.057-0.081c-1.43,0-2.859,0.055-4.247,0.164
		C308.046,188.009,306.5,188.227,305.427,188.54 M394.592,176.954l-2.596-0.055c0.01-0.451,0.015-0.92,0.015-1.433
		c0-0.093,0-0.185-0.001-0.279c-0.001-0.511-0.002-0.995-0.002-1.453c0-7.972,0.231-8.798,1.675-10.323l1.886,1.784
		c-0.762,0.804-0.966,1.02-0.966,8.539c0,0.456,0.001,0.937,0.002,1.445c0.001,0.096,0.001,0.191,0.001,0.287
		C394.606,175.997,394.601,176.484,394.592,176.954 M399.433,157.676l-2.57-0.363c0.047-0.33,0.071-0.675,0.071-1.026
		c-0.001-2.73-1.412-6.073-4.195-9.937l2.106-1.517c3.109,4.314,4.685,8.168,4.685,11.454
		C399.53,156.759,399.498,157.226,399.433,157.676 M387.85,140.5c-2.568-2.737-5.713-5.704-9.344-8.817l1.689-1.971
		c3.703,3.175,6.915,6.207,9.548,9.012L387.85,140.5z M372.521,126.761c-4.047-3.207-7.826-5.985-10.327-7.824l1.538-2.091
		c2.516,1.849,6.318,4.645,10.401,7.88L372.521,126.761z M355.884,114.814c-1.959-0.943-3.706-1.383-5.498-1.383
		c-1.499,0-2.896,0.304-4.375,0.626c-0.634,0.138-1.29,0.28-1.972,0.403l-0.459-2.554c0.636-0.115,1.267-0.252,1.879-0.386
		c1.549-0.337,3.15-0.685,4.927-0.685c2.195,0,4.3,0.521,6.624,1.64L355.884,114.814z M335.765,114.172
		c-2.017-0.533-4.124-1.398-6.437-2.643c-1.937-1.041-3.896-2.01-5.58-2.837l1.143-2.33c1.705,0.837,3.691,1.819,5.666,2.882
		c2.133,1.147,4.053,1.938,5.872,2.418L335.765,114.172z M316.745,105.124c-3.913-2.195-8.084-5.088-9.343-9.899l2.511-0.657
		c0.432,1.647,1.332,3.123,2.752,4.514c1.27,1.243,2.97,2.443,5.35,3.779L316.745,105.124z M342.375,95.937l-1.434-0.507
		c-0.425-0.151-0.855-0.304-1.289-0.459c-2.236-0.796-4.548-1.619-6.926-2.356l0.769-2.479c2.292,0.71,4.502,1.491,6.643,2.253
		c-0.068-0.595-0.225-1.228-0.467-1.892l2.437-0.891c0.443,1.208,0.666,2.373,0.666,3.461c0,0.468-0.041,0.93-0.123,1.375
		L342.375,95.937z M313.108,91.221l-0.787-2.474c2.268-0.721,4.756-1.086,7.398-1.086c1.913,0,3.895,0.182,6.06,0.556l-0.442,2.557
		c-2.017-0.348-3.855-0.518-5.618-0.518C317.345,90.256,315.12,90.581,313.108,91.221 M335.76,84.343
		c-2.262-2.656-5.38-5.596-9.269-8.738l1.632-2.019c4.013,3.243,7.247,6.296,9.613,9.075L335.76,84.343z M320.342,70.927
		c-3.295-2.374-6.905-4.793-10.728-7.191l1.379-2.199c3.87,2.427,7.526,4.878,10.866,7.284L320.342,70.927z M302.973,59.73
		c-2.284-1.322-3.916-2.207-4.882-2.716c-1.854-0.977-4.004-1.95-6.576-2.976l0.962-2.411c2.657,1.06,4.889,2.071,6.824,3.09
		c1.416,0.747,3.135,1.703,4.972,2.767L302.973,59.73z M17.752,52.119c-1.729,0-3.176-0.212-4.423-0.648l0.858-2.45
		c0.966,0.338,2.133,0.502,3.565,0.502c2.122,0,4.763-0.354,8.566-1.147l0.53,2.541C22.865,51.748,20.059,52.119,17.752,52.119
		 M284.26,51.359c-0.927-0.324-1.851-0.643-2.765-0.959c-3.438-1.189-6.686-2.311-9.513-3.477l0.989-2.399
		c2.758,1.136,5.971,2.247,9.373,3.423c0.916,0.317,1.842,0.637,2.772,0.962L284.26,51.359z M34.475,49.175l-0.599-2.525
		l0.285-0.068c3.697-0.878,7.886-1.873,12.418-2.795l0.517,2.544c-4.491,0.913-8.658,1.903-12.334,2.776L34.475,49.175z
		 M54.706,44.932l-0.418-2.562c4.47-0.729,8.715-1.253,12.98-1.603l0.212,2.587C63.285,43.698,59.106,44.214,54.706,44.932
		 M75.186,42.924l-0.076-2.595c0.597-0.017,1.2-0.031,1.795-0.041c3.346-0.056,6.904-0.105,11.197-0.155l0.03,2.596
		c-4.288,0.049-7.842,0.099-11.184,0.155C76.365,42.893,75.772,42.907,75.186,42.924 M264.853,42.919
		c-3.139-2.776-5.013-6.662-5.898-12.229l2.563-0.407c0.786,4.939,2.392,8.337,5.055,10.692L264.853,42.919z M95.911,42.643
		l-0.028-2.595c4.211-0.046,8.68-0.097,12.955-0.176l0.048,2.595C104.602,42.546,100.127,42.598,95.911,42.643 M116.679,42.282
		l-0.078-2.595c4.75-0.143,8.972-0.337,12.905-0.591l0.168,2.59C125.71,41.943,121.46,42.138,116.679,42.282 M137.465,41.071
		l-0.244-2.584c4.419-0.417,8.602-0.934,12.788-1.579l0.395,2.565C146.168,40.126,141.935,40.649,137.465,41.071 M158.116,38.137
		l-0.491-2.549c4.159-0.801,8.273-1.718,12.578-2.807l0.636,2.516C166.486,36.398,162.324,37.327,158.116,38.137 M178.388,33.265
		l-0.711-2.497c3.943-1.124,8.094-2.404,12.338-3.805l0.814,2.465C186.551,30.84,182.366,32.131,178.388,33.265 M198.216,26.906
		l-0.863-2.449c1.387-0.488,2.818-1.001,4.251-1.522c2.29-0.834,5.029-1.825,7.974-2.856l0.858,2.449
		c-2.932,1.027-5.661,2.015-7.944,2.846C201.05,25.899,199.611,26.414,198.216,26.906 M258.303,22.767
		c-0.034-1.032-0.056-2.07-0.078-3.074c-0.067-3.135-0.13-6.097-0.499-8.692l0.221-0.031l0.056-1.5
		c0.366,0.014,0.732,0.031,1.089,0.054l1.056,0.065l0.149,1.048c0.389,2.748,0.455,5.785,0.523,9
		c0.022,0.998,0.044,2.029,0.076,3.048L258.303,22.767z M217.789,20.031l-0.809-2.467c4.511-1.479,8.598-2.712,12.495-3.771
		l0.681,2.505C226.303,17.345,222.257,18.566,217.789,20.031 M237.658,14.433l-0.565-2.534c4.717-1.052,9.078-1.776,12.959-2.15
		l0.249,2.584C246.525,12.697,242.272,13.403,237.658,14.433"/>
	<path clip-path="url(#SVGID_2_)" fill-rule="evenodd" clip-rule="evenodd" fill="#FFFFFF" d="M59.568,172.486
		c0,7.048-0.918,12.118-2.756,15.193c-1.816,3.093-4.611,5.01-8.323,5.789c-3.733,0.778-9.663,1.177-17.808,1.177H2.194V99.901
		h48.251v16.43H26.868v16.03h3.813c7.606,0,13.355,0.44,17.248,1.338c3.893,0.898,6.808,2.874,8.745,5.949
		c1.936,3.053,2.894,7.864,2.894,14.412V172.486z M34.893,169.612v-13.675c0-3.992-0.398-6.409-1.197-7.267
		c-0.799-0.859-3.075-1.337-6.828-1.457v31.123c3.135,0,5.25-0.4,6.348-1.199C34.334,176.34,34.893,173.824,34.893,169.612
		 M110.812,99.961l14.094,94.684H99.693l-1.219-17.028h-8.843l-1.457,17.028H62.682l12.517-94.684H110.812z M97.777,160.848
		c-1.259-10.719-2.496-23.976-3.753-39.726c-2.496,18.106-4.054,31.342-4.673,39.726H97.777z M129.118,99.961h24.793
		c6.709,0,11.879,0.519,15.473,1.577c3.612,1.058,6.328,2.576,8.124,4.552c1.817,1.996,3.055,4.411,3.693,7.226
		c0.64,2.835,0.959,7.206,0.959,13.136v8.244c0,6.05-0.618,10.461-1.857,13.216c-1.257,2.774-3.553,4.891-6.887,6.388
		c-3.334,1.477-7.686,2.216-13.056,2.216h-6.607v38.129h-24.635V99.961z M153.753,116.151v24.095c0.698,0.04,1.297,0.06,1.796,0.06
		c2.275,0,3.834-0.559,4.712-1.657c0.878-1.118,1.316-3.434,1.316-6.926v-7.787c0-3.234-0.498-5.349-1.516-6.308
		C159.042,116.65,156.947,116.151,153.753,116.151 M246.739,141.244h-24.614v-16.49c0-4.789-0.28-7.784-0.799-8.982
		c-0.519-1.177-1.677-1.776-3.473-1.776c-2.036,0-3.314,0.718-3.873,2.155c-0.54,1.457-0.819,4.571-0.819,9.363v43.979
		c0,4.611,0.279,7.604,0.819,9.002c0.559,1.417,1.776,2.117,3.693,2.117c1.837,0,3.035-0.7,3.593-2.117
		c0.56-1.398,0.859-4.69,0.859-9.88v-11.859h24.614v3.673c0,9.781-0.698,16.73-2.076,20.821c-1.378,4.092-4.452,7.686-9.183,10.761
		c-4.731,3.074-10.58,4.63-17.508,4.63c-7.225,0-13.175-1.318-17.845-3.933c-4.673-2.614-7.787-6.228-9.304-10.839
		c-1.518-4.631-2.275-11.579-2.275-20.861V133.36c0-6.827,0.239-11.938,0.697-15.352c0.48-3.413,1.858-6.708,4.193-9.862
		c2.316-3.154,5.529-5.65,9.642-7.466c4.112-1.797,8.844-2.715,14.175-2.715c7.265,0,13.254,1.417,17.965,4.212
		c4.711,2.815,7.805,6.308,9.304,10.501c1.477,4.192,2.215,10.72,2.215,19.564V141.244z"/>
	<g clip-path="url(#SVGID_2_)">
		<text transform="matrix(1 0 0 1 0 230.4865)"><tspan x="0" y="0" fill="#FFFFFF" font-family="'Roboto-Medium'" font-size="40.6724px">У</tspan><tspan x="25.171" y="0" fill="#FFFFFF" font-family="'Roboto-Medium'" font-size="40.6724px">чебный Центр</tspan></text>
	</g>
</g>
</svg>
